<mxfile host="Electron" agent="Mozilla/5.0 (Windows NT 10.0; Win64; x64) AppleWebKit/537.36 (KHTML, like Gecko) draw.io/26.2.2 Chrome/134.0.6998.178 Electron/35.1.2 Safari/537.36" version="26.2.2">
  <diagram name="Page-1" id="C9Ojf0a19pe-iIOyr2uR">
    <mxGraphModel dx="1182" dy="687" grid="1" gridSize="10" guides="1" tooltips="1" connect="1" arrows="1" fold="1" page="1" pageScale="1" pageWidth="827" pageHeight="1169" math="1" shadow="0">
      <root>
        <mxCell id="0" />
        <mxCell id="1" parent="0" />
        <mxCell id="eD7BpKBJ3AIuO1GdsIJj-16" value="SOAR Platform Execution" style="rounded=1;whiteSpace=wrap;html=1;verticalAlign=top;" vertex="1" parent="1">
          <mxGeometry x="1096.48" y="540" width="123.52" height="60" as="geometry" />
        </mxCell>
        <mxCell id="g5C7Mxiqw0isMGBFC2JA-15" value="" style="rounded=1;whiteSpace=wrap;html=1;fillColor=#dae8fc;strokeColor=#6c8ebf;" parent="1" vertex="1">
          <mxGeometry x="1000.7" y="875" width="120" height="125" as="geometry" />
        </mxCell>
        <mxCell id="g5C7Mxiqw0isMGBFC2JA-1" value="" style="shape=image;verticalLabelPosition=bottom;labelBackgroundColor=default;verticalAlign=top;aspect=fixed;imageAspect=0;editableCssRules=.*;image=data:image/svg+xml,PHN2ZyB4bWxuczp4bGluaz0iaHR0cDovL3d3dy53My5vcmcvMTk5OS94bGluayIgeG1sbnM9Imh0dHA6Ly93d3cudzMub3JnLzIwMDAvc3ZnIiB2ZXJzaW9uPSIxLjEiIHZpZXdCb3g9IjQ2NCA1MDQgMTA4MiAyNTIiIGhlaWdodD0iMjUyIiB3aWR0aD0iMTA4MiI+PGRlZnM+PHBhdHRlcm4gcGF0dGVyblVuaXRzPSJ1c2VyU3BhY2VPblVzZSIgaGVpZ2h0PSIxMCIgd2lkdGg9IjEwIiBpZD0iZGpzLWdyaWQtcGF0dGVybi0xNjA2MzIiPjxjaXJjbGUgc3R5bGU9ImZpbGw6IHJnYigyMDQsIDIwNCwgMjA0KTsiIHI9IjAuNSIgY3k9IjAuNSIgY3g9IjAuNSIvPjwvcGF0dGVybj48bWFya2VyIG9yaWVudD0iYXV0byIgbWFya2VySGVpZ2h0PSIxMCIgbWFya2VyV2lkdGg9IjEwIiByZWZZPSIxMCIgcmVmWD0iMTEiIHZpZXdCb3g9IjAgMCAyMCAyMCIgaWQ9ImNhY2FvLW1hcmtlci1ibGFjayI+PHBhdGggc3R5bGU9ImZpbGw6IGJsYWNrOyIgZD0iTSAxIDUgTCAxMSAxMCBMIDEgMTUgWiIvPjwvbWFya2VyPjxtYXJrZXIgb3JpZW50PSJhdXRvIiBtYXJrZXJIZWlnaHQ9IjEwIiBtYXJrZXJXaWR0aD0iMTAiIHJlZlk9IjEwIiByZWZYPSIxMSIgdmlld0JveD0iMCAwIDIwIDIwIiBpZD0iY2FjYW8tbWFya2VyLV82NTA0QzEiPjxwYXRoIHN0eWxlPSJmaWxsOiByZ2IoMTAxLCA0LCAxOTMpOyIgZD0iTSAxIDUgTCAxMSAxMCBMIDEgMTUgWiIvPjwvbWFya2VyPjxtYXJrZXIgb3JpZW50PSJhdXRvIiBtYXJrZXJIZWlnaHQ9IjEwIiBtYXJrZXJXaWR0aD0iMTAiIHJlZlk9IjEwIiByZWZYPSIxMSIgdmlld0JveD0iMCAwIDIwIDIwIiBpZD0iY2FjYW8tbWFya2VyLV82NTA0QzEiPjxwYXRoIHN0eWxlPSJmaWxsOiByZ2IoMTAxLCA0LCAxOTMpOyIgZD0iTSAxIDUgTCAxMSAxMCBMIDEgMTUgWiIvPjwvbWFya2VyPjxtYXJrZXIgb3JpZW50PSJhdXRvIiBtYXJrZXJIZWlnaHQ9IjEwIiBtYXJrZXJXaWR0aD0iMTAiIHJlZlk9IjEwIiByZWZYPSIxMSIgdmlld0JveD0iMCAwIDIwIDIwIiBpZD0iY2FjYW8tbWFya2VyLWJsYWNrIj48cGF0aCBzdHlsZT0iZmlsbDogYmxhY2s7IiBkPSJNIDEgNSBMIDExIDEwIEwgMSAxNSBaIi8+PC9tYXJrZXI+PG1hcmtlciBvcmllbnQ9ImF1dG8iIG1hcmtlckhlaWdodD0iMTAiIG1hcmtlcldpZHRoPSIxMCIgcmVmWT0iMTAiIHJlZlg9IjExIiB2aWV3Qm94PSIwIDAgMjAgMjAiIGlkPSJjYWNhby1tYXJrZXItX0FDN0YwQyI+PHBhdGggc3R5bGU9ImZpbGw6IHJnYigxNzIsIDEyNywgMTIpOyIgZD0iTSAxIDUgTCAxMSAxMCBMIDEgMTUgWiIvPjwvbWFya2VyPjxtYXJrZXIgb3JpZW50PSJhdXRvIiBtYXJrZXJIZWlnaHQ9IjEwIiBtYXJrZXJXaWR0aD0iMTAiIHJlZlk9IjEwIiByZWZYPSIxMSIgdmlld0JveD0iMCAwIDIwIDIwIiBpZD0iY2FjYW8tbWFya2VyLV9BQzdGMEMiPjxwYXRoIHN0eWxlPSJmaWxsOiByZ2IoMTcyLCAxMjcsIDEyKTsiIGQ9Ik0gMSA1IEwgMTEgMTAgTCAxIDE1IFoiLz48L21hcmtlcj48bWFya2VyIG9yaWVudD0iYXV0byIgbWFya2VySGVpZ2h0PSIxMCIgbWFya2VyV2lkdGg9IjEwIiByZWZZPSIxMCIgcmVmWD0iMTEiIHZpZXdCb3g9IjAgMCAyMCAyMCIgaWQ9ImNhY2FvLW1hcmtlci1ibGFjayI+PHBhdGggc3R5bGU9ImZpbGw6IGJsYWNrOyIgZD0iTSAxIDUgTCAxMSAxMCBMIDEgMTUgWiIvPjwvbWFya2VyPjxtYXJrZXIgb3JpZW50PSJhdXRvIiBtYXJrZXJIZWlnaHQ9IjEwIiBtYXJrZXJXaWR0aD0iMTAiIHJlZlk9IjEwIiByZWZYPSIxMSIgdmlld0JveD0iMCAwIDIwIDIwIiBpZD0iY2FjYW8tbWFya2VyLWJsYWNrIj48cGF0aCBzdHlsZT0iZmlsbDogYmxhY2s7IiBkPSJNIDEgNSBMIDExIDEwIEwgMSAxNSBaIi8+PC9tYXJrZXI+PG1hcmtlciBvcmllbnQ9ImF1dG8iIG1hcmtlckhlaWdodD0iMTAiIG1hcmtlcldpZHRoPSIxMCIgcmVmWT0iMTAiIHJlZlg9IjExIiB2aWV3Qm94PSIwIDAgMjAgMjAiIGlkPSJjYWNhby1tYXJrZXItXzY1MDRDMSI+PHBhdGggc3R5bGU9ImZpbGw6IHJnYigxMDEsIDQsIDE5Myk7IiBkPSJNIDEgNSBMIDExIDEwIEwgMSAxNSBaIi8+PC9tYXJrZXI+PG1hcmtlciBvcmllbnQ9ImF1dG8iIG1hcmtlckhlaWdodD0iMTAiIG1hcmtlcldpZHRoPSIxMCIgcmVmWT0iMTAiIHJlZlg9IjExIiB2aWV3Qm94PSIwIDAgMjAgMjAiIGlkPSJjYWNhby1tYXJrZXItYmxhY2siPjxwYXRoIHN0eWxlPSJmaWxsOiBibGFjazsiIGQ9Ik0gMSA1IEwgMTEgMTAgTCAxIDE1IFoiLz48L21hcmtlcj48bWFya2VyIG9yaWVudD0iYXV0byIgbWFya2VySGVpZ2h0PSIxMCIgbWFya2VyV2lkdGg9IjEwIiByZWZZPSIxMCIgcmVmWD0iMTEiIHZpZXdCb3g9IjAgMCAyMCAyMCIgaWQ9ImNhY2FvLW1hcmtlci1ibGFjayI+PHBhdGggc3R5bGU9ImZpbGw6IGJsYWNrOyIgZD0iTSAxIDUgTCAxMSAxMCBMIDEgMTUgWiIvPjwvbWFya2VyPjxtYXJrZXIgb3JpZW50PSJhdXRvIiBtYXJrZXJIZWlnaHQ9IjEwIiBtYXJrZXJXaWR0aD0iMTAiIHJlZlk9IjEwIiByZWZYPSIxMSIgdmlld0JveD0iMCAwIDIwIDIwIiBpZD0iY2FjYW8tbWFya2VyLWJsYWNrIj48cGF0aCBzdHlsZT0iZmlsbDogYmxhY2s7IiBkPSJNIDEgNSBMIDExIDEwIEwgMSAxNSBaIi8+PC9tYXJrZXI+PG1hcmtlciBvcmllbnQ9ImF1dG8iIG1hcmtlckhlaWdodD0iMTAiIG1hcmtlcldpZHRoPSIxMCIgcmVmWT0iMTAiIHJlZlg9IjExIiB2aWV3Qm94PSIwIDAgMjAgMjAiIGlkPSJjYWNhby1tYXJrZXItYmxhY2siPjxwYXRoIHN0eWxlPSJmaWxsOiBibGFjazsiIGQ9Ik0gMSA1IEwgMTEgMTAgTCAxIDE1IFoiLz48L21hcmtlcj48bWFya2VyIG9yaWVudD0iYXV0byIgbWFya2VySGVpZ2h0PSIxMCIgbWFya2VyV2lkdGg9IjEwIiByZWZZPSIxMCIgcmVmWD0iMTEiIHZpZXdCb3g9IjAgMCAyMCAyMCIgaWQ9ImNhY2FvLW1hcmtlci1fQUM3RjBDIj48cGF0aCBzdHlsZT0iZmlsbDogcmdiKDE3MiwgMTI3LCAxMik7IiBkPSJNIDEgNSBMIDExIDEwIEwgMSAxNSBaIi8+PC9tYXJrZXI+PG1hcmtlciBvcmllbnQ9ImF1dG8iIG1hcmtlckhlaWdodD0iMTAiIG1hcmtlcldpZHRoPSIxMCIgcmVmWT0iMTAiIHJlZlg9IjExIiB2aWV3Qm94PSIwIDAgMjAgMjAiIGlkPSJjYWNhby1tYXJrZXItYmxhY2siPjxwYXRoIHN0eWxlPSJmaWxsOiBibGFjazsiIGQ9Ik0gMSA1IEwgMTEgMTAgTCAxIDE1IFoiLz48L21hcmtlcj48bWFya2VyIG9yaWVudD0iYXV0byIgbWFya2VySGVpZ2h0PSIxMCIgbWFya2VyV2lkdGg9IjEwIiByZWZZPSIxMCIgcmVmWD0iMTEiIHZpZXdCb3g9IjAgMCAyMCAyMCIgaWQ9ImNhY2FvLW1hcmtlci1fQUM3RjBDIj48cGF0aCBzdHlsZT0iZmlsbDogcmdiKDE3MiwgMTI3LCAxMik7IiBkPSJNIDEgNSBMIDExIDEwIEwgMSAxNSBaIi8+PC9tYXJrZXI+PG1hcmtlciBvcmllbnQ9ImF1dG8iIG1hcmtlckhlaWdodD0iMTAiIG1hcmtlcldpZHRoPSIxMCIgcmVmWT0iMTAiIHJlZlg9IjExIiB2aWV3Qm94PSIwIDAgMjAgMjAiIGlkPSJjYWNhby1tYXJrZXItYmxhY2siPjxwYXRoIHN0eWxlPSJmaWxsOiBibGFjazsiIGQ9Ik0gMSA1IEwgMTEgMTAgTCAxIDE1IFoiLz48L21hcmtlcj48bWFya2VyIG9yaWVudD0iYXV0byIgbWFya2VySGVpZ2h0PSIxMCIgbWFya2VyV2lkdGg9IjEwIiByZWZZPSIxMCIgcmVmWD0iMTEiIHZpZXdCb3g9IjAgMCAyMCAyMCIgaWQ9ImNhY2FvLW1hcmtlci1ibGFjayI+PHBhdGggc3R5bGU9ImZpbGw6IGJsYWNrOyIgZD0iTSAxIDUgTCAxMSAxMCBMIDEgMTUgWiIvPjwvbWFya2VyPjxtYXJrZXIgb3JpZW50PSJhdXRvIiBtYXJrZXJIZWlnaHQ9IjEwIiBtYXJrZXJXaWR0aD0iMTAiIHJlZlk9IjEwIiByZWZYPSIxMSIgdmlld0JveD0iMCAwIDIwIDIwIiBpZD0iY2FjYW8tbWFya2VyLWJsYWNrIj48cGF0aCBzdHlsZT0iZmlsbDogYmxhY2s7IiBkPSJNIDEgNSBMIDExIDEwIEwgMSAxNSBaIi8+PC9tYXJrZXI+PG1hcmtlciBvcmllbnQ9ImF1dG8iIG1hcmtlckhlaWdodD0iMTAiIG1hcmtlcldpZHRoPSIxMCIgcmVmWT0iMTAiIHJlZlg9IjExIiB2aWV3Qm94PSIwIDAgMjAgMjAiIGlkPSJjYWNhby1tYXJrZXItYmxhY2siPjxwYXRoIHN0eWxlPSJmaWxsOiBibGFjazsiIGQ9Ik0gMSA1IEwgMTEgMTAgTCAxIDE1IFoiLz48L21hcmtlcj48bWFya2VyIG9yaWVudD0iYXV0byIgbWFya2VySGVpZ2h0PSIxMCIgbWFya2VyV2lkdGg9IjEwIiByZWZZPSIxMCIgcmVmWD0iMTEiIHZpZXdCb3g9IjAgMCAyMCAyMCIgaWQ9ImNhY2FvLW1hcmtlci1ibGFjayI+PHBhdGggc3R5bGU9ImZpbGw6IGJsYWNrOyIgZD0iTSAxIDUgTCAxMSAxMCBMIDEgMTUgWiIvPjwvbWFya2VyPjxtYXJrZXIgb3JpZW50PSJhdXRvIiBtYXJrZXJIZWlnaHQ9IjEwIiBtYXJrZXJXaWR0aD0iMTAiIHJlZlk9IjEwIiByZWZYPSIxMSIgdmlld0JveD0iMCAwIDIwIDIwIiBpZD0iY2FjYW8tbWFya2VyLWJsYWNrIj48cGF0aCBzdHlsZT0iZmlsbDogYmxhY2s7IiBkPSJNIDEgNSBMIDExIDEwIEwgMSAxNSBaIi8+PC9tYXJrZXI+PG1hcmtlciBvcmllbnQ9ImF1dG8iIG1hcmtlckhlaWdodD0iMTAiIG1hcmtlcldpZHRoPSIxMCIgcmVmWT0iMTAiIHJlZlg9IjExIiB2aWV3Qm94PSIwIDAgMjAgMjAiIGlkPSJjYWNhby1tYXJrZXItXzY1MDRDMSI+PHBhdGggc3R5bGU9ImZpbGw6IHJnYigxMDEsIDQsIDE5Myk7IiBkPSJNIDEgNSBMIDExIDEwIEwgMSAxNSBaIi8+PC9tYXJrZXI+PG1hcmtlciBvcmllbnQ9ImF1dG8iIG1hcmtlckhlaWdodD0iMTAiIG1hcmtlcldpZHRoPSIxMCIgcmVmWT0iMTAiIHJlZlg9IjExIiB2aWV3Qm94PSIwIDAgMjAgMjAiIGlkPSJjYWNhby1tYXJrZXItYmxhY2siPjxwYXRoIHN0eWxlPSJmaWxsOiBibGFjazsiIGQ9Ik0gMSA1IEwgMTEgMTAgTCAxIDE1IFoiLz48L21hcmtlcj48bWFya2VyIG9yaWVudD0iYXV0byIgbWFya2VySGVpZ2h0PSIxMCIgbWFya2VyV2lkdGg9IjEwIiByZWZZPSIxMCIgcmVmWD0iMTEiIHZpZXdCb3g9IjAgMCAyMCAyMCIgaWQ9ImNhY2FvLW1hcmtlci1ibGFjayI+PHBhdGggc3R5bGU9ImZpbGw6IGJsYWNrOyIgZD0iTSAxIDUgTCAxMSAxMCBMIDEgMTUgWiIvPjwvbWFya2VyPjxtYXJrZXIgb3JpZW50PSJhdXRvIiBtYXJrZXJIZWlnaHQ9IjEwIiBtYXJrZXJXaWR0aD0iMTAiIHJlZlk9IjEwIiByZWZYPSIxMSIgdmlld0JveD0iMCAwIDIwIDIwIiBpZD0iY2FjYW8tbWFya2VyLV9BQzdGMEMiPjxwYXRoIHN0eWxlPSJmaWxsOiByZ2IoMTcyLCAxMjcsIDEyKTsiIGQ9Ik0gMSA1IEwgMTEgMTAgTCAxIDE1IFoiLz48L21hcmtlcj48bWFya2VyIG9yaWVudD0iYXV0byIgbWFya2VySGVpZ2h0PSIxMCIgbWFya2VyV2lkdGg9IjEwIiByZWZZPSIxMCIgcmVmWD0iMTEiIHZpZXdCb3g9IjAgMCAyMCAyMCIgaWQ9ImNhY2FvLW1hcmtlci1fNjUwNEMxIj48cGF0aCBzdHlsZT0iZmlsbDogcmdiKDEwMSwgNCwgMTkzKTsiIGQ9Ik0gMSA1IEwgMTEgMTAgTCAxIDE1IFoiLz48L21hcmtlcj48bWFya2VyIG9yaWVudD0iYXV0byIgbWFya2VySGVpZ2h0PSIxMCIgbWFya2VyV2lkdGg9IjEwIiByZWZZPSIxMCIgcmVmWD0iMTEiIHZpZXdCb3g9IjAgMCAyMCAyMCIgaWQ9ImNhY2FvLW1hcmtlci1ibGFjayI+PHBhdGggc3R5bGU9ImZpbGw6IGJsYWNrOyIgZD0iTSAxIDUgTCAxMSAxMCBMIDEgMTUgWiIvPjwvbWFya2VyPjxtYXJrZXIgb3JpZW50PSJhdXRvIiBtYXJrZXJIZWlnaHQ9IjEwIiBtYXJrZXJXaWR0aD0iMTAiIHJlZlk9IjEwIiByZWZYPSIxMSIgdmlld0JveD0iMCAwIDIwIDIwIiBpZD0iY2FjYW8tbWFya2VyLWJsYWNrIj48cGF0aCBzdHlsZT0iZmlsbDogYmxhY2s7IiBkPSJNIDEgNSBMIDExIDEwIEwgMSAxNSBaIi8+PC9tYXJrZXI+PG1hcmtlciBvcmllbnQ9ImF1dG8iIG1hcmtlckhlaWdodD0iMTAiIG1hcmtlcldpZHRoPSIxMCIgcmVmWT0iMTAiIHJlZlg9IjExIiB2aWV3Qm94PSIwIDAgMjAgMjAiIGlkPSJjYWNhby1tYXJrZXItX0FDN0YwQyI+PHBhdGggc3R5bGU9ImZpbGw6IHJnYigxNzIsIDEyNywgMTIpOyIgZD0iTSAxIDUgTCAxMSAxMCBMIDEgMTUgWiIvPjwvbWFya2VyPjxtYXJrZXIgb3JpZW50PSJhdXRvIiBtYXJrZXJIZWlnaHQ9IjEwIiBtYXJrZXJXaWR0aD0iMTAiIHJlZlk9IjEwIiByZWZYPSIxMSIgdmlld0JveD0iMCAwIDIwIDIwIiBpZD0iY2FjYW8tbWFya2VyLWJsYWNrIj48cGF0aCBzdHlsZT0iZmlsbDogYmxhY2s7IiBkPSJNIDEgNSBMIDExIDEwIEwgMSAxNSBaIi8+PC9tYXJrZXI+PG1hcmtlciBvcmllbnQ9ImF1dG8iIG1hcmtlckhlaWdodD0iMTAiIG1hcmtlcldpZHRoPSIxMCIgcmVmWT0iMTAiIHJlZlg9IjExIiB2aWV3Qm94PSIwIDAgMjAgMjAiIGlkPSJjYWNhby1tYXJrZXItYmxhY2siPjxwYXRoIHN0eWxlPSJmaWxsOiBibGFjazsiIGQ9Ik0gMSA1IEwgMTEgMTAgTCAxIDE1IFoiLz48L21hcmtlcj48bWFya2VyIG9yaWVudD0iYXV0byIgbWFya2VySGVpZ2h0PSIxMCIgbWFya2VyV2lkdGg9IjEwIiByZWZZPSIxMCIgcmVmWD0iMTEiIHZpZXdCb3g9IjAgMCAyMCAyMCIgaWQ9ImNhY2FvLW1hcmtlci1ibGFjayI+PHBhdGggc3R5bGU9ImZpbGw6IGJsYWNrOyIgZD0iTSAxIDUgTCAxMSAxMCBMIDEgMTUgWiIvPjwvbWFya2VyPjxtYXJrZXIgb3JpZW50PSJhdXRvIiBtYXJrZXJIZWlnaHQ9IjEwIiBtYXJrZXJXaWR0aD0iMTAiIHJlZlk9IjEwIiByZWZYPSIxMSIgdmlld0JveD0iMCAwIDIwIDIwIiBpZD0iY2FjYW8tbWFya2VyLWJsYWNrIj48cGF0aCBzdHlsZT0iZmlsbDogYmxhY2s7IiBkPSJNIDEgNSBMIDExIDEwIEwgMSAxNSBaIi8+PC9tYXJrZXI+PG1hcmtlciBvcmllbnQ9ImF1dG8iIG1hcmtlckhlaWdodD0iMTAiIG1hcmtlcldpZHRoPSIxMCIgcmVmWT0iMTAiIHJlZlg9IjExIiB2aWV3Qm94PSIwIDAgMjAgMjAiIGlkPSJjYWNhby1tYXJrZXItYmxhY2siPjxwYXRoIHN0eWxlPSJmaWxsOiBibGFjazsiIGQ9Ik0gMSA1IEwgMTEgMTAgTCAxIDE1IFoiLz48L21hcmtlcj48bWFya2VyIG9yaWVudD0iYXV0byIgbWFya2VySGVpZ2h0PSIxMCIgbWFya2VyV2lkdGg9IjEwIiByZWZZPSIxMCIgcmVmWD0iMTEiIHZpZXdCb3g9IjAgMCAyMCAyMCIgaWQ9ImNhY2FvLW1hcmtlci1fNjUwNEMxIj48cGF0aCBzdHlsZT0iZmlsbDogcmdiKDEwMSwgNCwgMTkzKTsiIGQ9Ik0gMSA1IEwgMTEgMTAgTCAxIDE1IFoiLz48L21hcmtlcj48bWFya2VyIG9yaWVudD0iYXV0byIgbWFya2VySGVpZ2h0PSIxMCIgbWFya2VyV2lkdGg9IjEwIiByZWZZPSIxMCIgcmVmWD0iMTEiIHZpZXdCb3g9IjAgMCAyMCAyMCIgaWQ9ImNhY2FvLW1hcmtlci1ibGFjayI+PHBhdGggc3R5bGU9ImZpbGw6IGJsYWNrOyIgZD0iTSAxIDUgTCAxMSAxMCBMIDEgMTUgWiIvPjwvbWFya2VyPjxtYXJrZXIgb3JpZW50PSJhdXRvIiBtYXJrZXJIZWlnaHQ9IjEwIiBtYXJrZXJXaWR0aD0iMTAiIHJlZlk9IjEwIiByZWZYPSIxMSIgdmlld0JveD0iMCAwIDIwIDIwIiBpZD0iY2FjYW8tbWFya2VyLV82NTA0QzEiPjxwYXRoIHN0eWxlPSJmaWxsOiByZ2IoMTAxLCA0LCAxOTMpOyIgZD0iTSAxIDUgTCAxMSAxMCBMIDEgMTUgWiIvPjwvbWFya2VyPjxtYXJrZXIgb3JpZW50PSJhdXRvIiBtYXJrZXJIZWlnaHQ9IjEwIiBtYXJrZXJXaWR0aD0iMTAiIHJlZlk9IjEwIiByZWZYPSIxMSIgdmlld0JveD0iMCAwIDIwIDIwIiBpZD0iY2FjYW8tbWFya2VyLWJsYWNrIj48cGF0aCBzdHlsZT0iZmlsbDogYmxhY2s7IiBkPSJNIDEgNSBMIDExIDEwIEwgMSAxNSBaIi8+PC9tYXJrZXI+PG1hcmtlciBvcmllbnQ9ImF1dG8iIG1hcmtlckhlaWdodD0iMTAiIG1hcmtlcldpZHRoPSIxMCIgcmVmWT0iMTAiIHJlZlg9IjExIiB2aWV3Qm94PSIwIDAgMjAgMjAiIGlkPSJjYWNhby1tYXJrZXItXzY1MDRDMSI+PHBhdGggc3R5bGU9ImZpbGw6IHJnYigxMDEsIDQsIDE5Myk7IiBkPSJNIDEgNSBMIDExIDEwIEwgMSAxNSBaIi8+PC9tYXJrZXI+PG1hcmtlciBvcmllbnQ9ImF1dG8iIG1hcmtlckhlaWdodD0iMTAiIG1hcmtlcldpZHRoPSIxMCIgcmVmWT0iMTAiIHJlZlg9IjExIiB2aWV3Qm94PSIwIDAgMjAgMjAiIGlkPSJjYWNhby1tYXJrZXItXzY1MDRDMSI+PHBhdGggc3R5bGU9ImZpbGw6IHJnYigxMDEsIDQsIDE5Myk7IiBkPSJNIDEgNSBMIDExIDEwIEwgMSAxNSBaIi8+PC9tYXJrZXI+PG1hcmtlciBvcmllbnQ9ImF1dG8iIG1hcmtlckhlaWdodD0iMTAiIG1hcmtlcldpZHRoPSIxMCIgcmVmWT0iMTAiIHJlZlg9IjExIiB2aWV3Qm94PSIwIDAgMjAgMjAiIGlkPSJjYWNhby1tYXJrZXItXzY1MDRDMSI+PHBhdGggc3R5bGU9ImZpbGw6IHJnYigxMDEsIDQsIDE5Myk7IiBkPSJNIDEgNSBMIDExIDEwIEwgMSAxNSBaIi8+PC9tYXJrZXI+PG1hcmtlciBvcmllbnQ9ImF1dG8iIG1hcmtlckhlaWdodD0iMTAiIG1hcmtlcldpZHRoPSIxMCIgcmVmWT0iMTAiIHJlZlg9IjExIiB2aWV3Qm94PSIwIDAgMjAgMjAiIGlkPSJjYWNhby1tYXJrZXItYmxhY2siPjxwYXRoIHN0eWxlPSJmaWxsOiBibGFjazsiIGQ9Ik0gMSA1IEwgMTEgMTAgTCAxIDE1IFoiLz48L21hcmtlcj48bWFya2VyIG9yaWVudD0iYXV0byIgbWFya2VySGVpZ2h0PSIxMCIgbWFya2VyV2lkdGg9IjEwIiByZWZZPSIxMCIgcmVmWD0iMTEiIHZpZXdCb3g9IjAgMCAyMCAyMCIgaWQ9ImNhY2FvLW1hcmtlci1fNjUwNEMxIj48cGF0aCBzdHlsZT0iZmlsbDogcmdiKDEwMSwgNCwgMTkzKTsiIGQ9Ik0gMSA1IEwgMTEgMTAgTCAxIDE1IFoiLz48L21hcmtlcj48bWFya2VyIG9yaWVudD0iYXV0byIgbWFya2VySGVpZ2h0PSIxMCIgbWFya2VyV2lkdGg9IjEwIiByZWZZPSIxMCIgcmVmWD0iMTEiIHZpZXdCb3g9IjAgMCAyMCAyMCIgaWQ9ImNhY2FvLW1hcmtlci1ibGFjayI+PHBhdGggc3R5bGU9ImZpbGw6IGJsYWNrOyIgZD0iTSAxIDUgTCAxMSAxMCBMIDEgMTUgWiIvPjwvbWFya2VyPjxtYXJrZXIgb3JpZW50PSJhdXRvIiBtYXJrZXJIZWlnaHQ9IjEwIiBtYXJrZXJXaWR0aD0iMTAiIHJlZlk9IjEwIiByZWZYPSIxMSIgdmlld0JveD0iMCAwIDIwIDIwIiBpZD0iY2FjYW8tbWFya2VyLWJsYWNrIj48cGF0aCBzdHlsZT0iZmlsbDogYmxhY2s7IiBkPSJNIDEgNSBMIDExIDEwIEwgMSAxNSBaIi8+PC9tYXJrZXI+PG1hcmtlciBvcmllbnQ9ImF1dG8iIG1hcmtlckhlaWdodD0iMTAiIG1hcmtlcldpZHRoPSIxMCIgcmVmWT0iMTAiIHJlZlg9IjExIiB2aWV3Qm94PSIwIDAgMjAgMjAiIGlkPSJjYWNhby1tYXJrZXItX0FDN0YwQyI+PHBhdGggc3R5bGU9ImZpbGw6IHJnYigxNzIsIDEyNywgMTIpOyIgZD0iTSAxIDUgTCAxMSAxMCBMIDEgMTUgWiIvPjwvbWFya2VyPjxtYXJrZXIgb3JpZW50PSJhdXRvIiBtYXJrZXJIZWlnaHQ9IjEwIiBtYXJrZXJXaWR0aD0iMTAiIHJlZlk9IjEwIiByZWZYPSIxMSIgdmlld0JveD0iMCAwIDIwIDIwIiBpZD0iY2FjYW8tbWFya2VyLWJsYWNrIj48cGF0aCBzdHlsZT0iZmlsbDogYmxhY2s7IiBkPSJNIDEgNSBMIDExIDEwIEwgMSAxNSBaIi8+PC9tYXJrZXI+PG1hcmtlciBvcmllbnQ9ImF1dG8iIG1hcmtlckhlaWdodD0iMTAiIG1hcmtlcldpZHRoPSIxMCIgcmVmWT0iMTAiIHJlZlg9IjExIiB2aWV3Qm94PSIwIDAgMjAgMjAiIGlkPSJjYWNhby1tYXJrZXItYmxhY2siPjxwYXRoIHN0eWxlPSJmaWxsOiBibGFjazsiIGQ9Ik0gMSA1IEwgMTEgMTAgTCAxIDE1IFoiLz48L21hcmtlcj48bWFya2VyIG9yaWVudD0iYXV0byIgbWFya2VySGVpZ2h0PSIxMCIgbWFya2VyV2lkdGg9IjEwIiByZWZZPSIxMCIgcmVmWD0iMTEiIHZpZXdCb3g9IjAgMCAyMCAyMCIgaWQ9ImNhY2FvLW1hcmtlci1ibGFjayI+PHBhdGggc3R5bGU9ImZpbGw6IGJsYWNrOyIgZD0iTSAxIDUgTCAxMSAxMCBMIDEgMTUgWiIvPjwvbWFya2VyPjxtYXJrZXIgb3JpZW50PSJhdXRvIiBtYXJrZXJIZWlnaHQ9IjEwIiBtYXJrZXJXaWR0aD0iMTAiIHJlZlk9IjEwIiByZWZYPSIxMSIgdmlld0JveD0iMCAwIDIwIDIwIiBpZD0iY2FjYW8tbWFya2VyLWJsYWNrIj48cGF0aCBzdHlsZT0iZmlsbDogYmxhY2s7IiBkPSJNIDEgNSBMIDExIDEwIEwgMSAxNSBaIi8+PC9tYXJrZXI+PG1hcmtlciBvcmllbnQ9ImF1dG8iIG1hcmtlckhlaWdodD0iMTAiIG1hcmtlcldpZHRoPSIxMCIgcmVmWT0iMTAiIHJlZlg9IjExIiB2aWV3Qm94PSIwIDAgMjAgMjAiIGlkPSJjYWNhby1tYXJrZXItYmxhY2siPjxwYXRoIHN0eWxlPSJmaWxsOiBibGFjazsiIGQ9Ik0gMSA1IEwgMTEgMTAgTCAxIDE1IFoiLz48L21hcmtlcj48bWFya2VyIG9yaWVudD0iYXV0byIgbWFya2VySGVpZ2h0PSIxMCIgbWFya2VyV2lkdGg9IjEwIiByZWZZPSIxMCIgcmVmWD0iMTEiIHZpZXdCb3g9IjAgMCAyMCAyMCIgaWQ9ImNhY2FvLW1hcmtlci1ibGFjayI+PHBhdGggc3R5bGU9ImZpbGw6IGJsYWNrOyIgZD0iTSAxIDUgTCAxMSAxMCBMIDEgMTUgWiIvPjwvbWFya2VyPjxtYXJrZXIgb3JpZW50PSJhdXRvIiBtYXJrZXJIZWlnaHQ9IjEwIiBtYXJrZXJXaWR0aD0iMTAiIHJlZlk9IjEwIiByZWZYPSIxMSIgdmlld0JveD0iMCAwIDIwIDIwIiBpZD0iY2FjYW8tbWFya2VyLWJsYWNrIj48cGF0aCBzdHlsZT0iZmlsbDogYmxhY2s7IiBkPSJNIDEgNSBMIDExIDEwIEwgMSAxNSBaIi8+PC9tYXJrZXI+PG1hcmtlciBvcmllbnQ9ImF1dG8iIG1hcmtlckhlaWdodD0iMTAiIG1hcmtlcldpZHRoPSIxMCIgcmVmWT0iMTAiIHJlZlg9IjExIiB2aWV3Qm94PSIwIDAgMjAgMjAiIGlkPSJjYWNhby1tYXJrZXItYmxhY2siPjxwYXRoIHN0eWxlPSJmaWxsOiBibGFjazsiIGQ9Ik0gMSA1IEwgMTEgMTAgTCAxIDE1IFoiLz48L21hcmtlcj48bWFya2VyIG9yaWVudD0iYXV0byIgbWFya2VySGVpZ2h0PSIxMCIgbWFya2VyV2lkdGg9IjEwIiByZWZZPSIxMCIgcmVmWD0iMTEiIHZpZXdCb3g9IjAgMCAyMCAyMCIgaWQ9ImNhY2FvLW1hcmtlci1fQUM3RjBDIj48cGF0aCBzdHlsZT0iZmlsbDogcmdiKDE3MiwgMTI3LCAxMik7IiBkPSJNIDEgNSBMIDExIDEwIEwgMSAxNSBaIi8+PC9tYXJrZXI+PG1hcmtlciBvcmllbnQ9ImF1dG8iIG1hcmtlckhlaWdodD0iMTAiIG1hcmtlcldpZHRoPSIxMCIgcmVmWT0iMTAiIHJlZlg9IjExIiB2aWV3Qm94PSIwIDAgMjAgMjAiIGlkPSJjYWNhby1tYXJrZXItX0FDN0YwQyI+PHBhdGggc3R5bGU9ImZpbGw6IHJnYigxNzIsIDEyNywgMTIpOyIgZD0iTSAxIDUgTCAxMSAxMCBMIDEgMTUgWiIvPjwvbWFya2VyPjxtYXJrZXIgb3JpZW50PSJhdXRvIiBtYXJrZXJIZWlnaHQ9IjEwIiBtYXJrZXJXaWR0aD0iMTAiIHJlZlk9IjEwIiByZWZYPSIxMSIgdmlld0JveD0iMCAwIDIwIDIwIiBpZD0iY2FjYW8tbWFya2VyLV9BQzdGMEMiPjxwYXRoIHN0eWxlPSJmaWxsOiByZ2IoMTcyLCAxMjcsIDEyKTsiIGQ9Ik0gMSA1IEwgMTEgMTAgTCAxIDE1IFoiLz48L21hcmtlcj48bWFya2VyIG9yaWVudD0iYXV0byIgbWFya2VySGVpZ2h0PSIxMCIgbWFya2VyV2lkdGg9IjEwIiByZWZZPSIxMCIgcmVmWD0iMTEiIHZpZXdCb3g9IjAgMCAyMCAyMCIgaWQ9ImNhY2FvLW1hcmtlci1fQUM3RjBDIj48cGF0aCBzdHlsZT0iZmlsbDogcmdiKDE3MiwgMTI3LCAxMik7IiBkPSJNIDEgNSBMIDExIDEwIEwgMSAxNSBaIi8+PC9tYXJrZXI+PG1hcmtlciBvcmllbnQ9ImF1dG8iIG1hcmtlckhlaWdodD0iMTAiIG1hcmtlcldpZHRoPSIxMCIgcmVmWT0iMTAiIHJlZlg9IjExIiB2aWV3Qm94PSIwIDAgMjAgMjAiIGlkPSJjYWNhby1tYXJrZXItX0FDN0YwQyI+PHBhdGggc3R5bGU9ImZpbGw6IHJnYigxNzIsIDEyNywgMTIpOyIgZD0iTSAxIDUgTCAxMSAxMCBMIDEgMTUgWiIvPjwvbWFya2VyPjxtYXJrZXIgb3JpZW50PSJhdXRvIiBtYXJrZXJIZWlnaHQ9IjEwIiBtYXJrZXJXaWR0aD0iMTAiIHJlZlk9IjEwIiByZWZYPSIxMSIgdmlld0JveD0iMCAwIDIwIDIwIiBpZD0iY2FjYW8tbWFya2VyLV9BQzdGMEMiPjxwYXRoIHN0eWxlPSJmaWxsOiByZ2IoMTcyLCAxMjcsIDEyKTsiIGQ9Ik0gMSA1IEwgMTEgMTAgTCAxIDE1IFoiLz48L21hcmtlcj48bWFya2VyIG9yaWVudD0iYXV0byIgbWFya2VySGVpZ2h0PSIxMCIgbWFya2VyV2lkdGg9IjEwIiByZWZZPSIxMCIgcmVmWD0iMTEiIHZpZXdCb3g9IjAgMCAyMCAyMCIgaWQ9ImNhY2FvLW1hcmtlci1fQUM3RjBDIj48cGF0aCBzdHlsZT0iZmlsbDogcmdiKDE3MiwgMTI3LCAxMik7IiBkPSJNIDEgNSBMIDExIDEwIEwgMSAxNSBaIi8+PC9tYXJrZXI+PG1hcmtlciBvcmllbnQ9ImF1dG8iIG1hcmtlckhlaWdodD0iMTAiIG1hcmtlcldpZHRoPSIxMCIgcmVmWT0iMTAiIHJlZlg9IjExIiB2aWV3Qm94PSIwIDAgMjAgMjAiIGlkPSJjYWNhby1tYXJrZXItX0FDN0YwQyI+PHBhdGggc3R5bGU9ImZpbGw6IHJnYigxNzIsIDEyNywgMTIpOyIgZD0iTSAxIDUgTCAxMSAxMCBMIDEgMTUgWiIvPjwvbWFya2VyPjxtYXJrZXIgb3JpZW50PSJhdXRvIiBtYXJrZXJIZWlnaHQ9IjEwIiBtYXJrZXJXaWR0aD0iMTAiIHJlZlk9IjEwIiByZWZYPSIxMSIgdmlld0JveD0iMCAwIDIwIDIwIiBpZD0iY2FjYW8tbWFya2VyLV9BQzdGMEMiPjxwYXRoIHN0eWxlPSJmaWxsOiByZ2IoMTcyLCAxMjcsIDEyKTsiIGQ9Ik0gMSA1IEwgMTEgMTAgTCAxIDE1IFoiLz48L21hcmtlcj48bWFya2VyIG9yaWVudD0iYXV0byIgbWFya2VySGVpZ2h0PSIxMCIgbWFya2VyV2lkdGg9IjEwIiByZWZZPSIxMCIgcmVmWD0iMTEiIHZpZXdCb3g9IjAgMCAyMCAyMCIgaWQ9ImNhY2FvLW1hcmtlci1fQUM3RjBDIj48cGF0aCBzdHlsZT0iZmlsbDogcmdiKDE3MiwgMTI3LCAxMik7IiBkPSJNIDEgNSBMIDExIDEwIEwgMSAxNSBaIi8+PC9tYXJrZXI+PG1hcmtlciBvcmllbnQ9ImF1dG8iIG1hcmtlckhlaWdodD0iMTAiIG1hcmtlcldpZHRoPSIxMCIgcmVmWT0iMTAiIHJlZlg9IjExIiB2aWV3Qm94PSIwIDAgMjAgMjAiIGlkPSJjYWNhby1tYXJrZXItX0FDN0YwQyI+PHBhdGggc3R5bGU9ImZpbGw6IHJnYigxNzIsIDEyNywgMTIpOyIgZD0iTSAxIDUgTCAxMSAxMCBMIDEgMTUgWiIvPjwvbWFya2VyPjxtYXJrZXIgb3JpZW50PSJhdXRvIiBtYXJrZXJIZWlnaHQ9IjEwIiBtYXJrZXJXaWR0aD0iMTAiIHJlZlk9IjEwIiByZWZYPSIxMSIgdmlld0JveD0iMCAwIDIwIDIwIiBpZD0iY2FjYW8tbWFya2VyLV9BQzdGMEMiPjxwYXRoIHN0eWxlPSJmaWxsOiByZ2IoMTcyLCAxMjcsIDEyKTsiIGQ9Ik0gMSA1IEwgMTEgMTAgTCAxIDE1IFoiLz48L21hcmtlcj48bWFya2VyIG9yaWVudD0iYXV0byIgbWFya2VySGVpZ2h0PSIxMCIgbWFya2VyV2lkdGg9IjEwIiByZWZZPSIxMCIgcmVmWD0iMTEiIHZpZXdCb3g9IjAgMCAyMCAyMCIgaWQ9ImNhY2FvLW1hcmtlci1fQUM3RjBDIj48cGF0aCBzdHlsZT0iZmlsbDogcmdiKDE3MiwgMTI3LCAxMik7IiBkPSJNIDEgNSBMIDExIDEwIEwgMSAxNSBaIi8+PC9tYXJrZXI+PG1hcmtlciBvcmllbnQ9ImF1dG8iIG1hcmtlckhlaWdodD0iMTAiIG1hcmtlcldpZHRoPSIxMCIgcmVmWT0iMTAiIHJlZlg9IjExIiB2aWV3Qm94PSIwIDAgMjAgMjAiIGlkPSJjYWNhby1tYXJrZXItX0FDN0YwQyI+PHBhdGggc3R5bGU9ImZpbGw6IHJnYigxNzIsIDEyNywgMTIpOyIgZD0iTSAxIDUgTCAxMSAxMCBMIDEgMTUgWiIvPjwvbWFya2VyPjxtYXJrZXIgb3JpZW50PSJhdXRvIiBtYXJrZXJIZWlnaHQ9IjEwIiBtYXJrZXJXaWR0aD0iMTAiIHJlZlk9IjEwIiByZWZYPSIxMSIgdmlld0JveD0iMCAwIDIwIDIwIiBpZD0iY2FjYW8tbWFya2VyLV9BQzdGMEMiPjxwYXRoIHN0eWxlPSJmaWxsOiByZ2IoMTcyLCAxMjcsIDEyKTsiIGQ9Ik0gMSA1IEwgMTEgMTAgTCAxIDE1IFoiLz48L21hcmtlcj48bWFya2VyIG9yaWVudD0iYXV0byIgbWFya2VySGVpZ2h0PSIxMCIgbWFya2VyV2lkdGg9IjEwIiByZWZZPSIxMCIgcmVmWD0iMTEiIHZpZXdCb3g9IjAgMCAyMCAyMCIgaWQ9ImNhY2FvLW1hcmtlci1fQUM3RjBDIj48cGF0aCBzdHlsZT0iZmlsbDogcmdiKDE3MiwgMTI3LCAxMik7IiBkPSJNIDEgNSBMIDExIDEwIEwgMSAxNSBaIi8+PC9tYXJrZXI+PG1hcmtlciBvcmllbnQ9ImF1dG8iIG1hcmtlckhlaWdodD0iMTAiIG1hcmtlcldpZHRoPSIxMCIgcmVmWT0iMTAiIHJlZlg9IjExIiB2aWV3Qm94PSIwIDAgMjAgMjAiIGlkPSJjYWNhby1tYXJrZXItX0FDN0YwQyI+PHBhdGggc3R5bGU9ImZpbGw6IHJnYigxNzIsIDEyNywgMTIpOyIgZD0iTSAxIDUgTCAxMSAxMCBMIDEgMTUgWiIvPjwvbWFya2VyPjxtYXJrZXIgb3JpZW50PSJhdXRvIiBtYXJrZXJIZWlnaHQ9IjEwIiBtYXJrZXJXaWR0aD0iMTAiIHJlZlk9IjEwIiByZWZYPSIxMSIgdmlld0JveD0iMCAwIDIwIDIwIiBpZD0iY2FjYW8tbWFya2VyLV9BQzdGMEMiPjxwYXRoIHN0eWxlPSJmaWxsOiByZ2IoMTcyLCAxMjcsIDEyKTsiIGQ9Ik0gMSA1IEwgMTEgMTAgTCAxIDE1IFoiLz48L21hcmtlcj48bWFya2VyIG9yaWVudD0iYXV0byIgbWFya2VySGVpZ2h0PSIxMCIgbWFya2VyV2lkdGg9IjEwIiByZWZZPSIxMCIgcmVmWD0iMTEiIHZpZXdCb3g9IjAgMCAyMCAyMCIgaWQ9ImNhY2FvLW1hcmtlci1fQUM3RjBDIj48cGF0aCBzdHlsZT0iZmlsbDogcmdiKDE3MiwgMTI3LCAxMik7IiBkPSJNIDEgNSBMIDExIDEwIEwgMSAxNSBaIi8+PC9tYXJrZXI+PG1hcmtlciBvcmllbnQ9ImF1dG8iIG1hcmtlckhlaWdodD0iMTAiIG1hcmtlcldpZHRoPSIxMCIgcmVmWT0iMTAiIHJlZlg9IjExIiB2aWV3Qm94PSIwIDAgMjAgMjAiIGlkPSJjYWNhby1tYXJrZXItX0FDN0YwQyI+PHBhdGggc3R5bGU9ImZpbGw6IHJnYigxNzIsIDEyNywgMTIpOyIgZD0iTSAxIDUgTCAxMSAxMCBMIDEgMTUgWiIvPjwvbWFya2VyPjxtYXJrZXIgb3JpZW50PSJhdXRvIiBtYXJrZXJIZWlnaHQ9IjEwIiBtYXJrZXJXaWR0aD0iMTAiIHJlZlk9IjEwIiByZWZYPSIxMSIgdmlld0JveD0iMCAwIDIwIDIwIiBpZD0iY2FjYW8tbWFya2VyLV9BQzdGMEMiPjxwYXRoIHN0eWxlPSJmaWxsOiByZ2IoMTcyLCAxMjcsIDEyKTsiIGQ9Ik0gMSA1IEwgMTEgMTAgTCAxIDE1IFoiLz48L21hcmtlcj48bWFya2VyIG9yaWVudD0iYXV0byIgbWFya2VySGVpZ2h0PSIxMCIgbWFya2VyV2lkdGg9IjEwIiByZWZZPSIxMCIgcmVmWD0iMTEiIHZpZXdCb3g9IjAgMCAyMCAyMCIgaWQ9ImNhY2FvLW1hcmtlci1fQUM3RjBDIj48cGF0aCBzdHlsZT0iZmlsbDogcmdiKDE3MiwgMTI3LCAxMik7IiBkPSJNIDEgNSBMIDExIDEwIEwgMSAxNSBaIi8+PC9tYXJrZXI+PG1hcmtlciBvcmllbnQ9ImF1dG8iIG1hcmtlckhlaWdodD0iMTAiIG1hcmtlcldpZHRoPSIxMCIgcmVmWT0iMTAiIHJlZlg9IjExIiB2aWV3Qm94PSIwIDAgMjAgMjAiIGlkPSJjYWNhby1tYXJrZXItX0FDN0YwQyI+PHBhdGggc3R5bGU9ImZpbGw6IHJnYigxNzIsIDEyNywgMTIpOyIgZD0iTSAxIDUgTCAxMSAxMCBMIDEgMTUgWiIvPjwvbWFya2VyPjxtYXJrZXIgb3JpZW50PSJhdXRvIiBtYXJrZXJIZWlnaHQ9IjEwIiBtYXJrZXJXaWR0aD0iMTAiIHJlZlk9IjEwIiByZWZYPSIxMSIgdmlld0JveD0iMCAwIDIwIDIwIiBpZD0iY2FjYW8tbWFya2VyLV9BQzdGMEMiPjxwYXRoIHN0eWxlPSJmaWxsOiByZ2IoMTcyLCAxMjcsIDEyKTsiIGQ9Ik0gMSA1IEwgMTEgMTAgTCAxIDE1IFoiLz48L21hcmtlcj48bWFya2VyIG9yaWVudD0iYXV0byIgbWFya2VySGVpZ2h0PSIxMCIgbWFya2VyV2lkdGg9IjEwIiByZWZZPSIxMCIgcmVmWD0iMTEiIHZpZXdCb3g9IjAgMCAyMCAyMCIgaWQ9ImNhY2FvLW1hcmtlci1fQUM3RjBDIj48cGF0aCBzdHlsZT0iZmlsbDogcmdiKDE3MiwgMTI3LCAxMik7IiBkPSJNIDEgNSBMIDExIDEwIEwgMSAxNSBaIi8+PC9tYXJrZXI+PG1hcmtlciBvcmllbnQ9ImF1dG8iIG1hcmtlckhlaWdodD0iMTAiIG1hcmtlcldpZHRoPSIxMCIgcmVmWT0iMTAiIHJlZlg9IjExIiB2aWV3Qm94PSIwIDAgMjAgMjAiIGlkPSJjYWNhby1tYXJrZXItX0FDN0YwQyI+PHBhdGggc3R5bGU9ImZpbGw6IHJnYigxNzIsIDEyNywgMTIpOyIgZD0iTSAxIDUgTCAxMSAxMCBMIDEgMTUgWiIvPjwvbWFya2VyPjxtYXJrZXIgb3JpZW50PSJhdXRvIiBtYXJrZXJIZWlnaHQ9IjEwIiBtYXJrZXJXaWR0aD0iMTAiIHJlZlk9IjEwIiByZWZYPSIxMSIgdmlld0JveD0iMCAwIDIwIDIwIiBpZD0iY2FjYW8tbWFya2VyLV9BQzdGMEMiPjxwYXRoIHN0eWxlPSJmaWxsOiByZ2IoMTcyLCAxMjcsIDEyKTsiIGQ9Ik0gMSA1IEwgMTEgMTAgTCAxIDE1IFoiLz48L21hcmtlcj48bWFya2VyIG9yaWVudD0iYXV0byIgbWFya2VySGVpZ2h0PSIxMCIgbWFya2VyV2lkdGg9IjEwIiByZWZZPSIxMCIgcmVmWD0iMTEiIHZpZXdCb3g9IjAgMCAyMCAyMCIgaWQ9ImNhY2FvLW1hcmtlci1fQUM3RjBDIj48cGF0aCBzdHlsZT0iZmlsbDogcmdiKDE3MiwgMTI3LCAxMik7IiBkPSJNIDEgNSBMIDExIDEwIEwgMSAxNSBaIi8+PC9tYXJrZXI+PG1hcmtlciBvcmllbnQ9ImF1dG8iIG1hcmtlckhlaWdodD0iMTAiIG1hcmtlcldpZHRoPSIxMCIgcmVmWT0iMTAiIHJlZlg9IjExIiB2aWV3Qm94PSIwIDAgMjAgMjAiIGlkPSJjYWNhby1tYXJrZXItX0FDN0YwQyI+PHBhdGggc3R5bGU9ImZpbGw6IHJnYigxNzIsIDEyNywgMTIpOyIgZD0iTSAxIDUgTCAxMSAxMCBMIDEgMTUgWiIvPjwvbWFya2VyPjxtYXJrZXIgb3JpZW50PSJhdXRvIiBtYXJrZXJIZWlnaHQ9IjEwIiBtYXJrZXJXaWR0aD0iMTAiIHJlZlk9IjEwIiByZWZYPSIxMSIgdmlld0JveD0iMCAwIDIwIDIwIiBpZD0iY2FjYW8tbWFya2VyLV9BQzdGMEMiPjxwYXRoIHN0eWxlPSJmaWxsOiByZ2IoMTcyLCAxMjcsIDEyKTsiIGQ9Ik0gMSA1IEwgMTEgMTAgTCAxIDE1IFoiLz48L21hcmtlcj48bWFya2VyIG9yaWVudD0iYXV0byIgbWFya2VySGVpZ2h0PSIxMCIgbWFya2VyV2lkdGg9IjEwIiByZWZZPSIxMCIgcmVmWD0iMTEiIHZpZXdCb3g9IjAgMCAyMCAyMCIgaWQ9ImNhY2FvLW1hcmtlci1fQUM3RjBDIj48cGF0aCBzdHlsZT0iZmlsbDogcmdiKDE3MiwgMTI3LCAxMik7IiBkPSJNIDEgNSBMIDExIDEwIEwgMSAxNSBaIi8+PC9tYXJrZXI+PG1hcmtlciBvcmllbnQ9ImF1dG8iIG1hcmtlckhlaWdodD0iMTAiIG1hcmtlcldpZHRoPSIxMCIgcmVmWT0iMTAiIHJlZlg9IjExIiB2aWV3Qm94PSIwIDAgMjAgMjAiIGlkPSJjYWNhby1tYXJrZXItX0FDN0YwQyI+PHBhdGggc3R5bGU9ImZpbGw6IHJnYigxNzIsIDEyNywgMTIpOyIgZD0iTSAxIDUgTCAxMSAxMCBMIDEgMTUgWiIvPjwvbWFya2VyPjxtYXJrZXIgb3JpZW50PSJhdXRvIiBtYXJrZXJIZWlnaHQ9IjEwIiBtYXJrZXJXaWR0aD0iMTAiIHJlZlk9IjEwIiByZWZYPSIxMSIgdmlld0JveD0iMCAwIDIwIDIwIiBpZD0iY2FjYW8tbWFya2VyLV9BQzdGMEMiPjxwYXRoIHN0eWxlPSJmaWxsOiByZ2IoMTcyLCAxMjcsIDEyKTsiIGQ9Ik0gMSA1IEwgMTEgMTAgTCAxIDE1IFoiLz48L21hcmtlcj48bWFya2VyIG9yaWVudD0iYXV0byIgbWFya2VySGVpZ2h0PSIxMCIgbWFya2VyV2lkdGg9IjEwIiByZWZZPSIxMCIgcmVmWD0iMTEiIHZpZXdCb3g9IjAgMCAyMCAyMCIgaWQ9ImNhY2FvLW1hcmtlci1fQUM3RjBDIj48cGF0aCBzdHlsZT0iZmlsbDogcmdiKDE3MiwgMTI3LCAxMik7IiBkPSJNIDEgNSBMIDExIDEwIEwgMSAxNSBaIi8+PC9tYXJrZXI+PG1hcmtlciBvcmllbnQ9ImF1dG8iIG1hcmtlckhlaWdodD0iMTAiIG1hcmtlcldpZHRoPSIxMCIgcmVmWT0iMTAiIHJlZlg9IjExIiB2aWV3Qm94PSIwIDAgMjAgMjAiIGlkPSJjYWNhby1tYXJrZXItX0FDN0YwQyI+PHBhdGggc3R5bGU9ImZpbGw6IHJnYigxNzIsIDEyNywgMTIpOyIgZD0iTSAxIDUgTCAxMSAxMCBMIDEgMTUgWiIvPjwvbWFya2VyPjxtYXJrZXIgb3JpZW50PSJhdXRvIiBtYXJrZXJIZWlnaHQ9IjEwIiBtYXJrZXJXaWR0aD0iMTAiIHJlZlk9IjEwIiByZWZYPSIxMSIgdmlld0JveD0iMCAwIDIwIDIwIiBpZD0iY2FjYW8tbWFya2VyLV9BQzdGMEMiPjxwYXRoIHN0eWxlPSJmaWxsOiByZ2IoMTcyLCAxMjcsIDEyKTsiIGQ9Ik0gMSA1IEwgMTEgMTAgTCAxIDE1IFoiLz48L21hcmtlcj48bWFya2VyIG9yaWVudD0iYXV0byIgbWFya2VySGVpZ2h0PSIxMCIgbWFya2VyV2lkdGg9IjEwIiByZWZZPSIxMCIgcmVmWD0iMTEiIHZpZXdCb3g9IjAgMCAyMCAyMCIgaWQ9ImNhY2FvLW1hcmtlci1fQUM3RjBDIj48cGF0aCBzdHlsZT0iZmlsbDogcmdiKDE3MiwgMTI3LCAxMik7IiBkPSJNIDEgNSBMIDExIDEwIEwgMSAxNSBaIi8+PC9tYXJrZXI+PG1hcmtlciBvcmllbnQ9ImF1dG8iIG1hcmtlckhlaWdodD0iMTAiIG1hcmtlcldpZHRoPSIxMCIgcmVmWT0iMTAiIHJlZlg9IjExIiB2aWV3Qm94PSIwIDAgMjAgMjAiIGlkPSJjYWNhby1tYXJrZXItX0FDN0YwQyI+PHBhdGggc3R5bGU9ImZpbGw6IHJnYigxNzIsIDEyNywgMTIpOyIgZD0iTSAxIDUgTCAxMSAxMCBMIDEgMTUgWiIvPjwvbWFya2VyPjxtYXJrZXIgb3JpZW50PSJhdXRvIiBtYXJrZXJIZWlnaHQ9IjEwIiBtYXJrZXJXaWR0aD0iMTAiIHJlZlk9IjEwIiByZWZYPSIxMSIgdmlld0JveD0iMCAwIDIwIDIwIiBpZD0iY2FjYW8tbWFya2VyLV9BQzdGMEMiPjxwYXRoIHN0eWxlPSJmaWxsOiByZ2IoMTcyLCAxMjcsIDEyKTsiIGQ9Ik0gMSA1IEwgMTEgMTAgTCAxIDE1IFoiLz48L21hcmtlcj48bWFya2VyIG9yaWVudD0iYXV0byIgbWFya2VySGVpZ2h0PSIxMCIgbWFya2VyV2lkdGg9IjEwIiByZWZZPSIxMCIgcmVmWD0iMTEiIHZpZXdCb3g9IjAgMCAyMCAyMCIgaWQ9ImNhY2FvLW1hcmtlci1fQUM3RjBDIj48cGF0aCBzdHlsZT0iZmlsbDogcmdiKDE3MiwgMTI3LCAxMik7IiBkPSJNIDEgNSBMIDExIDEwIEwgMSAxNSBaIi8+PC9tYXJrZXI+PG1hcmtlciBvcmllbnQ9ImF1dG8iIG1hcmtlckhlaWdodD0iMTAiIG1hcmtlcldpZHRoPSIxMCIgcmVmWT0iMTAiIHJlZlg9IjExIiB2aWV3Qm94PSIwIDAgMjAgMjAiIGlkPSJjYWNhby1tYXJrZXItX0FDN0YwQyI+PHBhdGggc3R5bGU9ImZpbGw6IHJnYigxNzIsIDEyNywgMTIpOyIgZD0iTSAxIDUgTCAxMSAxMCBMIDEgMTUgWiIvPjwvbWFya2VyPjxtYXJrZXIgb3JpZW50PSJhdXRvIiBtYXJrZXJIZWlnaHQ9IjEwIiBtYXJrZXJXaWR0aD0iMTAiIHJlZlk9IjEwIiByZWZYPSIxMSIgdmlld0JveD0iMCAwIDIwIDIwIiBpZD0iY2FjYW8tbWFya2VyLV9BQzdGMEMiPjxwYXRoIHN0eWxlPSJmaWxsOiByZ2IoMTcyLCAxMjcsIDEyKTsiIGQ9Ik0gMSA1IEwgMTEgMTAgTCAxIDE1IFoiLz48L21hcmtlcj48bWFya2VyIG9yaWVudD0iYXV0byIgbWFya2VySGVpZ2h0PSIxMCIgbWFya2VyV2lkdGg9IjEwIiByZWZZPSIxMCIgcmVmWD0iMTEiIHZpZXdCb3g9IjAgMCAyMCAyMCIgaWQ9ImNhY2FvLW1hcmtlci1fQUM3RjBDIj48cGF0aCBzdHlsZT0iZmlsbDogcmdiKDE3MiwgMTI3LCAxMik7IiBkPSJNIDEgNSBMIDExIDEwIEwgMSAxNSBaIi8+PC9tYXJrZXI+PG1hcmtlciBvcmllbnQ9ImF1dG8iIG1hcmtlckhlaWdodD0iMTAiIG1hcmtlcldpZHRoPSIxMCIgcmVmWT0iMTAiIHJlZlg9IjExIiB2aWV3Qm94PSIwIDAgMjAgMjAiIGlkPSJjYWNhby1tYXJrZXItX0FDN0YwQyI+PHBhdGggc3R5bGU9ImZpbGw6IHJnYigxNzIsIDEyNywgMTIpOyIgZD0iTSAxIDUgTCAxMSAxMCBMIDEgMTUgWiIvPjwvbWFya2VyPjxtYXJrZXIgb3JpZW50PSJhdXRvIiBtYXJrZXJIZWlnaHQ9IjEwIiBtYXJrZXJXaWR0aD0iMTAiIHJlZlk9IjEwIiByZWZYPSIxMSIgdmlld0JveD0iMCAwIDIwIDIwIiBpZD0iY2FjYW8tbWFya2VyLV9BQzdGMEMiPjxwYXRoIHN0eWxlPSJmaWxsOiByZ2IoMTcyLCAxMjcsIDEyKTsiIGQ9Ik0gMSA1IEwgMTEgMTAgTCAxIDE1IFoiLz48L21hcmtlcj48bWFya2VyIG9yaWVudD0iYXV0byIgbWFya2VySGVpZ2h0PSIxMCIgbWFya2VyV2lkdGg9IjEwIiByZWZZPSIxMCIgcmVmWD0iMTEiIHZpZXdCb3g9IjAgMCAyMCAyMCIgaWQ9ImNhY2FvLW1hcmtlci1fQUM3RjBDIj48cGF0aCBzdHlsZT0iZmlsbDogcmdiKDE3MiwgMTI3LCAxMik7IiBkPSJNIDEgNSBMIDExIDEwIEwgMSAxNSBaIi8+PC9tYXJrZXI+PG1hcmtlciBvcmllbnQ9ImF1dG8iIG1hcmtlckhlaWdodD0iMTAiIG1hcmtlcldpZHRoPSIxMCIgcmVmWT0iMTAiIHJlZlg9IjExIiB2aWV3Qm94PSIwIDAgMjAgMjAiIGlkPSJjYWNhby1tYXJrZXItX0FDN0YwQyI+PHBhdGggc3R5bGU9ImZpbGw6IHJnYigxNzIsIDEyNywgMTIpOyIgZD0iTSAxIDUgTCAxMSAxMCBMIDEgMTUgWiIvPjwvbWFya2VyPjxtYXJrZXIgb3JpZW50PSJhdXRvIiBtYXJrZXJIZWlnaHQ9IjEwIiBtYXJrZXJXaWR0aD0iMTAiIHJlZlk9IjEwIiByZWZYPSIxMSIgdmlld0JveD0iMCAwIDIwIDIwIiBpZD0iY2FjYW8tbWFya2VyLV9BQzdGMEMiPjxwYXRoIHN0eWxlPSJmaWxsOiByZ2IoMTcyLCAxMjcsIDEyKTsiIGQ9Ik0gMSA1IEwgMTEgMTAgTCAxIDE1IFoiLz48L21hcmtlcj48bWFya2VyIG9yaWVudD0iYXV0byIgbWFya2VySGVpZ2h0PSIxMCIgbWFya2VyV2lkdGg9IjEwIiByZWZZPSIxMCIgcmVmWD0iMTEiIHZpZXdCb3g9IjAgMCAyMCAyMCIgaWQ9ImNhY2FvLW1hcmtlci1fQUM3RjBDIj48cGF0aCBzdHlsZT0iZmlsbDogcmdiKDE3MiwgMTI3LCAxMik7IiBkPSJNIDEgNSBMIDExIDEwIEwgMSAxNSBaIi8+PC9tYXJrZXI+PG1hcmtlciBvcmllbnQ9ImF1dG8iIG1hcmtlckhlaWdodD0iMTAiIG1hcmtlcldpZHRoPSIxMCIgcmVmWT0iMTAiIHJlZlg9IjExIiB2aWV3Qm94PSIwIDAgMjAgMjAiIGlkPSJjYWNhby1tYXJrZXItX0FDN0YwQyI+PHBhdGggc3R5bGU9ImZpbGw6IHJnYigxNzIsIDEyNywgMTIpOyIgZD0iTSAxIDUgTCAxMSAxMCBMIDEgMTUgWiIvPjwvbWFya2VyPjxtYXJrZXIgb3JpZW50PSJhdXRvIiBtYXJrZXJIZWlnaHQ9IjEwIiBtYXJrZXJXaWR0aD0iMTAiIHJlZlk9IjEwIiByZWZYPSIxMSIgdmlld0JveD0iMCAwIDIwIDIwIiBpZD0iY2FjYW8tbWFya2VyLV9BQzdGMEMiPjxwYXRoIHN0eWxlPSJmaWxsOiByZ2IoMTcyLCAxMjcsIDEyKTsiIGQ9Ik0gMSA1IEwgMTEgMTAgTCAxIDE1IFoiLz48L21hcmtlcj48bWFya2VyIG9yaWVudD0iYXV0byIgbWFya2VySGVpZ2h0PSIxMCIgbWFya2VyV2lkdGg9IjEwIiByZWZZPSIxMCIgcmVmWD0iMTEiIHZpZXdCb3g9IjAgMCAyMCAyMCIgaWQ9ImNhY2FvLW1hcmtlci1fQUM3RjBDIj48cGF0aCBzdHlsZT0iZmlsbDogcmdiKDE3MiwgMTI3LCAxMik7IiBkPSJNIDEgNSBMIDExIDEwIEwgMSAxNSBaIi8+PC9tYXJrZXI+PG1hcmtlciBvcmllbnQ9ImF1dG8iIG1hcmtlckhlaWdodD0iMTAiIG1hcmtlcldpZHRoPSIxMCIgcmVmWT0iMTAiIHJlZlg9IjExIiB2aWV3Qm94PSIwIDAgMjAgMjAiIGlkPSJjYWNhby1tYXJrZXItX0FDN0YwQyI+PHBhdGggc3R5bGU9ImZpbGw6IHJnYigxNzIsIDEyNywgMTIpOyIgZD0iTSAxIDUgTCAxMSAxMCBMIDEgMTUgWiIvPjwvbWFya2VyPjxtYXJrZXIgb3JpZW50PSJhdXRvIiBtYXJrZXJIZWlnaHQ9IjEwIiBtYXJrZXJXaWR0aD0iMTAiIHJlZlk9IjEwIiByZWZYPSIxMSIgdmlld0JveD0iMCAwIDIwIDIwIiBpZD0iY2FjYW8tbWFya2VyLV9BQzdGMEMiPjxwYXRoIHN0eWxlPSJmaWxsOiByZ2IoMTcyLCAxMjcsIDEyKTsiIGQ9Ik0gMSA1IEwgMTEgMTAgTCAxIDE1IFoiLz48L21hcmtlcj48bWFya2VyIG9yaWVudD0iYXV0byIgbWFya2VySGVpZ2h0PSIxMCIgbWFya2VyV2lkdGg9IjEwIiByZWZZPSIxMCIgcmVmWD0iMTEiIHZpZXdCb3g9IjAgMCAyMCAyMCIgaWQ9ImNhY2FvLW1hcmtlci1fQUM3RjBDIj48cGF0aCBzdHlsZT0iZmlsbDogcmdiKDE3MiwgMTI3LCAxMik7IiBkPSJNIDEgNSBMIDExIDEwIEwgMSAxNSBaIi8+PC9tYXJrZXI+PG1hcmtlciBvcmllbnQ9ImF1dG8iIG1hcmtlckhlaWdodD0iMTAiIG1hcmtlcldpZHRoPSIxMCIgcmVmWT0iMTAiIHJlZlg9IjExIiB2aWV3Qm94PSIwIDAgMjAgMjAiIGlkPSJjYWNhby1tYXJrZXItX0FDN0YwQyI+PHBhdGggc3R5bGU9ImZpbGw6IHJnYigxNzIsIDEyNywgMTIpOyIgZD0iTSAxIDUgTCAxMSAxMCBMIDEgMTUgWiIvPjwvbWFya2VyPjxtYXJrZXIgb3JpZW50PSJhdXRvIiBtYXJrZXJIZWlnaHQ9IjEwIiBtYXJrZXJXaWR0aD0iMTAiIHJlZlk9IjEwIiByZWZYPSIxMSIgdmlld0JveD0iMCAwIDIwIDIwIiBpZD0iY2FjYW8tbWFya2VyLV9BQzdGMEMiPjxwYXRoIHN0eWxlPSJmaWxsOiByZ2IoMTcyLCAxMjcsIDEyKTsiIGQ9Ik0gMSA1IEwgMTEgMTAgTCAxIDE1IFoiLz48L21hcmtlcj48bWFya2VyIG9yaWVudD0iYXV0byIgbWFya2VySGVpZ2h0PSIxMCIgbWFya2VyV2lkdGg9IjEwIiByZWZZPSIxMCIgcmVmWD0iMTEiIHZpZXdCb3g9IjAgMCAyMCAyMCIgaWQ9ImNhY2FvLW1hcmtlci1fQUM3RjBDIj48cGF0aCBzdHlsZT0iZmlsbDogcmdiKDE3MiwgMTI3LCAxMik7IiBkPSJNIDEgNSBMIDExIDEwIEwgMSAxNSBaIi8+PC9tYXJrZXI+PG1hcmtlciBvcmllbnQ9ImF1dG8iIG1hcmtlckhlaWdodD0iMTAiIG1hcmtlcldpZHRoPSIxMCIgcmVmWT0iMTAiIHJlZlg9IjExIiB2aWV3Qm94PSIwIDAgMjAgMjAiIGlkPSJjYWNhby1tYXJrZXItX0FDN0YwQyI+PHBhdGggc3R5bGU9ImZpbGw6IHJnYigxNzIsIDEyNywgMTIpOyIgZD0iTSAxIDUgTCAxMSAxMCBMIDEgMTUgWiIvPjwvbWFya2VyPjxtYXJrZXIgb3JpZW50PSJhdXRvIiBtYXJrZXJIZWlnaHQ9IjEwIiBtYXJrZXJXaWR0aD0iMTAiIHJlZlk9IjEwIiByZWZYPSIxMSIgdmlld0JveD0iMCAwIDIwIDIwIiBpZD0iY2FjYW8tbWFya2VyLV9BQzdGMEMiPjxwYXRoIHN0eWxlPSJmaWxsOiByZ2IoMTcyLCAxMjcsIDEyKTsiIGQ9Ik0gMSA1IEwgMTEgMTAgTCAxIDE1IFoiLz48L21hcmtlcj48bWFya2VyIG9yaWVudD0iYXV0byIgbWFya2VySGVpZ2h0PSIxMCIgbWFya2VyV2lkdGg9IjEwIiByZWZZPSIxMCIgcmVmWD0iMTEiIHZpZXdCb3g9IjAgMCAyMCAyMCIgaWQ9ImNhY2FvLW1hcmtlci1fQUM3RjBDIj48cGF0aCBzdHlsZT0iZmlsbDogcmdiKDE3MiwgMTI3LCAxMik7IiBkPSJNIDEgNSBMIDExIDEwIEwgMSAxNSBaIi8+PC9tYXJrZXI+PG1hcmtlciBvcmllbnQ9ImF1dG8iIG1hcmtlckhlaWdodD0iMTAiIG1hcmtlcldpZHRoPSIxMCIgcmVmWT0iMTAiIHJlZlg9IjExIiB2aWV3Qm94PSIwIDAgMjAgMjAiIGlkPSJjYWNhby1tYXJrZXItX0FDN0YwQyI+PHBhdGggc3R5bGU9ImZpbGw6IHJnYigxNzIsIDEyNywgMTIpOyIgZD0iTSAxIDUgTCAxMSAxMCBMIDEgMTUgWiIvPjwvbWFya2VyPjxtYXJrZXIgb3JpZW50PSJhdXRvIiBtYXJrZXJIZWlnaHQ9IjEwIiBtYXJrZXJXaWR0aD0iMTAiIHJlZlk9IjEwIiByZWZYPSIxMSIgdmlld0JveD0iMCAwIDIwIDIwIiBpZD0iY2FjYW8tbWFya2VyLV9BQzdGMEMiPjxwYXRoIHN0eWxlPSJmaWxsOiByZ2IoMTcyLCAxMjcsIDEyKTsiIGQ9Ik0gMSA1IEwgMTEgMTAgTCAxIDE1IFoiLz48L21hcmtlcj48bWFya2VyIG9yaWVudD0iYXV0byIgbWFya2VySGVpZ2h0PSIxMCIgbWFya2VyV2lkdGg9IjEwIiByZWZZPSIxMCIgcmVmWD0iMTEiIHZpZXdCb3g9IjAgMCAyMCAyMCIgaWQ9ImNhY2FvLW1hcmtlci1fQUM3RjBDIj48cGF0aCBzdHlsZT0iZmlsbDogcmdiKDE3MiwgMTI3LCAxMik7IiBkPSJNIDEgNSBMIDExIDEwIEwgMSAxNSBaIi8+PC9tYXJrZXI+PG1hcmtlciBvcmllbnQ9ImF1dG8iIG1hcmtlckhlaWdodD0iMTAiIG1hcmtlcldpZHRoPSIxMCIgcmVmWT0iMTAiIHJlZlg9IjExIiB2aWV3Qm94PSIwIDAgMjAgMjAiIGlkPSJjYWNhby1tYXJrZXItX0FDN0YwQyI+PHBhdGggc3R5bGU9ImZpbGw6IHJnYigxNzIsIDEyNywgMTIpOyIgZD0iTSAxIDUgTCAxMSAxMCBMIDEgMTUgWiIvPjwvbWFya2VyPjxtYXJrZXIgb3JpZW50PSJhdXRvIiBtYXJrZXJIZWlnaHQ9IjEwIiBtYXJrZXJXaWR0aD0iMTAiIHJlZlk9IjEwIiByZWZYPSIxMSIgdmlld0JveD0iMCAwIDIwIDIwIiBpZD0iY2FjYW8tbWFya2VyLV9BQzdGMEMiPjxwYXRoIHN0eWxlPSJmaWxsOiByZ2IoMTcyLCAxMjcsIDEyKTsiIGQ9Ik0gMSA1IEwgMTEgMTAgTCAxIDE1IFoiLz48L21hcmtlcj48bWFya2VyIG9yaWVudD0iYXV0byIgbWFya2VySGVpZ2h0PSIxMCIgbWFya2VyV2lkdGg9IjEwIiByZWZZPSIxMCIgcmVmWD0iMTEiIHZpZXdCb3g9IjAgMCAyMCAyMCIgaWQ9ImNhY2FvLW1hcmtlci1fQUM3RjBDIj48cGF0aCBzdHlsZT0iZmlsbDogcmdiKDE3MiwgMTI3LCAxMik7IiBkPSJNIDEgNSBMIDExIDEwIEwgMSAxNSBaIi8+PC9tYXJrZXI+PG1hcmtlciBvcmllbnQ9ImF1dG8iIG1hcmtlckhlaWdodD0iMTAiIG1hcmtlcldpZHRoPSIxMCIgcmVmWT0iMTAiIHJlZlg9IjExIiB2aWV3Qm94PSIwIDAgMjAgMjAiIGlkPSJjYWNhby1tYXJrZXItX0FDN0YwQyI+PHBhdGggc3R5bGU9ImZpbGw6IHJnYigxNzIsIDEyNywgMTIpOyIgZD0iTSAxIDUgTCAxMSAxMCBMIDEgMTUgWiIvPjwvbWFya2VyPjxtYXJrZXIgb3JpZW50PSJhdXRvIiBtYXJrZXJIZWlnaHQ9IjEwIiBtYXJrZXJXaWR0aD0iMTAiIHJlZlk9IjEwIiByZWZYPSIxMSIgdmlld0JveD0iMCAwIDIwIDIwIiBpZD0iY2FjYW8tbWFya2VyLV9BQzdGMEMiPjxwYXRoIHN0eWxlPSJmaWxsOiByZ2IoMTcyLCAxMjcsIDEyKTsiIGQ9Ik0gMSA1IEwgMTEgMTAgTCAxIDE1IFoiLz48L21hcmtlcj48bWFya2VyIG9yaWVudD0iYXV0byIgbWFya2VySGVpZ2h0PSIxMCIgbWFya2VyV2lkdGg9IjEwIiByZWZZPSIxMCIgcmVmWD0iMTEiIHZpZXdCb3g9IjAgMCAyMCAyMCIgaWQ9ImNhY2FvLW1hcmtlci1fQUM3RjBDIj48cGF0aCBzdHlsZT0iZmlsbDogcmdiKDE3MiwgMTI3LCAxMik7IiBkPSJNIDEgNSBMIDExIDEwIEwgMSAxNSBaIi8+PC9tYXJrZXI+PG1hcmtlciBvcmllbnQ9ImF1dG8iIG1hcmtlckhlaWdodD0iMTAiIG1hcmtlcldpZHRoPSIxMCIgcmVmWT0iMTAiIHJlZlg9IjExIiB2aWV3Qm94PSIwIDAgMjAgMjAiIGlkPSJjYWNhby1tYXJrZXItX0FDN0YwQyI+PHBhdGggc3R5bGU9ImZpbGw6IHJnYigxNzIsIDEyNywgMTIpOyIgZD0iTSAxIDUgTCAxMSAxMCBMIDEgMTUgWiIvPjwvbWFya2VyPjxtYXJrZXIgb3JpZW50PSJhdXRvIiBtYXJrZXJIZWlnaHQ9IjEwIiBtYXJrZXJXaWR0aD0iMTAiIHJlZlk9IjEwIiByZWZYPSIxMSIgdmlld0JveD0iMCAwIDIwIDIwIiBpZD0iY2FjYW8tbWFya2VyLV82NTA0QzEiPjxwYXRoIHN0eWxlPSJmaWxsOiByZ2IoMTAxLCA0LCAxOTMpOyIgZD0iTSAxIDUgTCAxMSAxMCBMIDEgMTUgWiIvPjwvbWFya2VyPjxtYXJrZXIgb3JpZW50PSJhdXRvIiBtYXJrZXJIZWlnaHQ9IjEwIiBtYXJrZXJXaWR0aD0iMTAiIHJlZlk9IjEwIiByZWZYPSIxMSIgdmlld0JveD0iMCAwIDIwIDIwIiBpZD0iY2FjYW8tbWFya2VyLWJsYWNrIj48cGF0aCBzdHlsZT0iZmlsbDogYmxhY2s7IiBkPSJNIDEgNSBMIDExIDEwIEwgMSAxNSBaIi8+PC9tYXJrZXI+PG1hcmtlciBvcmllbnQ9ImF1dG8iIG1hcmtlckhlaWdodD0iMTAiIG1hcmtlcldpZHRoPSIxMCIgcmVmWT0iMTAiIHJlZlg9IjExIiB2aWV3Qm94PSIwIDAgMjAgMjAiIGlkPSJjYWNhby1tYXJrZXItYmxhY2siPjxwYXRoIHN0eWxlPSJmaWxsOiBibGFjazsiIGQ9Ik0gMSA1IEwgMTEgMTAgTCAxIDE1IFoiLz48L21hcmtlcj48bWFya2VyIG9yaWVudD0iYXV0byIgbWFya2VySGVpZ2h0PSIxMCIgbWFya2VyV2lkdGg9IjEwIiByZWZZPSIxMCIgcmVmWD0iMTEiIHZpZXdCb3g9IjAgMCAyMCAyMCIgaWQ9ImNhY2FvLW1hcmtlci1fQUM3RjBDIj48cGF0aCBzdHlsZT0iZmlsbDogcmdiKDE3MiwgMTI3LCAxMik7IiBkPSJNIDEgNSBMIDExIDEwIEwgMSAxNSBaIi8+PC9tYXJrZXI+PG1hcmtlciBvcmllbnQ9ImF1dG8iIG1hcmtlckhlaWdodD0iMTAiIG1hcmtlcldpZHRoPSIxMCIgcmVmWT0iMTAiIHJlZlg9IjExIiB2aWV3Qm94PSIwIDAgMjAgMjAiIGlkPSJjYWNhby1tYXJrZXItYmxhY2siPjxwYXRoIHN0eWxlPSJmaWxsOiBibGFjazsiIGQ9Ik0gMSA1IEwgMTEgMTAgTCAxIDE1IFoiLz48L21hcmtlcj48bWFya2VyIG9yaWVudD0iYXV0byIgbWFya2VySGVpZ2h0PSIxMCIgbWFya2VyV2lkdGg9IjEwIiByZWZZPSIxMCIgcmVmWD0iMTEiIHZpZXdCb3g9IjAgMCAyMCAyMCIgaWQ9ImNhY2FvLW1hcmtlci1ibGFjayI+PHBhdGggc3R5bGU9ImZpbGw6IGJsYWNrOyIgZD0iTSAxIDUgTCAxMSAxMCBMIDEgMTUgWiIvPjwvbWFya2VyPjxtYXJrZXIgb3JpZW50PSJhdXRvIiBtYXJrZXJIZWlnaHQ9IjEwIiBtYXJrZXJXaWR0aD0iMTAiIHJlZlk9IjEwIiByZWZYPSIxMSIgdmlld0JveD0iMCAwIDIwIDIwIiBpZD0iY2FjYW8tbWFya2VyLWJsYWNrIj48cGF0aCBzdHlsZT0iZmlsbDogYmxhY2s7IiBkPSJNIDEgNSBMIDExIDEwIEwgMSAxNSBaIi8+PC9tYXJrZXI+PG1hcmtlciBvcmllbnQ9ImF1dG8iIG1hcmtlckhlaWdodD0iMTAiIG1hcmtlcldpZHRoPSIxMCIgcmVmWT0iMTAiIHJlZlg9IjExIiB2aWV3Qm94PSIwIDAgMjAgMjAiIGlkPSJjYWNhby1tYXJrZXItXzY1MDRDMSI+PHBhdGggc3R5bGU9ImZpbGw6IHJnYigxMDEsIDQsIDE5Myk7IiBkPSJNIDEgNSBMIDExIDEwIEwgMSAxNSBaIi8+PC9tYXJrZXI+PG1hcmtlciBvcmllbnQ9ImF1dG8iIG1hcmtlckhlaWdodD0iMTAiIG1hcmtlcldpZHRoPSIxMCIgcmVmWT0iMTAiIHJlZlg9IjExIiB2aWV3Qm94PSIwIDAgMjAgMjAiIGlkPSJjYWNhby1tYXJrZXItYmxhY2siPjxwYXRoIHN0eWxlPSJmaWxsOiBibGFjazsiIGQ9Ik0gMSA1IEwgMTEgMTAgTCAxIDE1IFoiLz48L21hcmtlcj48bWFya2VyIG9yaWVudD0iYXV0byIgbWFya2VySGVpZ2h0PSIxMCIgbWFya2VyV2lkdGg9IjEwIiByZWZZPSIxMCIgcmVmWD0iMTEiIHZpZXdCb3g9IjAgMCAyMCAyMCIgaWQ9ImNhY2FvLW1hcmtlci1fNjUwNEMxIj48cGF0aCBzdHlsZT0iZmlsbDogcmdiKDEwMSwgNCwgMTkzKTsiIGQ9Ik0gMSA1IEwgMTEgMTAgTCAxIDE1IFoiLz48L21hcmtlcj48bWFya2VyIG9yaWVudD0iYXV0byIgbWFya2VySGVpZ2h0PSIxMCIgbWFya2VyV2lkdGg9IjEwIiByZWZZPSIxMCIgcmVmWD0iMTEiIHZpZXdCb3g9IjAgMCAyMCAyMCIgaWQ9ImNhY2FvLW1hcmtlci1fNjUwNEMxIj48cGF0aCBzdHlsZT0iZmlsbDogcmdiKDEwMSwgNCwgMTkzKTsiIGQ9Ik0gMSA1IEwgMTEgMTAgTCAxIDE1IFoiLz48L21hcmtlcj48bWFya2VyIG9yaWVudD0iYXV0byIgbWFya2VySGVpZ2h0PSIxMCIgbWFya2VyV2lkdGg9IjEwIiByZWZZPSIxMCIgcmVmWD0iMTEiIHZpZXdCb3g9IjAgMCAyMCAyMCIgaWQ9ImNhY2FvLW1hcmtlci1ibGFjayI+PHBhdGggc3R5bGU9ImZpbGw6IGJsYWNrOyIgZD0iTSAxIDUgTCAxMSAxMCBMIDEgMTUgWiIvPjwvbWFya2VyPjxtYXJrZXIgb3JpZW50PSJhdXRvIiBtYXJrZXJIZWlnaHQ9IjEwIiBtYXJrZXJXaWR0aD0iMTAiIHJlZlk9IjEwIiByZWZYPSIxMSIgdmlld0JveD0iMCAwIDIwIDIwIiBpZD0iY2FjYW8tbWFya2VyLV82NTA0QzEiPjxwYXRoIHN0eWxlPSJmaWxsOiByZ2IoMTAxLCA0LCAxOTMpOyIgZD0iTSAxIDUgTCAxMSAxMCBMIDEgMTUgWiIvPjwvbWFya2VyPjxtYXJrZXIgb3JpZW50PSJhdXRvIiBtYXJrZXJIZWlnaHQ9IjEwIiBtYXJrZXJXaWR0aD0iMTAiIHJlZlk9IjEwIiByZWZYPSIxMSIgdmlld0JveD0iMCAwIDIwIDIwIiBpZD0iY2FjYW8tbWFya2VyLV82NTA0QzEiPjxwYXRoIHN0eWxlPSJmaWxsOiByZ2IoMTAxLCA0LCAxOTMpOyIgZD0iTSAxIDUgTCAxMSAxMCBMIDEgMTUgWiIvPjwvbWFya2VyPjxtYXJrZXIgb3JpZW50PSJhdXRvIiBtYXJrZXJIZWlnaHQ9IjEwIiBtYXJrZXJXaWR0aD0iMTAiIHJlZlk9IjEwIiByZWZYPSIxMSIgdmlld0JveD0iMCAwIDIwIDIwIiBpZD0iY2FjYW8tbWFya2VyLV82NTA0QzEiPjxwYXRoIHN0eWxlPSJmaWxsOiByZ2IoMTAxLCA0LCAxOTMpOyIgZD0iTSAxIDUgTCAxMSAxMCBMIDEgMTUgWiIvPjwvbWFya2VyPjxtYXJrZXIgb3JpZW50PSJhdXRvIiBtYXJrZXJIZWlnaHQ9IjEwIiBtYXJrZXJXaWR0aD0iMTAiIHJlZlk9IjEwIiByZWZYPSIxMSIgdmlld0JveD0iMCAwIDIwIDIwIiBpZD0iY2FjYW8tbWFya2VyLV82NTA0QzEiPjxwYXRoIHN0eWxlPSJmaWxsOiByZ2IoMTAxLCA0LCAxOTMpOyIgZD0iTSAxIDUgTCAxMSAxMCBMIDEgMTUgWiIvPjwvbWFya2VyPjxtYXJrZXIgb3JpZW50PSJhdXRvIiBtYXJrZXJIZWlnaHQ9IjEwIiBtYXJrZXJXaWR0aD0iMTAiIHJlZlk9IjEwIiByZWZYPSIxMSIgdmlld0JveD0iMCAwIDIwIDIwIiBpZD0iY2FjYW8tbWFya2VyLV82NTA0QzEiPjxwYXRoIHN0eWxlPSJmaWxsOiByZ2IoMTAxLCA0LCAxOTMpOyIgZD0iTSAxIDUgTCAxMSAxMCBMIDEgMTUgWiIvPjwvbWFya2VyPjxtYXJrZXIgb3JpZW50PSJhdXRvIiBtYXJrZXJIZWlnaHQ9IjEwIiBtYXJrZXJXaWR0aD0iMTAiIHJlZlk9IjEwIiByZWZYPSIxMSIgdmlld0JveD0iMCAwIDIwIDIwIiBpZD0iY2FjYW8tbWFya2VyLV82NTA0QzEiPjxwYXRoIHN0eWxlPSJmaWxsOiByZ2IoMTAxLCA0LCAxOTMpOyIgZD0iTSAxIDUgTCAxMSAxMCBMIDEgMTUgWiIvPjwvbWFya2VyPjxtYXJrZXIgb3JpZW50PSJhdXRvIiBtYXJrZXJIZWlnaHQ9IjEwIiBtYXJrZXJXaWR0aD0iMTAiIHJlZlk9IjEwIiByZWZYPSIxMSIgdmlld0JveD0iMCAwIDIwIDIwIiBpZD0iY2FjYW8tbWFya2VyLV82NTA0QzEiPjxwYXRoIHN0eWxlPSJmaWxsOiByZ2IoMTAxLCA0LCAxOTMpOyIgZD0iTSAxIDUgTCAxMSAxMCBMIDEgMTUgWiIvPjwvbWFya2VyPjxtYXJrZXIgb3JpZW50PSJhdXRvIiBtYXJrZXJIZWlnaHQ9IjEwIiBtYXJrZXJXaWR0aD0iMTAiIHJlZlk9IjEwIiByZWZYPSIxMSIgdmlld0JveD0iMCAwIDIwIDIwIiBpZD0iY2FjYW8tbWFya2VyLV82NTA0QzEiPjxwYXRoIHN0eWxlPSJmaWxsOiByZ2IoMTAxLCA0LCAxOTMpOyIgZD0iTSAxIDUgTCAxMSAxMCBMIDEgMTUgWiIvPjwvbWFya2VyPjxtYXJrZXIgb3JpZW50PSJhdXRvIiBtYXJrZXJIZWlnaHQ9IjEwIiBtYXJrZXJXaWR0aD0iMTAiIHJlZlk9IjEwIiByZWZYPSIxMSIgdmlld0JveD0iMCAwIDIwIDIwIiBpZD0iY2FjYW8tbWFya2VyLV82NTA0QzEiPjxwYXRoIHN0eWxlPSJmaWxsOiByZ2IoMTAxLCA0LCAxOTMpOyIgZD0iTSAxIDUgTCAxMSAxMCBMIDEgMTUgWiIvPjwvbWFya2VyPjxtYXJrZXIgb3JpZW50PSJhdXRvIiBtYXJrZXJIZWlnaHQ9IjEwIiBtYXJrZXJXaWR0aD0iMTAiIHJlZlk9IjEwIiByZWZYPSIxMSIgdmlld0JveD0iMCAwIDIwIDIwIiBpZD0iY2FjYW8tbWFya2VyLV82NTA0QzEiPjxwYXRoIHN0eWxlPSJmaWxsOiByZ2IoMTAxLCA0LCAxOTMpOyIgZD0iTSAxIDUgTCAxMSAxMCBMIDEgMTUgWiIvPjwvbWFya2VyPjxtYXJrZXIgb3JpZW50PSJhdXRvIiBtYXJrZXJIZWlnaHQ9IjEwIiBtYXJrZXJXaWR0aD0iMTAiIHJlZlk9IjEwIiByZWZYPSIxMSIgdmlld0JveD0iMCAwIDIwIDIwIiBpZD0iY2FjYW8tbWFya2VyLV82NTA0QzEiPjxwYXRoIHN0eWxlPSJmaWxsOiByZ2IoMTAxLCA0LCAxOTMpOyIgZD0iTSAxIDUgTCAxMSAxMCBMIDEgMTUgWiIvPjwvbWFya2VyPjxtYXJrZXIgb3JpZW50PSJhdXRvIiBtYXJrZXJIZWlnaHQ9IjEwIiBtYXJrZXJXaWR0aD0iMTAiIHJlZlk9IjEwIiByZWZYPSIxMSIgdmlld0JveD0iMCAwIDIwIDIwIiBpZD0iY2FjYW8tbWFya2VyLV82NTA0QzEiPjxwYXRoIHN0eWxlPSJmaWxsOiByZ2IoMTAxLCA0LCAxOTMpOyIgZD0iTSAxIDUgTCAxMSAxMCBMIDEgMTUgWiIvPjwvbWFya2VyPjxtYXJrZXIgb3JpZW50PSJhdXRvIiBtYXJrZXJIZWlnaHQ9IjEwIiBtYXJrZXJXaWR0aD0iMTAiIHJlZlk9IjEwIiByZWZYPSIxMSIgdmlld0JveD0iMCAwIDIwIDIwIiBpZD0iY2FjYW8tbWFya2VyLV82NTA0QzEiPjxwYXRoIHN0eWxlPSJmaWxsOiByZ2IoMTAxLCA0LCAxOTMpOyIgZD0iTSAxIDUgTCAxMSAxMCBMIDEgMTUgWiIvPjwvbWFya2VyPjxtYXJrZXIgb3JpZW50PSJhdXRvIiBtYXJrZXJIZWlnaHQ9IjEwIiBtYXJrZXJXaWR0aD0iMTAiIHJlZlk9IjEwIiByZWZYPSIxMSIgdmlld0JveD0iMCAwIDIwIDIwIiBpZD0iY2FjYW8tbWFya2VyLV82NTA0QzEiPjxwYXRoIHN0eWxlPSJmaWxsOiByZ2IoMTAxLCA0LCAxOTMpOyIgZD0iTSAxIDUgTCAxMSAxMCBMIDEgMTUgWiIvPjwvbWFya2VyPjxtYXJrZXIgb3JpZW50PSJhdXRvIiBtYXJrZXJIZWlnaHQ9IjEwIiBtYXJrZXJXaWR0aD0iMTAiIHJlZlk9IjEwIiByZWZYPSIxMSIgdmlld0JveD0iMCAwIDIwIDIwIiBpZD0iY2FjYW8tbWFya2VyLV82NTA0QzEiPjxwYXRoIHN0eWxlPSJmaWxsOiByZ2IoMTAxLCA0LCAxOTMpOyIgZD0iTSAxIDUgTCAxMSAxMCBMIDEgMTUgWiIvPjwvbWFya2VyPjxtYXJrZXIgb3JpZW50PSJhdXRvIiBtYXJrZXJIZWlnaHQ9IjEwIiBtYXJrZXJXaWR0aD0iMTAiIHJlZlk9IjEwIiByZWZYPSIxMSIgdmlld0JveD0iMCAwIDIwIDIwIiBpZD0iY2FjYW8tbWFya2VyLV82NTA0QzEiPjxwYXRoIHN0eWxlPSJmaWxsOiByZ2IoMTAxLCA0LCAxOTMpOyIgZD0iTSAxIDUgTCAxMSAxMCBMIDEgMTUgWiIvPjwvbWFya2VyPjxtYXJrZXIgb3JpZW50PSJhdXRvIiBtYXJrZXJIZWlnaHQ9IjEwIiBtYXJrZXJXaWR0aD0iMTAiIHJlZlk9IjEwIiByZWZYPSIxMSIgdmlld0JveD0iMCAwIDIwIDIwIiBpZD0iY2FjYW8tbWFya2VyLV82NTA0QzEiPjxwYXRoIHN0eWxlPSJmaWxsOiByZ2IoMTAxLCA0LCAxOTMpOyIgZD0iTSAxIDUgTCAxMSAxMCBMIDEgMTUgWiIvPjwvbWFya2VyPjxtYXJrZXIgb3JpZW50PSJhdXRvIiBtYXJrZXJIZWlnaHQ9IjEwIiBtYXJrZXJXaWR0aD0iMTAiIHJlZlk9IjEwIiByZWZYPSIxMSIgdmlld0JveD0iMCAwIDIwIDIwIiBpZD0iY2FjYW8tbWFya2VyLV82NTA0QzEiPjxwYXRoIHN0eWxlPSJmaWxsOiByZ2IoMTAxLCA0LCAxOTMpOyIgZD0iTSAxIDUgTCAxMSAxMCBMIDEgMTUgWiIvPjwvbWFya2VyPjxtYXJrZXIgb3JpZW50PSJhdXRvIiBtYXJrZXJIZWlnaHQ9IjEwIiBtYXJrZXJXaWR0aD0iMTAiIHJlZlk9IjEwIiByZWZYPSIxMSIgdmlld0JveD0iMCAwIDIwIDIwIiBpZD0iY2FjYW8tbWFya2VyLV82NTA0QzEiPjxwYXRoIHN0eWxlPSJmaWxsOiByZ2IoMTAxLCA0LCAxOTMpOyIgZD0iTSAxIDUgTCAxMSAxMCBMIDEgMTUgWiIvPjwvbWFya2VyPjxtYXJrZXIgb3JpZW50PSJhdXRvIiBtYXJrZXJIZWlnaHQ9IjEwIiBtYXJrZXJXaWR0aD0iMTAiIHJlZlk9IjEwIiByZWZYPSIxMSIgdmlld0JveD0iMCAwIDIwIDIwIiBpZD0iY2FjYW8tbWFya2VyLV82NTA0QzEiPjxwYXRoIHN0eWxlPSJmaWxsOiByZ2IoMTAxLCA0LCAxOTMpOyIgZD0iTSAxIDUgTCAxMSAxMCBMIDEgMTUgWiIvPjwvbWFya2VyPjxtYXJrZXIgb3JpZW50PSJhdXRvIiBtYXJrZXJIZWlnaHQ9IjEwIiBtYXJrZXJXaWR0aD0iMTAiIHJlZlk9IjEwIiByZWZYPSIxMSIgdmlld0JveD0iMCAwIDIwIDIwIiBpZD0iY2FjYW8tbWFya2VyLV82NTA0QzEiPjxwYXRoIHN0eWxlPSJmaWxsOiByZ2IoMTAxLCA0LCAxOTMpOyIgZD0iTSAxIDUgTCAxMSAxMCBMIDEgMTUgWiIvPjwvbWFya2VyPjxtYXJrZXIgb3JpZW50PSJhdXRvIiBtYXJrZXJIZWlnaHQ9IjEwIiBtYXJrZXJXaWR0aD0iMTAiIHJlZlk9IjEwIiByZWZYPSIxMSIgdmlld0JveD0iMCAwIDIwIDIwIiBpZD0iY2FjYW8tbWFya2VyLV82NTA0QzEiPjxwYXRoIHN0eWxlPSJmaWxsOiByZ2IoMTAxLCA0LCAxOTMpOyIgZD0iTSAxIDUgTCAxMSAxMCBMIDEgMTUgWiIvPjwvbWFya2VyPjxtYXJrZXIgb3JpZW50PSJhdXRvIiBtYXJrZXJIZWlnaHQ9IjEwIiBtYXJrZXJXaWR0aD0iMTAiIHJlZlk9IjEwIiByZWZYPSIxMSIgdmlld0JveD0iMCAwIDIwIDIwIiBpZD0iY2FjYW8tbWFya2VyLV82NTA0QzEiPjxwYXRoIHN0eWxlPSJmaWxsOiByZ2IoMTAxLCA0LCAxOTMpOyIgZD0iTSAxIDUgTCAxMSAxMCBMIDEgMTUgWiIvPjwvbWFya2VyPjxtYXJrZXIgb3JpZW50PSJhdXRvIiBtYXJrZXJIZWlnaHQ9IjEwIiBtYXJrZXJXaWR0aD0iMTAiIHJlZlk9IjEwIiByZWZYPSIxMSIgdmlld0JveD0iMCAwIDIwIDIwIiBpZD0iY2FjYW8tbWFya2VyLV82NTA0QzEiPjxwYXRoIHN0eWxlPSJmaWxsOiByZ2IoMTAxLCA0LCAxOTMpOyIgZD0iTSAxIDUgTCAxMSAxMCBMIDEgMTUgWiIvPjwvbWFya2VyPjxtYXJrZXIgb3JpZW50PSJhdXRvIiBtYXJrZXJIZWlnaHQ9IjEwIiBtYXJrZXJXaWR0aD0iMTAiIHJlZlk9IjEwIiByZWZYPSIxMSIgdmlld0JveD0iMCAwIDIwIDIwIiBpZD0iY2FjYW8tbWFya2VyLV82NTA0QzEiPjxwYXRoIHN0eWxlPSJmaWxsOiByZ2IoMTAxLCA0LCAxOTMpOyIgZD0iTSAxIDUgTCAxMSAxMCBMIDEgMTUgWiIvPjwvbWFya2VyPjxtYXJrZXIgb3JpZW50PSJhdXRvIiBtYXJrZXJIZWlnaHQ9IjEwIiBtYXJrZXJXaWR0aD0iMTAiIHJlZlk9IjEwIiByZWZYPSIxMSIgdmlld0JveD0iMCAwIDIwIDIwIiBpZD0iY2FjYW8tbWFya2VyLV82NTA0QzEiPjxwYXRoIHN0eWxlPSJmaWxsOiByZ2IoMTAxLCA0LCAxOTMpOyIgZD0iTSAxIDUgTCAxMSAxMCBMIDEgMTUgWiIvPjwvbWFya2VyPjxtYXJrZXIgb3JpZW50PSJhdXRvIiBtYXJrZXJIZWlnaHQ9IjEwIiBtYXJrZXJXaWR0aD0iMTAiIHJlZlk9IjEwIiByZWZYPSIxMSIgdmlld0JveD0iMCAwIDIwIDIwIiBpZD0iY2FjYW8tbWFya2VyLV82NTA0QzEiPjxwYXRoIHN0eWxlPSJmaWxsOiByZ2IoMTAxLCA0LCAxOTMpOyIgZD0iTSAxIDUgTCAxMSAxMCBMIDEgMTUgWiIvPjwvbWFya2VyPjxtYXJrZXIgb3JpZW50PSJhdXRvIiBtYXJrZXJIZWlnaHQ9IjEwIiBtYXJrZXJXaWR0aD0iMTAiIHJlZlk9IjEwIiByZWZYPSIxMSIgdmlld0JveD0iMCAwIDIwIDIwIiBpZD0iY2FjYW8tbWFya2VyLV82NTA0QzEiPjxwYXRoIHN0eWxlPSJmaWxsOiByZ2IoMTAxLCA0LCAxOTMpOyIgZD0iTSAxIDUgTCAxMSAxMCBMIDEgMTUgWiIvPjwvbWFya2VyPjxtYXJrZXIgb3JpZW50PSJhdXRvIiBtYXJrZXJIZWlnaHQ9IjEwIiBtYXJrZXJXaWR0aD0iMTAiIHJlZlk9IjEwIiByZWZYPSIxMSIgdmlld0JveD0iMCAwIDIwIDIwIiBpZD0iY2FjYW8tbWFya2VyLV82NTA0QzEiPjxwYXRoIHN0eWxlPSJmaWxsOiByZ2IoMTAxLCA0LCAxOTMpOyIgZD0iTSAxIDUgTCAxMSAxMCBMIDEgMTUgWiIvPjwvbWFya2VyPjxtYXJrZXIgb3JpZW50PSJhdXRvIiBtYXJrZXJIZWlnaHQ9IjEwIiBtYXJrZXJXaWR0aD0iMTAiIHJlZlk9IjEwIiByZWZYPSIxMSIgdmlld0JveD0iMCAwIDIwIDIwIiBpZD0iY2FjYW8tbWFya2VyLV82NTA0QzEiPjxwYXRoIHN0eWxlPSJmaWxsOiByZ2IoMTAxLCA0LCAxOTMpOyIgZD0iTSAxIDUgTCAxMSAxMCBMIDEgMTUgWiIvPjwvbWFya2VyPjxtYXJrZXIgb3JpZW50PSJhdXRvIiBtYXJrZXJIZWlnaHQ9IjEwIiBtYXJrZXJXaWR0aD0iMTAiIHJlZlk9IjEwIiByZWZYPSIxMSIgdmlld0JveD0iMCAwIDIwIDIwIiBpZD0iY2FjYW8tbWFya2VyLV82NTA0QzEiPjxwYXRoIHN0eWxlPSJmaWxsOiByZ2IoMTAxLCA0LCAxOTMpOyIgZD0iTSAxIDUgTCAxMSAxMCBMIDEgMTUgWiIvPjwvbWFya2VyPjxtYXJrZXIgb3JpZW50PSJhdXRvIiBtYXJrZXJIZWlnaHQ9IjEwIiBtYXJrZXJXaWR0aD0iMTAiIHJlZlk9IjEwIiByZWZYPSIxMSIgdmlld0JveD0iMCAwIDIwIDIwIiBpZD0iY2FjYW8tbWFya2VyLV82NTA0QzEiPjxwYXRoIHN0eWxlPSJmaWxsOiByZ2IoMTAxLCA0LCAxOTMpOyIgZD0iTSAxIDUgTCAxMSAxMCBMIDEgMTUgWiIvPjwvbWFya2VyPjxtYXJrZXIgb3JpZW50PSJhdXRvIiBtYXJrZXJIZWlnaHQ9IjEwIiBtYXJrZXJXaWR0aD0iMTAiIHJlZlk9IjEwIiByZWZYPSIxMSIgdmlld0JveD0iMCAwIDIwIDIwIiBpZD0iY2FjYW8tbWFya2VyLV82NTA0QzEiPjxwYXRoIHN0eWxlPSJmaWxsOiByZ2IoMTAxLCA0LCAxOTMpOyIgZD0iTSAxIDUgTCAxMSAxMCBMIDEgMTUgWiIvPjwvbWFya2VyPjxtYXJrZXIgb3JpZW50PSJhdXRvIiBtYXJrZXJIZWlnaHQ9IjEwIiBtYXJrZXJXaWR0aD0iMTAiIHJlZlk9IjEwIiByZWZYPSIxMSIgdmlld0JveD0iMCAwIDIwIDIwIiBpZD0iY2FjYW8tbWFya2VyLV82NTA0QzEiPjxwYXRoIHN0eWxlPSJmaWxsOiByZ2IoMTAxLCA0LCAxOTMpOyIgZD0iTSAxIDUgTCAxMSAxMCBMIDEgMTUgWiIvPjwvbWFya2VyPjxtYXJrZXIgb3JpZW50PSJhdXRvIiBtYXJrZXJIZWlnaHQ9IjEwIiBtYXJrZXJXaWR0aD0iMTAiIHJlZlk9IjEwIiByZWZYPSIxMSIgdmlld0JveD0iMCAwIDIwIDIwIiBpZD0iY2FjYW8tbWFya2VyLV82NTA0QzEiPjxwYXRoIHN0eWxlPSJmaWxsOiByZ2IoMTAxLCA0LCAxOTMpOyIgZD0iTSAxIDUgTCAxMSAxMCBMIDEgMTUgWiIvPjwvbWFya2VyPjxtYXJrZXIgb3JpZW50PSJhdXRvIiBtYXJrZXJIZWlnaHQ9IjEwIiBtYXJrZXJXaWR0aD0iMTAiIHJlZlk9IjEwIiByZWZYPSIxMSIgdmlld0JveD0iMCAwIDIwIDIwIiBpZD0iY2FjYW8tbWFya2VyLV82NTA0QzEiPjxwYXRoIHN0eWxlPSJmaWxsOiByZ2IoMTAxLCA0LCAxOTMpOyIgZD0iTSAxIDUgTCAxMSAxMCBMIDEgMTUgWiIvPjwvbWFya2VyPjxtYXJrZXIgb3JpZW50PSJhdXRvIiBtYXJrZXJIZWlnaHQ9IjEwIiBtYXJrZXJXaWR0aD0iMTAiIHJlZlk9IjEwIiByZWZYPSIxMSIgdmlld0JveD0iMCAwIDIwIDIwIiBpZD0iY2FjYW8tbWFya2VyLV82NTA0QzEiPjxwYXRoIHN0eWxlPSJmaWxsOiByZ2IoMTAxLCA0LCAxOTMpOyIgZD0iTSAxIDUgTCAxMSAxMCBMIDEgMTUgWiIvPjwvbWFya2VyPjxtYXJrZXIgb3JpZW50PSJhdXRvIiBtYXJrZXJIZWlnaHQ9IjEwIiBtYXJrZXJXaWR0aD0iMTAiIHJlZlk9IjEwIiByZWZYPSIxMSIgdmlld0JveD0iMCAwIDIwIDIwIiBpZD0iY2FjYW8tbWFya2VyLV82NTA0QzEiPjxwYXRoIHN0eWxlPSJmaWxsOiByZ2IoMTAxLCA0LCAxOTMpOyIgZD0iTSAxIDUgTCAxMSAxMCBMIDEgMTUgWiIvPjwvbWFya2VyPjxtYXJrZXIgb3JpZW50PSJhdXRvIiBtYXJrZXJIZWlnaHQ9IjEwIiBtYXJrZXJXaWR0aD0iMTAiIHJlZlk9IjEwIiByZWZYPSIxMSIgdmlld0JveD0iMCAwIDIwIDIwIiBpZD0iY2FjYW8tbWFya2VyLV82NTA0QzEiPjxwYXRoIHN0eWxlPSJmaWxsOiByZ2IoMTAxLCA0LCAxOTMpOyIgZD0iTSAxIDUgTCAxMSAxMCBMIDEgMTUgWiIvPjwvbWFya2VyPjxtYXJrZXIgb3JpZW50PSJhdXRvIiBtYXJrZXJIZWlnaHQ9IjEwIiBtYXJrZXJXaWR0aD0iMTAiIHJlZlk9IjEwIiByZWZYPSIxMSIgdmlld0JveD0iMCAwIDIwIDIwIiBpZD0iY2FjYW8tbWFya2VyLV82NTA0QzEiPjxwYXRoIHN0eWxlPSJmaWxsOiByZ2IoMTAxLCA0LCAxOTMpOyIgZD0iTSAxIDUgTCAxMSAxMCBMIDEgMTUgWiIvPjwvbWFya2VyPjxtYXJrZXIgb3JpZW50PSJhdXRvIiBtYXJrZXJIZWlnaHQ9IjEwIiBtYXJrZXJXaWR0aD0iMTAiIHJlZlk9IjEwIiByZWZYPSIxMSIgdmlld0JveD0iMCAwIDIwIDIwIiBpZD0iY2FjYW8tbWFya2VyLV82NTA0QzEiPjxwYXRoIHN0eWxlPSJmaWxsOiByZ2IoMTAxLCA0LCAxOTMpOyIgZD0iTSAxIDUgTCAxMSAxMCBMIDEgMTUgWiIvPjwvbWFya2VyPjxtYXJrZXIgb3JpZW50PSJhdXRvIiBtYXJrZXJIZWlnaHQ9IjEwIiBtYXJrZXJXaWR0aD0iMTAiIHJlZlk9IjEwIiByZWZYPSIxMSIgdmlld0JveD0iMCAwIDIwIDIwIiBpZD0iY2FjYW8tbWFya2VyLV82NTA0QzEiPjxwYXRoIHN0eWxlPSJmaWxsOiByZ2IoMTAxLCA0LCAxOTMpOyIgZD0iTSAxIDUgTCAxMSAxMCBMIDEgMTUgWiIvPjwvbWFya2VyPjxtYXJrZXIgb3JpZW50PSJhdXRvIiBtYXJrZXJIZWlnaHQ9IjEwIiBtYXJrZXJXaWR0aD0iMTAiIHJlZlk9IjEwIiByZWZYPSIxMSIgdmlld0JveD0iMCAwIDIwIDIwIiBpZD0iY2FjYW8tbWFya2VyLV82NTA0QzEiPjxwYXRoIHN0eWxlPSJmaWxsOiByZ2IoMTAxLCA0LCAxOTMpOyIgZD0iTSAxIDUgTCAxMSAxMCBMIDEgMTUgWiIvPjwvbWFya2VyPjxtYXJrZXIgb3JpZW50PSJhdXRvIiBtYXJrZXJIZWlnaHQ9IjEwIiBtYXJrZXJXaWR0aD0iMTAiIHJlZlk9IjEwIiByZWZYPSIxMSIgdmlld0JveD0iMCAwIDIwIDIwIiBpZD0iY2FjYW8tbWFya2VyLV82NTA0QzEiPjxwYXRoIHN0eWxlPSJmaWxsOiByZ2IoMTAxLCA0LCAxOTMpOyIgZD0iTSAxIDUgTCAxMSAxMCBMIDEgMTUgWiIvPjwvbWFya2VyPjxtYXJrZXIgb3JpZW50PSJhdXRvIiBtYXJrZXJIZWlnaHQ9IjEwIiBtYXJrZXJXaWR0aD0iMTAiIHJlZlk9IjEwIiByZWZYPSIxMSIgdmlld0JveD0iMCAwIDIwIDIwIiBpZD0iY2FjYW8tbWFya2VyLV82NTA0QzEiPjxwYXRoIHN0eWxlPSJmaWxsOiByZ2IoMTAxLCA0LCAxOTMpOyIgZD0iTSAxIDUgTCAxMSAxMCBMIDEgMTUgWiIvPjwvbWFya2VyPjxtYXJrZXIgb3JpZW50PSJhdXRvIiBtYXJrZXJIZWlnaHQ9IjEwIiBtYXJrZXJXaWR0aD0iMTAiIHJlZlk9IjEwIiByZWZYPSIxMSIgdmlld0JveD0iMCAwIDIwIDIwIiBpZD0iY2FjYW8tbWFya2VyLV82NTA0QzEiPjxwYXRoIHN0eWxlPSJmaWxsOiByZ2IoMTAxLCA0LCAxOTMpOyIgZD0iTSAxIDUgTCAxMSAxMCBMIDEgMTUgWiIvPjwvbWFya2VyPjxtYXJrZXIgb3JpZW50PSJhdXRvIiBtYXJrZXJIZWlnaHQ9IjEwIiBtYXJrZXJXaWR0aD0iMTAiIHJlZlk9IjEwIiByZWZYPSIxMSIgdmlld0JveD0iMCAwIDIwIDIwIiBpZD0iY2FjYW8tbWFya2VyLV82NTA0QzEiPjxwYXRoIHN0eWxlPSJmaWxsOiByZ2IoMTAxLCA0LCAxOTMpOyIgZD0iTSAxIDUgTCAxMSAxMCBMIDEgMTUgWiIvPjwvbWFya2VyPjxtYXJrZXIgb3JpZW50PSJhdXRvIiBtYXJrZXJIZWlnaHQ9IjEwIiBtYXJrZXJXaWR0aD0iMTAiIHJlZlk9IjEwIiByZWZYPSIxMSIgdmlld0JveD0iMCAwIDIwIDIwIiBpZD0iY2FjYW8tbWFya2VyLV82NTA0QzEiPjxwYXRoIHN0eWxlPSJmaWxsOiByZ2IoMTAxLCA0LCAxOTMpOyIgZD0iTSAxIDUgTCAxMSAxMCBMIDEgMTUgWiIvPjwvbWFya2VyPjxtYXJrZXIgb3JpZW50PSJhdXRvIiBtYXJrZXJIZWlnaHQ9IjEwIiBtYXJrZXJXaWR0aD0iMTAiIHJlZlk9IjEwIiByZWZYPSIxMSIgdmlld0JveD0iMCAwIDIwIDIwIiBpZD0iY2FjYW8tbWFya2VyLV82NTA0QzEiPjxwYXRoIHN0eWxlPSJmaWxsOiByZ2IoMTAxLCA0LCAxOTMpOyIgZD0iTSAxIDUgTCAxMSAxMCBMIDEgMTUgWiIvPjwvbWFya2VyPjxtYXJrZXIgb3JpZW50PSJhdXRvIiBtYXJrZXJIZWlnaHQ9IjEwIiBtYXJrZXJXaWR0aD0iMTAiIHJlZlk9IjEwIiByZWZYPSIxMSIgdmlld0JveD0iMCAwIDIwIDIwIiBpZD0iY2FjYW8tbWFya2VyLV82NTA0QzEiPjxwYXRoIHN0eWxlPSJmaWxsOiByZ2IoMTAxLCA0LCAxOTMpOyIgZD0iTSAxIDUgTCAxMSAxMCBMIDEgMTUgWiIvPjwvbWFya2VyPjxtYXJrZXIgb3JpZW50PSJhdXRvIiBtYXJrZXJIZWlnaHQ9IjEwIiBtYXJrZXJXaWR0aD0iMTAiIHJlZlk9IjEwIiByZWZYPSIxMSIgdmlld0JveD0iMCAwIDIwIDIwIiBpZD0iY2FjYW8tbWFya2VyLV82NTA0QzEiPjxwYXRoIHN0eWxlPSJmaWxsOiByZ2IoMTAxLCA0LCAxOTMpOyIgZD0iTSAxIDUgTCAxMSAxMCBMIDEgMTUgWiIvPjwvbWFya2VyPjxtYXJrZXIgb3JpZW50PSJhdXRvIiBtYXJrZXJIZWlnaHQ9IjEwIiBtYXJrZXJXaWR0aD0iMTAiIHJlZlk9IjEwIiByZWZYPSIxMSIgdmlld0JveD0iMCAwIDIwIDIwIiBpZD0iY2FjYW8tbWFya2VyLV82NTA0QzEiPjxwYXRoIHN0eWxlPSJmaWxsOiByZ2IoMTAxLCA0LCAxOTMpOyIgZD0iTSAxIDUgTCAxMSAxMCBMIDEgMTUgWiIvPjwvbWFya2VyPjxtYXJrZXIgb3JpZW50PSJhdXRvIiBtYXJrZXJIZWlnaHQ9IjEwIiBtYXJrZXJXaWR0aD0iMTAiIHJlZlk9IjEwIiByZWZYPSIxMSIgdmlld0JveD0iMCAwIDIwIDIwIiBpZD0iY2FjYW8tbWFya2VyLV82NTA0QzEiPjxwYXRoIHN0eWxlPSJmaWxsOiByZ2IoMTAxLCA0LCAxOTMpOyIgZD0iTSAxIDUgTCAxMSAxMCBMIDEgMTUgWiIvPjwvbWFya2VyPjxtYXJrZXIgb3JpZW50PSJhdXRvIiBtYXJrZXJIZWlnaHQ9IjEwIiBtYXJrZXJXaWR0aD0iMTAiIHJlZlk9IjEwIiByZWZYPSIxMSIgdmlld0JveD0iMCAwIDIwIDIwIiBpZD0iY2FjYW8tbWFya2VyLV82NTA0QzEiPjxwYXRoIHN0eWxlPSJmaWxsOiByZ2IoMTAxLCA0LCAxOTMpOyIgZD0iTSAxIDUgTCAxMSAxMCBMIDEgMTUgWiIvPjwvbWFya2VyPjxtYXJrZXIgb3JpZW50PSJhdXRvIiBtYXJrZXJIZWlnaHQ9IjEwIiBtYXJrZXJXaWR0aD0iMTAiIHJlZlk9IjEwIiByZWZYPSIxMSIgdmlld0JveD0iMCAwIDIwIDIwIiBpZD0iY2FjYW8tbWFya2VyLV82NTA0QzEiPjxwYXRoIHN0eWxlPSJmaWxsOiByZ2IoMTAxLCA0LCAxOTMpOyIgZD0iTSAxIDUgTCAxMSAxMCBMIDEgMTUgWiIvPjwvbWFya2VyPjxtYXJrZXIgb3JpZW50PSJhdXRvIiBtYXJrZXJIZWlnaHQ9IjEwIiBtYXJrZXJXaWR0aD0iMTAiIHJlZlk9IjEwIiByZWZYPSIxMSIgdmlld0JveD0iMCAwIDIwIDIwIiBpZD0iY2FjYW8tbWFya2VyLV82NTA0QzEiPjxwYXRoIHN0eWxlPSJmaWxsOiByZ2IoMTAxLCA0LCAxOTMpOyIgZD0iTSAxIDUgTCAxMSAxMCBMIDEgMTUgWiIvPjwvbWFya2VyPjxtYXJrZXIgb3JpZW50PSJhdXRvIiBtYXJrZXJIZWlnaHQ9IjEwIiBtYXJrZXJXaWR0aD0iMTAiIHJlZlk9IjEwIiByZWZYPSIxMSIgdmlld0JveD0iMCAwIDIwIDIwIiBpZD0iY2FjYW8tbWFya2VyLV82NTA0QzEiPjxwYXRoIHN0eWxlPSJmaWxsOiByZ2IoMTAxLCA0LCAxOTMpOyIgZD0iTSAxIDUgTCAxMSAxMCBMIDEgMTUgWiIvPjwvbWFya2VyPjxtYXJrZXIgb3JpZW50PSJhdXRvIiBtYXJrZXJIZWlnaHQ9IjEwIiBtYXJrZXJXaWR0aD0iMTAiIHJlZlk9IjEwIiByZWZYPSIxMSIgdmlld0JveD0iMCAwIDIwIDIwIiBpZD0iY2FjYW8tbWFya2VyLV82NTA0QzEiPjxwYXRoIHN0eWxlPSJmaWxsOiByZ2IoMTAxLCA0LCAxOTMpOyIgZD0iTSAxIDUgTCAxMSAxMCBMIDEgMTUgWiIvPjwvbWFya2VyPjxtYXJrZXIgb3JpZW50PSJhdXRvIiBtYXJrZXJIZWlnaHQ9IjEwIiBtYXJrZXJXaWR0aD0iMTAiIHJlZlk9IjEwIiByZWZYPSIxMSIgdmlld0JveD0iMCAwIDIwIDIwIiBpZD0iY2FjYW8tbWFya2VyLV82NTA0QzEiPjxwYXRoIHN0eWxlPSJmaWxsOiByZ2IoMTAxLCA0LCAxOTMpOyIgZD0iTSAxIDUgTCAxMSAxMCBMIDEgMTUgWiIvPjwvbWFya2VyPjxtYXJrZXIgb3JpZW50PSJhdXRvIiBtYXJrZXJIZWlnaHQ9IjEwIiBtYXJrZXJXaWR0aD0iMTAiIHJlZlk9IjEwIiByZWZYPSIxMSIgdmlld0JveD0iMCAwIDIwIDIwIiBpZD0iY2FjYW8tbWFya2VyLV82NTA0QzEiPjxwYXRoIHN0eWxlPSJmaWxsOiByZ2IoMTAxLCA0LCAxOTMpOyIgZD0iTSAxIDUgTCAxMSAxMCBMIDEgMTUgWiIvPjwvbWFya2VyPjxtYXJrZXIgb3JpZW50PSJhdXRvIiBtYXJrZXJIZWlnaHQ9IjEwIiBtYXJrZXJXaWR0aD0iMTAiIHJlZlk9IjEwIiByZWZYPSIxMSIgdmlld0JveD0iMCAwIDIwIDIwIiBpZD0iY2FjYW8tbWFya2VyLV82NTA0QzEiPjxwYXRoIHN0eWxlPSJmaWxsOiByZ2IoMTAxLCA0LCAxOTMpOyIgZD0iTSAxIDUgTCAxMSAxMCBMIDEgMTUgWiIvPjwvbWFya2VyPjxtYXJrZXIgb3JpZW50PSJhdXRvIiBtYXJrZXJIZWlnaHQ9IjEwIiBtYXJrZXJXaWR0aD0iMTAiIHJlZlk9IjEwIiByZWZYPSIxMSIgdmlld0JveD0iMCAwIDIwIDIwIiBpZD0iY2FjYW8tbWFya2VyLV82NTA0QzEiPjxwYXRoIHN0eWxlPSJmaWxsOiByZ2IoMTAxLCA0LCAxOTMpOyIgZD0iTSAxIDUgTCAxMSAxMCBMIDEgMTUgWiIvPjwvbWFya2VyPjxtYXJrZXIgb3JpZW50PSJhdXRvIiBtYXJrZXJIZWlnaHQ9IjEwIiBtYXJrZXJXaWR0aD0iMTAiIHJlZlk9IjEwIiByZWZYPSIxMSIgdmlld0JveD0iMCAwIDIwIDIwIiBpZD0iY2FjYW8tbWFya2VyLV82NTA0QzEiPjxwYXRoIHN0eWxlPSJmaWxsOiByZ2IoMTAxLCA0LCAxOTMpOyIgZD0iTSAxIDUgTCAxMSAxMCBMIDEgMTUgWiIvPjwvbWFya2VyPjxtYXJrZXIgb3JpZW50PSJhdXRvIiBtYXJrZXJIZWlnaHQ9IjEwIiBtYXJrZXJXaWR0aD0iMTAiIHJlZlk9IjEwIiByZWZYPSIxMSIgdmlld0JveD0iMCAwIDIwIDIwIiBpZD0iY2FjYW8tbWFya2VyLV82NTA0QzEiPjxwYXRoIHN0eWxlPSJmaWxsOiByZ2IoMTAxLCA0LCAxOTMpOyIgZD0iTSAxIDUgTCAxMSAxMCBMIDEgMTUgWiIvPjwvbWFya2VyPjxtYXJrZXIgb3JpZW50PSJhdXRvIiBtYXJrZXJIZWlnaHQ9IjEwIiBtYXJrZXJXaWR0aD0iMTAiIHJlZlk9IjEwIiByZWZYPSIxMSIgdmlld0JveD0iMCAwIDIwIDIwIiBpZD0iY2FjYW8tbWFya2VyLV82NTA0QzEiPjxwYXRoIHN0eWxlPSJmaWxsOiByZ2IoMTAxLCA0LCAxOTMpOyIgZD0iTSAxIDUgTCAxMSAxMCBMIDEgMTUgWiIvPjwvbWFya2VyPjxtYXJrZXIgb3JpZW50PSJhdXRvIiBtYXJrZXJIZWlnaHQ9IjEwIiBtYXJrZXJXaWR0aD0iMTAiIHJlZlk9IjEwIiByZWZYPSIxMSIgdmlld0JveD0iMCAwIDIwIDIwIiBpZD0iY2FjYW8tbWFya2VyLV82NTA0QzEiPjxwYXRoIHN0eWxlPSJmaWxsOiByZ2IoMTAxLCA0LCAxOTMpOyIgZD0iTSAxIDUgTCAxMSAxMCBMIDEgMTUgWiIvPjwvbWFya2VyPjxtYXJrZXIgb3JpZW50PSJhdXRvIiBtYXJrZXJIZWlnaHQ9IjEwIiBtYXJrZXJXaWR0aD0iMTAiIHJlZlk9IjEwIiByZWZYPSIxMSIgdmlld0JveD0iMCAwIDIwIDIwIiBpZD0iY2FjYW8tbWFya2VyLV82NTA0QzEiPjxwYXRoIHN0eWxlPSJmaWxsOiByZ2IoMTAxLCA0LCAxOTMpOyIgZD0iTSAxIDUgTCAxMSAxMCBMIDEgMTUgWiIvPjwvbWFya2VyPjxtYXJrZXIgb3JpZW50PSJhdXRvIiBtYXJrZXJIZWlnaHQ9IjEwIiBtYXJrZXJXaWR0aD0iMTAiIHJlZlk9IjEwIiByZWZYPSIxMSIgdmlld0JveD0iMCAwIDIwIDIwIiBpZD0iY2FjYW8tbWFya2VyLV82NTA0QzEiPjxwYXRoIHN0eWxlPSJmaWxsOiByZ2IoMTAxLCA0LCAxOTMpOyIgZD0iTSAxIDUgTCAxMSAxMCBMIDEgMTUgWiIvPjwvbWFya2VyPjxtYXJrZXIgb3JpZW50PSJhdXRvIiBtYXJrZXJIZWlnaHQ9IjEwIiBtYXJrZXJXaWR0aD0iMTAiIHJlZlk9IjEwIiByZWZYPSIxMSIgdmlld0JveD0iMCAwIDIwIDIwIiBpZD0iY2FjYW8tbWFya2VyLWJsYWNrIj48cGF0aCBzdHlsZT0iZmlsbDogYmxhY2s7IiBkPSJNIDEgNSBMIDExIDEwIEwgMSAxNSBaIi8+PC9tYXJrZXI+PG1hcmtlciBvcmllbnQ9ImF1dG8iIG1hcmtlckhlaWdodD0iMTAiIG1hcmtlcldpZHRoPSIxMCIgcmVmWT0iMTAiIHJlZlg9IjExIiB2aWV3Qm94PSIwIDAgMjAgMjAiIGlkPSJjYWNhby1tYXJrZXItYmxhY2siPjxwYXRoIHN0eWxlPSJmaWxsOiBibGFjazsiIGQ9Ik0gMSA1IEwgMTEgMTAgTCAxIDE1IFoiLz48L21hcmtlcj48bWFya2VyIG9yaWVudD0iYXV0byIgbWFya2VySGVpZ2h0PSIxMCIgbWFya2VyV2lkdGg9IjEwIiByZWZZPSIxMCIgcmVmWD0iMTEiIHZpZXdCb3g9IjAgMCAyMCAyMCIgaWQ9ImNhY2FvLW1hcmtlci1ibGFjayI+PHBhdGggc3R5bGU9ImZpbGw6IGJsYWNrOyIgZD0iTSAxIDUgTCAxMSAxMCBMIDEgMTUgWiIvPjwvbWFya2VyPjxtYXJrZXIgb3JpZW50PSJhdXRvIiBtYXJrZXJIZWlnaHQ9IjEwIiBtYXJrZXJXaWR0aD0iMTAiIHJlZlk9IjEwIiByZWZYPSIxMSIgdmlld0JveD0iMCAwIDIwIDIwIiBpZD0iY2FjYW8tbWFya2VyLV9BQzdGMEMiPjxwYXRoIHN0eWxlPSJmaWxsOiByZ2IoMTcyLCAxMjcsIDEyKTsiIGQ9Ik0gMSA1IEwgMTEgMTAgTCAxIDE1IFoiLz48L21hcmtlcj48bWFya2VyIG9yaWVudD0iYXV0byIgbWFya2VySGVpZ2h0PSIxMCIgbWFya2VyV2lkdGg9IjEwIiByZWZZPSIxMCIgcmVmWD0iMTEiIHZpZXdCb3g9IjAgMCAyMCAyMCIgaWQ9ImNhY2FvLW1hcmtlci1ibGFjayI+PHBhdGggc3R5bGU9ImZpbGw6IGJsYWNrOyIgZD0iTSAxIDUgTCAxMSAxMCBMIDEgMTUgWiIvPjwvbWFya2VyPjxtYXJrZXIgb3JpZW50PSJhdXRvIiBtYXJrZXJIZWlnaHQ9IjEwIiBtYXJrZXJXaWR0aD0iMTAiIHJlZlk9IjEwIiByZWZYPSIxMSIgdmlld0JveD0iMCAwIDIwIDIwIiBpZD0iY2FjYW8tbWFya2VyLWJsYWNrIj48cGF0aCBzdHlsZT0iZmlsbDogYmxhY2s7IiBkPSJNIDEgNSBMIDExIDEwIEwgMSAxNSBaIi8+PC9tYXJrZXI+PG1hcmtlciBvcmllbnQ9ImF1dG8iIG1hcmtlckhlaWdodD0iMTAiIG1hcmtlcldpZHRoPSIxMCIgcmVmWT0iMTAiIHJlZlg9IjExIiB2aWV3Qm94PSIwIDAgMjAgMjAiIGlkPSJjYWNhby1tYXJrZXItYmxhY2siPjxwYXRoIHN0eWxlPSJmaWxsOiBibGFjazsiIGQ9Ik0gMSA1IEwgMTEgMTAgTCAxIDE1IFoiLz48L21hcmtlcj48bWFya2VyIG9yaWVudD0iYXV0byIgbWFya2VySGVpZ2h0PSIxMCIgbWFya2VyV2lkdGg9IjEwIiByZWZZPSIxMCIgcmVmWD0iMTEiIHZpZXdCb3g9IjAgMCAyMCAyMCIgaWQ9ImNhY2FvLW1hcmtlci1ibGFjayI+PHBhdGggc3R5bGU9ImZpbGw6IGJsYWNrOyIgZD0iTSAxIDUgTCAxMSAxMCBMIDEgMTUgWiIvPjwvbWFya2VyPjwvZGVmcz48ZyBjbGFzcz0iZGpzLWdyb3VwIj48ZyBzdHlsZT0iZGlzcGxheTogYmxvY2s7IiBkYXRhLWVsZW1lbnQtaWQ9ImNvbm5lY3Rpb25fMjQiIGNsYXNzPSJkanMtZWxlbWVudCBkanMtY29ubmVjdGlvbiI+PGcgY2xhc3M9ImRqcy12aXN1YWwiPjxwYXRoIGQ9Ik0xMjY1LDcyMEwxMDc1LDcyMEMxMDcyLjUsNzIwLDEwNzAsNzE3LjUsMTA3MCw3MTVMMTA3MCw2NzAiIHN0eWxlPSJzdHJva2U6IGJsYWNrOyBzdHJva2Utd2lkdGg6IDFweDsgc3Ryb2tlLW9wYWNpdHk6IDE7IHN0cm9rZS1saW5lY2FwOiByb3VuZDsgc3Ryb2tlLWxpbmVqb2luOiByb3VuZDsgZmlsbDogd2hpdGU7IGZpbGwtb3BhY2l0eTogMDsgbWFya2VyLWVuZDogdXJsKCcjY2FjYW8tbWFya2VyLWJsYWNrJyk7IiBkYXRhLWNvcm5lci1yYWRpdXM9IjUiLz48dGV4dCB0cmFuc2Zvcm09Im1hdHJpeCgxIDAgMCAxIDExNDUuNjEgNjgzLjQ0KSIgc3R5bGU9InN0cm9rZTogYmxhY2s7IHN0cm9rZS13aWR0aDogMXB4OyBzdHJva2Utb3BhY2l0eTogMDsgc3Ryb2tlLWxpbmVjYXA6IHJvdW5kOyBzdHJva2UtbGluZWpvaW46IHJvdW5kOyBmaWxsOiBibGFjazsgZmlsbC1vcGFjaXR5OiAxOyBmb250LWZhbWlseTogcG9wcGlucywgc2Fucy1zZXJpZjsgZm9udC1zaXplOiAxMXB4OyBmb250LXdlaWdodDogMjAwOyIgY2xhc3M9ImRqcy1sYWJlbCI+PHRzcGFuIHk9IjI3Ljc1IiB4PSIzNS42MTMwOTQzMjk4MzM5ODQiPm9uIGNvbXBsZXRpb248L3RzcGFuPjwvdGV4dD48L2c+PHBhdGggc3R5bGU9ImZpbGw6IG5vbmU7IHN0cm9rZS1vcGFjaXR5OiAwOyBzdHJva2U6IHdoaXRlOyBzdHJva2Utd2lkdGg6IDE1cHg7IiBjbGFzcz0iZGpzLWhpdCBkanMtaGl0LXN0cm9rZSIgZD0iTTEyNjUsNzIwTDEwNzAsNzIwTDEwNzAsNjcwIi8+PHJlY3Qgc3R5bGU9ImZpbGw6IG5vbmU7IiBjbGFzcz0iZGpzLW91dGxpbmUiIGhlaWdodD0iNjIiIHdpZHRoPSIyMDciIHJ4PSI0IiB5PSI2NjQiIHg9IjEwNjQiLz48L2c+PC9nPjxnIGNsYXNzPSJkanMtZ3JvdXAiPjxnIHN0eWxlPSJkaXNwbGF5OiBibG9jazsiIGRhdGEtZWxlbWVudC1pZD0iY29ubmVjdGlvbl8yMyIgY2xhc3M9ImRqcy1lbGVtZW50IGRqcy1jb25uZWN0aW9uIj48ZyBjbGFzcz0iZGpzLXZpc3VhbCI+PHBhdGggZD0iTTEzNzUsNjQwTDE1MDUsNjQwQzE1MDcuNSw2NDAsMTUxMCw2MzcuNSwxNTEwLDYzNUwxNTEwLDU2MCIgc3R5bGU9InN0cm9rZTogYmxhY2s7IHN0cm9rZS13aWR0aDogMXB4OyBzdHJva2Utb3BhY2l0eTogMTsgc3Ryb2tlLWxpbmVjYXA6IHJvdW5kOyBzdHJva2UtbGluZWpvaW46IHJvdW5kOyBmaWxsOiB3aGl0ZTsgZmlsbC1vcGFjaXR5OiAwOyBtYXJrZXItZW5kOiB1cmwoJyNjYWNhby1tYXJrZXItYmxhY2snKTsiIGRhdGEtY29ybmVyLXJhZGl1cz0iNSIvPjx0ZXh0IHRyYW5zZm9ybT0ibWF0cml4KDEgMCAwIDEgMTM0NC4zOSA2MDMuNDQpIiBzdHlsZT0ic3Ryb2tlOiBibGFjazsgc3Ryb2tlLXdpZHRoOiAxcHg7IHN0cm9rZS1vcGFjaXR5OiAwOyBzdHJva2UtbGluZWNhcDogcm91bmQ7IHN0cm9rZS1saW5lam9pbjogcm91bmQ7IGZpbGw6IGJsYWNrOyBmaWxsLW9wYWNpdHk6IDE7IGZvbnQtZmFtaWx5OiBwb3BwaW5zLCBzYW5zLXNlcmlmOyBmb250LXNpemU6IDExcHg7IGZvbnQtd2VpZ2h0OiAyMDA7IiBjbGFzcz0iZGpzLWxhYmVsIj48dHNwYW4geT0iMjcuNzUiIHg9IjM1LjYxMzA5NDMyOTgzMzk4NCI+b24gY29tcGxldGlvbjwvdHNwYW4+PC90ZXh0PjwvZz48cGF0aCBzdHlsZT0iZmlsbDogbm9uZTsgc3Ryb2tlLW9wYWNpdHk6IDA7IHN0cm9rZTogd2hpdGU7IHN0cm9rZS13aWR0aDogMTVweDsiIGNsYXNzPSJkanMtaGl0IGRqcy1oaXQtc3Ryb2tlIiBkPSJNMTM3NSw2NDBMMTUxMCw2NDBMMTUxMCw1NjAiLz48cmVjdCBzdHlsZT0iZmlsbDogbm9uZTsiIGNsYXNzPSJkanMtb3V0bGluZSIgaGVpZ2h0PSI5MiIgd2lkdGg9IjE0NyIgcng9IjQiIHk9IjU1NCIgeD0iMTM2OSIvPjwvZz48L2c+PGcgY2xhc3M9ImRqcy1ncm91cCI+PGcgc3R5bGU9ImRpc3BsYXk6IGJsb2NrOyIgZGF0YS1lbGVtZW50LWlkPSJjb25uZWN0aW9uXzIyIiBjbGFzcz0iZGpzLWVsZW1lbnQgZGpzLWNvbm5lY3Rpb24iPjxnIGNsYXNzPSJkanMtdmlzdWFsIj48cGF0aCBkPSJNMTM3NSw1NDBMMTQ4MCw1NDAiIHN0eWxlPSJzdHJva2U6IGJsYWNrOyBzdHJva2Utd2lkdGg6IDFweDsgc3Ryb2tlLW9wYWNpdHk6IDE7IHN0cm9rZS1saW5lY2FwOiByb3VuZDsgc3Ryb2tlLWxpbmVqb2luOiByb3VuZDsgZmlsbDogd2hpdGU7IGZpbGwtb3BhY2l0eTogMDsgbWFya2VyLWVuZDogdXJsKCcjY2FjYW8tbWFya2VyLWJsYWNrJyk7IiBkYXRhLWNvcm5lci1yYWRpdXM9IjUiLz48dGV4dCB0cmFuc2Zvcm09Im1hdHJpeCgxIDAgMCAxIDEzNDQuMzkgNTAzLjQ0KSIgc3R5bGU9InN0cm9rZTogYmxhY2s7IHN0cm9rZS13aWR0aDogMXB4OyBzdHJva2Utb3BhY2l0eTogMDsgc3Ryb2tlLWxpbmVjYXA6IHJvdW5kOyBzdHJva2UtbGluZWpvaW46IHJvdW5kOyBmaWxsOiBibGFjazsgZmlsbC1vcGFjaXR5OiAxOyBmb250LWZhbWlseTogcG9wcGlucywgc2Fucy1zZXJpZjsgZm9udC1zaXplOiAxMXB4OyBmb250LXdlaWdodDogMjAwOyIgY2xhc3M9ImRqcy1sYWJlbCI+PHRzcGFuIHk9IjI3Ljc1IiB4PSIzNS42MTMwOTQzMjk4MzM5ODQiPm9uIGNvbXBsZXRpb248L3RzcGFuPjwvdGV4dD48L2c+PHBhdGggc3R5bGU9ImZpbGw6IG5vbmU7IHN0cm9rZS1vcGFjaXR5OiAwOyBzdHJva2U6IHdoaXRlOyBzdHJva2Utd2lkdGg6IDE1cHg7IiBjbGFzcz0iZGpzLWhpdCBkanMtaGl0LXN0cm9rZSIgZD0iTTEzNzUsNTQwTDE0ODAsNTQwIi8+PHJlY3Qgc3R5bGU9ImZpbGw6IG5vbmU7IiBjbGFzcz0iZGpzLW91dGxpbmUiIGhlaWdodD0iMTIiIHdpZHRoPSIxMTciIHJ4PSI0IiB5PSI1MzQiIHg9IjEzNjkiLz48L2c+PC9nPjxnIGNsYXNzPSJkanMtZ3JvdXAiPjxnIHN0eWxlPSJkaXNwbGF5OiBibG9jazsiIGRhdGEtZWxlbWVudC1pZD0iY29ubmVjdGlvbl8yMSIgY2xhc3M9ImRqcy1lbGVtZW50IGRqcy1jb25uZWN0aW9uIj48ZyBjbGFzcz0iZGpzLXZpc3VhbCI+PHBhdGggZD0iTTEwNzAsNjcwTDEwNzAsNjg1QzEwNzAsNjg3LjUsMTA3Mi41LDY5MCwxMDc1LDY5MEwxMjY1LDY5MCIgc3R5bGU9InN0cm9rZTogcmdiKDEwMSwgNCwgMTkzKTsgc3Ryb2tlLXdpZHRoOiAxcHg7IHN0cm9rZS1vcGFjaXR5OiAxOyBzdHJva2UtbGluZWNhcDogcm91bmQ7IHN0cm9rZS1saW5lam9pbjogcm91bmQ7IGZpbGw6IHdoaXRlOyBmaWxsLW9wYWNpdHk6IDA7IG1hcmtlci1lbmQ6IHVybCgnI2NhY2FvLW1hcmtlci1fNjUwNEMxJyk7IiBkYXRhLWNvcm5lci1yYWRpdXM9IjUiLz48dGV4dCB0cmFuc2Zvcm09Im1hdHJpeCgxIDAgMCAxIDExNjUuNzggNjUzLjQ0KSIgc3R5bGU9InN0cm9rZTogcmdiKDEwMSwgNCwgMTkzKTsgc3Ryb2tlLXdpZHRoOiAxcHg7IHN0cm9rZS1vcGFjaXR5OiAwOyBzdHJva2UtbGluZWNhcDogcm91bmQ7IHN0cm9rZS1saW5lam9pbjogcm91bmQ7IGZpbGw6IHJnYigxMDEsIDQsIDE5Myk7IGZpbGwtb3BhY2l0eTogMTsgZm9udC1mYW1pbHk6IHBvcHBpbnMsIHNhbnMtc2VyaWY7IGZvbnQtc2l6ZTogMTFweDsgZm9udC13ZWlnaHQ6IDIwMDsiIGNsYXNzPSJkanMtbGFiZWwiPjx0c3BhbiB5PSIyNy43NSIgeD0iNTUuNzc5NzYyMjY4MDY2NDA2Ij5vbiB0cnVlPC90c3Bhbj48L3RleHQ+PC9nPjxwYXRoIHN0eWxlPSJmaWxsOiBub25lOyBzdHJva2Utb3BhY2l0eTogMDsgc3Ryb2tlOiB3aGl0ZTsgc3Ryb2tlLXdpZHRoOiAxNXB4OyIgY2xhc3M9ImRqcy1oaXQgZGpzLWhpdC1zdHJva2UiIGQ9Ik0xMDcwLDY3MEwxMDcwLDY5MEwxMjY1LDY5MCIvPjxyZWN0IHN0eWxlPSJmaWxsOiBub25lOyIgY2xhc3M9ImRqcy1vdXRsaW5lIiBoZWlnaHQ9IjMyIiB3aWR0aD0iMjA3IiByeD0iNCIgeT0iNjY0IiB4PSIxMDY0Ii8+PC9nPjwvZz48ZyBjbGFzcz0iZGpzLWdyb3VwIj48ZyBzdHlsZT0iZGlzcGxheTogYmxvY2s7IiBkYXRhLWVsZW1lbnQtaWQ9ImNvbm5lY3Rpb25fMjAiIGNsYXNzPSJkanMtZWxlbWVudCBkanMtY29ubmVjdGlvbiI+PGcgY2xhc3M9ImRqcy12aXN1YWwiPjxwYXRoIGQ9Ik0xMTMwLDY0MEwxMjI1LDY0MCIgc3R5bGU9InN0cm9rZTogYmxhY2s7IHN0cm9rZS13aWR0aDogMXB4OyBzdHJva2Utb3BhY2l0eTogMTsgc3Ryb2tlLWxpbmVjYXA6IHJvdW5kOyBzdHJva2UtbGluZWpvaW46IHJvdW5kOyBmaWxsOiB3aGl0ZTsgZmlsbC1vcGFjaXR5OiAwOyBtYXJrZXItZW5kOiB1cmwoJyNjYWNhby1tYXJrZXItYmxhY2snKTsiIGRhdGEtY29ybmVyLXJhZGl1cz0iNSIvPjx0ZXh0IHRyYW5zZm9ybT0ibWF0cml4KDEgMCAwIDEgMTA5OS4zOSA2MDMuNDQpIiBzdHlsZT0ic3Ryb2tlOiBibGFjazsgc3Ryb2tlLXdpZHRoOiAxcHg7IHN0cm9rZS1vcGFjaXR5OiAwOyBzdHJva2UtbGluZWNhcDogcm91bmQ7IHN0cm9rZS1saW5lam9pbjogcm91bmQ7IGZpbGw6IGJsYWNrOyBmaWxsLW9wYWNpdHk6IDE7IGZvbnQtZmFtaWx5OiBwb3BwaW5zLCBzYW5zLXNlcmlmOyBmb250LXNpemU6IDExcHg7IGZvbnQtd2VpZ2h0OiAyMDA7IiBjbGFzcz0iZGpzLWxhYmVsIj48dHNwYW4geT0iMjcuNzUiIHg9IjM1LjYxMzA5NDMyOTgzMzk4NCI+b24gY29tcGxldGlvbjwvdHNwYW4+PC90ZXh0PjwvZz48cGF0aCBzdHlsZT0iZmlsbDogbm9uZTsgc3Ryb2tlLW9wYWNpdHk6IDA7IHN0cm9rZTogd2hpdGU7IHN0cm9rZS13aWR0aDogMTVweDsiIGNsYXNzPSJkanMtaGl0IGRqcy1oaXQtc3Ryb2tlIiBkPSJNMTEzMCw2NDBMMTIyNSw2NDAiLz48cmVjdCBzdHlsZT0iZmlsbDogbm9uZTsiIGNsYXNzPSJkanMtb3V0bGluZSIgaGVpZ2h0PSIxMiIgd2lkdGg9IjEwNyIgcng9IjQiIHk9IjYzNCIgeD0iMTEyNCIvPjwvZz48L2c+PGcgY2xhc3M9ImRqcy1ncm91cCI+PGcgc3R5bGU9ImRpc3BsYXk6IGJsb2NrOyIgZGF0YS1lbGVtZW50LWlkPSJjb25uZWN0aW9uXzE5IiBjbGFzcz0iZGpzLWVsZW1lbnQgZGpzLWNvbm5lY3Rpb24iPjxnIGNsYXNzPSJkanMtdmlzdWFsIj48cGF0aCBkPSJNMTA3NSw1NDBMMTIyNSw1NDAiIHN0eWxlPSJzdHJva2U6IGJsYWNrOyBzdHJva2Utd2lkdGg6IDFweDsgc3Ryb2tlLW9wYWNpdHk6IDE7IHN0cm9rZS1saW5lY2FwOiByb3VuZDsgc3Ryb2tlLWxpbmVqb2luOiByb3VuZDsgZmlsbDogd2hpdGU7IGZpbGwtb3BhY2l0eTogMDsgbWFya2VyLWVuZDogdXJsKCcjY2FjYW8tbWFya2VyLWJsYWNrJyk7IiBkYXRhLWNvcm5lci1yYWRpdXM9IjUiLz48dGV4dCB0cmFuc2Zvcm09Im1hdHJpeCgxIDAgMCAxIDEwNDQuMzkgNTAzLjQ0KSIgc3R5bGU9InN0cm9rZTogYmxhY2s7IHN0cm9rZS13aWR0aDogMXB4OyBzdHJva2Utb3BhY2l0eTogMDsgc3Ryb2tlLWxpbmVjYXA6IHJvdW5kOyBzdHJva2UtbGluZWpvaW46IHJvdW5kOyBmaWxsOiBibGFjazsgZmlsbC1vcGFjaXR5OiAxOyBmb250LWZhbWlseTogcG9wcGlucywgc2Fucy1zZXJpZjsgZm9udC1zaXplOiAxMXB4OyBmb250LXdlaWdodDogMjAwOyIgY2xhc3M9ImRqcy1sYWJlbCI+PHRzcGFuIHk9IjI3Ljc1IiB4PSIzNS42MTMwOTQzMjk4MzM5ODQiPm9uIGNvbXBsZXRpb248L3RzcGFuPjwvdGV4dD48L2c+PHBhdGggc3R5bGU9ImZpbGw6IG5vbmU7IHN0cm9rZS1vcGFjaXR5OiAwOyBzdHJva2U6IHdoaXRlOyBzdHJva2Utd2lkdGg6IDE1cHg7IiBjbGFzcz0iZGpzLWhpdCBkanMtaGl0LXN0cm9rZSIgZD0iTTEwNzUsNTQwTDEyMjUsNTQwIi8+PHJlY3Qgc3R5bGU9ImZpbGw6IG5vbmU7IiBjbGFzcz0iZGpzLW91dGxpbmUiIGhlaWdodD0iMTIiIHdpZHRoPSIxNjIiIHJ4PSI0IiB5PSI1MzQiIHg9IjEwNjkiLz48L2c+PC9nPjxnIGNsYXNzPSJkanMtZ3JvdXAiPjxnIHN0eWxlPSJkaXNwbGF5OiBibG9jazsiIGRhdGEtZWxlbWVudC1pZD0iY29ubmVjdGlvbl8xOCIgY2xhc3M9ImRqcy1lbGVtZW50IGRqcy1jb25uZWN0aW9uIj48ZyBjbGFzcz0iZGpzLXZpc3VhbCI+PHBhdGggZD0iTTg3NSw2NDBMMTAxMCw2NDAiIHN0eWxlPSJzdHJva2U6IHJnYigxNzIsIDEyNywgMTIpOyBzdHJva2Utd2lkdGg6IDFweDsgc3Ryb2tlLW9wYWNpdHk6IDE7IHN0cm9rZS1saW5lY2FwOiByb3VuZDsgc3Ryb2tlLWxpbmVqb2luOiByb3VuZDsgZmlsbDogd2hpdGU7IGZpbGwtb3BhY2l0eTogMDsgbWFya2VyLWVuZDogdXJsKCcjY2FjYW8tbWFya2VyLV9BQzdGMEMnKTsiIGRhdGEtY29ybmVyLXJhZGl1cz0iNSIvPjwvZz48cGF0aCBzdHlsZT0iZmlsbDogbm9uZTsgc3Ryb2tlLW9wYWNpdHk6IDA7IHN0cm9rZTogd2hpdGU7IHN0cm9rZS13aWR0aDogMTVweDsiIGNsYXNzPSJkanMtaGl0IGRqcy1oaXQtc3Ryb2tlIiBkPSJNODc1LDY0MEwxMDEwLDY0MCIvPjxyZWN0IHN0eWxlPSJmaWxsOiBub25lOyIgY2xhc3M9ImRqcy1vdXRsaW5lIiBoZWlnaHQ9IjEyIiB3aWR0aD0iMTQ3IiByeD0iNCIgeT0iNjM0IiB4PSI4NjkiLz48L2c+PC9nPjxnIGNsYXNzPSJkanMtZ3JvdXAiPjxnIHN0eWxlPSJkaXNwbGF5OiBibG9jazsiIGRhdGEtZWxlbWVudC1pZD0iY29ubmVjdGlvbl8xNyIgY2xhc3M9ImRqcy1lbGVtZW50IGRqcy1jb25uZWN0aW9uIj48ZyBjbGFzcz0iZGpzLXZpc3VhbCI+PHBhdGggZD0iTTg3NSw2NDBMOTQ1LDY0MEM5NDcuNSw2NDAsOTUwLDYzNy41LDk1MCw2MzVMOTUwLDU3MCIgc3R5bGU9InN0cm9rZTogcmdiKDE3MiwgMTI3LCAxMik7IHN0cm9rZS13aWR0aDogMXB4OyBzdHJva2Utb3BhY2l0eTogMTsgc3Ryb2tlLWxpbmVjYXA6IHJvdW5kOyBzdHJva2UtbGluZWpvaW46IHJvdW5kOyBmaWxsOiB3aGl0ZTsgZmlsbC1vcGFjaXR5OiAwOyBtYXJrZXItZW5kOiB1cmwoJyNjYWNhby1tYXJrZXItX0FDN0YwQycpOyIgZGF0YS1jb3JuZXItcmFkaXVzPSI1Ii8+PC9nPjxwYXRoIHN0eWxlPSJmaWxsOiBub25lOyBzdHJva2Utb3BhY2l0eTogMDsgc3Ryb2tlOiB3aGl0ZTsgc3Ryb2tlLXdpZHRoOiAxNXB4OyIgY2xhc3M9ImRqcy1oaXQgZGpzLWhpdC1zdHJva2UiIGQ9Ik04NzUsNjQwTDk1MCw2NDBMOTUwLDU3MCIvPjxyZWN0IHN0eWxlPSJmaWxsOiBub25lOyIgY2xhc3M9ImRqcy1vdXRsaW5lIiBoZWlnaHQ9IjgyIiB3aWR0aD0iODciIHJ4PSI0IiB5PSI1NjQiIHg9Ijg2OSIvPjwvZz48L2c+PGcgY2xhc3M9ImRqcy1ncm91cCI+PGcgc3R5bGU9ImRpc3BsYXk6IGJsb2NrOyIgZGF0YS1lbGVtZW50LWlkPSJjb25uZWN0aW9uXzE2IiBjbGFzcz0iZGpzLWVsZW1lbnQgZGpzLWNvbm5lY3Rpb24iPjxnIGNsYXNzPSJkanMtdmlzdWFsIj48cGF0aCBkPSJNODE1LDU3MEw4MTUsNjEwIiBzdHlsZT0ic3Ryb2tlOiBibGFjazsgc3Ryb2tlLXdpZHRoOiAxcHg7IHN0cm9rZS1vcGFjaXR5OiAxOyBzdHJva2UtbGluZWNhcDogcm91bmQ7IHN0cm9rZS1saW5lam9pbjogcm91bmQ7IGZpbGw6IHdoaXRlOyBmaWxsLW9wYWNpdHk6IDA7IG1hcmtlci1lbmQ6IHVybCgnI2NhY2FvLW1hcmtlci1ibGFjaycpOyIgZGF0YS1jb3JuZXItcmFkaXVzPSI1Ii8+PHRleHQgdHJhbnNmb3JtPSJtYXRyaXgoMSAwIDAgMSA3ODQuMzg3IDU1OC42NzkpIiBzdHlsZT0ic3Ryb2tlOiBibGFjazsgc3Ryb2tlLXdpZHRoOiAxcHg7IHN0cm9rZS1vcGFjaXR5OiAwOyBzdHJva2UtbGluZWNhcDogcm91bmQ7IHN0cm9rZS1saW5lam9pbjogcm91bmQ7IGZpbGw6IGJsYWNrOyBmaWxsLW9wYWNpdHk6IDE7IGZvbnQtZmFtaWx5OiBwb3BwaW5zLCBzYW5zLXNlcmlmOyBmb250LXNpemU6IDExcHg7IGZvbnQtd2VpZ2h0OiAyMDA7IiBjbGFzcz0iZGpzLWxhYmVsIj48dHNwYW4geT0iMjcuNzUiIHg9IjM1LjYxMzA5NDMyOTgzMzk4NCI+b24gY29tcGxldGlvbjwvdHNwYW4+PC90ZXh0PjwvZz48cGF0aCBzdHlsZT0iZmlsbDogbm9uZTsgc3Ryb2tlLW9wYWNpdHk6IDA7IHN0cm9rZTogd2hpdGU7IHN0cm9rZS13aWR0aDogMTVweDsiIGNsYXNzPSJkanMtaGl0IGRqcy1oaXQtc3Ryb2tlIiBkPSJNODE1LDU3MEw4MTUsNjEwIi8+PHJlY3Qgc3R5bGU9ImZpbGw6IG5vbmU7IiBjbGFzcz0iZGpzLW91dGxpbmUiIGhlaWdodD0iNTIiIHdpZHRoPSIxMiIgcng9IjQiIHk9IjU2NCIgeD0iODA5Ii8+PC9nPjwvZz48ZyBjbGFzcz0iZGpzLWdyb3VwIj48ZyBzdHlsZT0iZGlzcGxheTogYmxvY2s7IiBkYXRhLWVsZW1lbnQtaWQ9ImNvbm5lY3Rpb25fMTUiIGNsYXNzPSJkanMtZWxlbWVudCBkanMtY29ubmVjdGlvbiI+PGcgY2xhc3M9ImRqcy12aXN1YWwiPjxwYXRoIGQ9Ik02MzAsNTcwTDY2Ny41MTkzMDUzMDgyMTU4LDYzNS42NTg3ODQyODkzNzc2QzY2OC43NTk2NTI2NTQxMDc5LDYzNy44MjkzOTIxNDQ2ODg5LDY3Mi41LDY0MCw2NzUsNjQwTDc1NSw2NDAiIHN0eWxlPSJzdHJva2U6IHJnYigxMDEsIDQsIDE5Myk7IHN0cm9rZS13aWR0aDogMXB4OyBzdHJva2Utb3BhY2l0eTogMTsgc3Ryb2tlLWxpbmVjYXA6IHJvdW5kOyBzdHJva2UtbGluZWpvaW46IHJvdW5kOyBmaWxsOiB3aGl0ZTsgZmlsbC1vcGFjaXR5OiAwOyBtYXJrZXItZW5kOiB1cmwoJyNjYWNhby1tYXJrZXItXzY1MDRDMScpOyIgZGF0YS1jb3JuZXItcmFkaXVzPSI1Ii8+PHRleHQgdHJhbnNmb3JtPSJtYXRyaXgoMSAwIDAgMSA2NTMuNjc5IDYwMy40NCkiIHN0eWxlPSJzdHJva2U6IHJnYigxMDEsIDQsIDE5Myk7IHN0cm9rZS13aWR0aDogMXB4OyBzdHJva2Utb3BhY2l0eTogMDsgc3Ryb2tlLWxpbmVjYXA6IHJvdW5kOyBzdHJva2UtbGluZWpvaW46IHJvdW5kOyBmaWxsOiByZ2IoMTAxLCA0LCAxOTMpOyBmaWxsLW9wYWNpdHk6IDE7IGZvbnQtZmFtaWx5OiBwb3BwaW5zLCBzYW5zLXNlcmlmOyBmb250LXNpemU6IDExcHg7IGZvbnQtd2VpZ2h0OiAyMDA7IiBjbGFzcz0iZGpzLWxhYmVsIj48dHNwYW4geT0iMjcuNzUiIHg9IjUzLjY3ODU3MTcwMTA0OTgwNSI+b24gZmFsc2U8L3RzcGFuPjwvdGV4dD48L2c+PHBhdGggc3R5bGU9ImZpbGw6IG5vbmU7IHN0cm9rZS1vcGFjaXR5OiAwOyBzdHJva2U6IHdoaXRlOyBzdHJva2Utd2lkdGg6IDE1cHg7IiBjbGFzcz0iZGpzLWhpdCBkanMtaGl0LXN0cm9rZSIgZD0iTTYzMCw1NzBMNjcwLDY0MEw3NTUsNjQwIi8+PHJlY3Qgc3R5bGU9ImZpbGw6IG5vbmU7IiBjbGFzcz0iZGpzLW91dGxpbmUiIGhlaWdodD0iODIiIHdpZHRoPSIxMzciIHJ4PSI0IiB5PSI1NjQiIHg9IjYyNCIvPjwvZz48L2c+PGcgY2xhc3M9ImRqcy1ncm91cCI+PGcgdHJhbnNmb3JtPSJtYXRyaXgoMSAwIDAgMSA3NTUgNjEwKSIgc3R5bGU9ImRpc3BsYXk6IGJsb2NrOyIgZGF0YS1lbGVtZW50LWlkPSJwYXJhbGxlbC0tNDc1NmZiMDYtNTc5OC00OGVhLWI3N2QtMWM2YmYxZDU3MThjIiBjbGFzcz0iZGpzLWVsZW1lbnQgZGpzLXNoYXBlIj48ZyBjbGFzcz0iZGpzLXZpc3VhbCI+PHJlY3Qgc3R5bGU9ImZvbnQtZmFtaWx5OiBBcmlhbCwgc2Fucy1zZXJpZjsgZm9udC1zaXplOiAxMHB4OyBzdHJva2U6IGJsYWNrOyBzdHJva2Utd2lkdGg6IDFweDsgc3Ryb2tlLW9wYWNpdHk6IDA7IGZpbGw6IHdoaXRlOyBmaWxsLW9wYWNpdHk6IDE7IiByeT0iNyIgcng9IjciIGFsaWduPSJjZW50ZXItdG9wIiBoZWlnaHQ9IjYwIiB3aWR0aD0iMTIwIiB5PSIwIiB4PSIwIi8+PHJlY3Qgc3R5bGU9ImZvbnQtZmFtaWx5OiBBcmlhbCwgc2Fucy1zZXJpZjsgZm9udC1zaXplOiAxMHB4OyBzdHJva2U6IGJsYWNrOyBzdHJva2Utd2lkdGg6IDFweDsgc3Ryb2tlLW9wYWNpdHk6IDA7IGZpbGw6IHJnYigxOTksIDE3NCwgMTExKTsgZmlsbC1vcGFjaXR5OiAxOyIgcnk9IjciIHJ4PSI3IiBhbGlnbj0iY2VudGVyLXRvcCIgaGVpZ2h0PSIyMCIgd2lkdGg9IjEyMCIgeT0iMCIgeD0iMCIvPjxyZWN0IHN0eWxlPSJmb250LWZhbWlseTogQXJpYWwsIHNhbnMtc2VyaWY7IGZvbnQtc2l6ZTogMTBweDsgc3Ryb2tlOiBibGFjazsgc3Ryb2tlLXdpZHRoOiAxcHg7IHN0cm9rZS1vcGFjaXR5OiAwOyBmaWxsOiByZ2IoMTk5LCAxNzQsIDExMSk7IGZpbGwtb3BhY2l0eTogMTsiIHJ5PSIwIiByeD0iMCIgYWxpZ249ImNlbnRlci10b3AiIGhlaWdodD0iMTAiIHdpZHRoPSIxMjAiIHk9IjEwIiB4PSIwIi8+PHRleHQgdHJhbnNmb3JtPSJtYXRyaXgoMSAwIDAgMSA3IDApIiBzdHlsZT0iZm9udC1mYW1pbHk6IEFyaWFsLCBzYW5zLXNlcmlmOyBmb250LXNpemU6IDEwcHg7IHN0cm9rZTogYmxhY2s7IHN0cm9rZS13aWR0aDogMXB4OyBzdHJva2Utb3BhY2l0eTogMDsgZmlsbDogd2hpdGU7IGZpbGwtb3BhY2l0eTogMTsiIGNsYXNzPSJkanMtbGFiZWwiIHJ5PSI3IiByeD0iNyIgYWxpZ249ImxlZnQtbWlkZGxlIj48dHNwYW4geT0iMTIuNSIgeD0iMCI+cGFyYWxsZWwgU3RlcDwvdHNwYW4+PC90ZXh0Pjx0ZXh0IHRyYW5zZm9ybT0ibWF0cml4KDEgMCAwIDEgNSAyMCkiIHN0eWxlPSJmb250LWZhbWlseTogQXJpYWwsIHNhbnMtc2VyaWY7IGZvbnQtc2l6ZTogOHB4OyBzdHJva2U6IGJsYWNrOyBzdHJva2Utd2lkdGg6IDFweDsgc3Ryb2tlLW9wYWNpdHk6IDA7IGZpbGw6IGJsYWNrOyBmaWxsLW9wYWNpdHk6IDE7IiBjbGFzcz0iZGpzLWxhYmVsIiByeT0iNyIgcng9IjciIGFsaWduPSJjZW50ZXItbWlkZGxlIj48dHNwYW4geT0iMjIiIHg9IjMuMTk2NDI2MzkxNjAxNTYyNSI+Q29uY3VycmVudCBtaXRpZ2F0aW9uIGFjdGlvbnM8L3RzcGFuPjwvdGV4dD48cmVjdCBzdHlsZT0iZm9udC1mYW1pbHk6IEFyaWFsLCBzYW5zLXNlcmlmOyBmb250LXNpemU6IDEwcHg7IHN0cm9rZTogcmdiKDE3MiwgMTI3LCAxMik7IHN0cm9rZS13aWR0aDogMXB4OyBzdHJva2Utb3BhY2l0eTogMTsgZmlsbDogd2hpdGU7IGZpbGwtb3BhY2l0eTogMDsiIHJ5PSI3IiByeD0iNyIgYWxpZ249ImNlbnRlci10b3AiIGhlaWdodD0iNjAiIHdpZHRoPSIxMjAiIHk9IjAiIHg9IjAiLz48cmVjdCBzdHlsZT0iZm9udC1mYW1pbHk6IEFyaWFsLCBzYW5zLXNlcmlmOyBmb250LXNpemU6IDEwcHg7IHN0cm9rZTogYmxhY2s7IHN0cm9rZS13aWR0aDogMC43cHg7IHN0cm9rZS1vcGFjaXR5OiAxOyBmaWxsOiB3aGl0ZTsgZmlsbC1vcGFjaXR5OiAxOyBmaWx0ZXI6IGRyb3Atc2hhZG93KHJnYig1MCwgNTAsIDUwKSAwcHggMHB4IDEuNXB4KTsiIHJ5PSIxMCIgcng9IjEwIiBhbGlnbj0iY2VudGVyLXRvcCIgaGVpZ2h0PSIxMCIgd2lkdGg9IjEwIiB5PSI1IiB4PSIxMDUiLz48L2c+PHJlY3Qgc3R5bGU9ImZpbGw6IG5vbmU7IHN0cm9rZS1vcGFjaXR5OiAwOyBzdHJva2U6IHdoaXRlOyBzdHJva2Utd2lkdGg6IDE1cHg7IiBoZWlnaHQ9IjYwIiB3aWR0aD0iMTIwIiB5PSIwIiB4PSIwIiBjbGFzcz0iZGpzLWhpdCBkanMtaGl0LWFsbCIvPjxyZWN0IHN0eWxlPSJmaWxsOiBub25lOyIgY2xhc3M9ImRqcy1vdXRsaW5lIiBoZWlnaHQ9IjcyIiB3aWR0aD0iMTMyIiByeD0iNCIgeT0iLTYiIHg9Ii02Ii8+PC9nPjwvZz48ZyBjbGFzcz0iZGpzLWdyb3VwIj48ZyBzdHlsZT0iZGlzcGxheTogYmxvY2s7IiBkYXRhLWVsZW1lbnQtaWQ9ImNvbm5lY3Rpb25fMTQiIGNsYXNzPSJkanMtZWxlbWVudCBkanMtY29ubmVjdGlvbiI+PGcgY2xhc3M9ImRqcy12aXN1YWwiPjxwYXRoIGQ9Ik02OTAsNTQwTDc0MCw1NDAiIHN0eWxlPSJzdHJva2U6IHJnYigxMDEsIDQsIDE5Myk7IHN0cm9rZS13aWR0aDogMXB4OyBzdHJva2Utb3BhY2l0eTogMTsgc3Ryb2tlLWxpbmVjYXA6IHJvdW5kOyBzdHJva2UtbGluZWpvaW46IHJvdW5kOyBmaWxsOiB3aGl0ZTsgZmlsbC1vcGFjaXR5OiAwOyBtYXJrZXItZW5kOiB1cmwoJyNjYWNhby1tYXJrZXItXzY1MDRDMScpOyIgZGF0YS1jb3JuZXItcmFkaXVzPSI1Ii8+PHRleHQgdHJhbnNmb3JtPSJtYXRyaXgoMSAwIDAgMSA2NDAuNzggNTAzLjQ0KSIgc3R5bGU9InN0cm9rZTogcmdiKDEwMSwgNCwgMTkzKTsgc3Ryb2tlLXdpZHRoOiAxcHg7IHN0cm9rZS1vcGFjaXR5OiAwOyBzdHJva2UtbGluZWNhcDogcm91bmQ7IHN0cm9rZS1saW5lam9pbjogcm91bmQ7IGZpbGw6IHJnYigxMDEsIDQsIDE5Myk7IGZpbGwtb3BhY2l0eTogMTsgZm9udC1mYW1pbHk6IHBvcHBpbnMsIHNhbnMtc2VyaWY7IGZvbnQtc2l6ZTogMTFweDsgZm9udC13ZWlnaHQ6IDIwMDsiIGNsYXNzPSJkanMtbGFiZWwiPjx0c3BhbiB5PSIyNy43NSIgeD0iNTUuNzc5NzYyMjY4MDY2NDA2Ij5vbiB0cnVlPC90c3Bhbj48L3RleHQ+PC9nPjxwYXRoIHN0eWxlPSJmaWxsOiBub25lOyBzdHJva2Utb3BhY2l0eTogMDsgc3Ryb2tlOiB3aGl0ZTsgc3Ryb2tlLXdpZHRoOiAxNXB4OyIgY2xhc3M9ImRqcy1oaXQgZGpzLWhpdC1zdHJva2UiIGQ9Ik02OTAsNTQwTDc0MCw1NDAiLz48cmVjdCBzdHlsZT0iZmlsbDogbm9uZTsiIGNsYXNzPSJkanMtb3V0bGluZSIgaGVpZ2h0PSIxMiIgd2lkdGg9IjYyIiByeD0iNCIgeT0iNTM0IiB4PSI2ODQiLz48L2c+PC9nPjxnIGNsYXNzPSJkanMtZ3JvdXAiPjxnIHRyYW5zZm9ybT0ibWF0cml4KDEgMCAwIDEgNzQwIDUxMCkiIHN0eWxlPSJkaXNwbGF5OiBibG9jazsiIGRhdGEtZWxlbWVudC1pZD0iYWN0aW9uLS1jY2I4ZTk0NC00YzgzLTQ0NGUtYWM2MC00ZGZiMWJlYjAxOTciIGNsYXNzPSJkanMtZWxlbWVudCBkanMtc2hhcGUiPjxnIGNsYXNzPSJkanMtdmlzdWFsIj48cmVjdCBzdHlsZT0iZm9udC1mYW1pbHk6IEFyaWFsLCBzYW5zLXNlcmlmOyBmb250LXNpemU6IDEwcHg7IHN0cm9rZTogYmxhY2s7IHN0cm9rZS13aWR0aDogMXB4OyBzdHJva2Utb3BhY2l0eTogMDsgZmlsbDogd2hpdGU7IGZpbGwtb3BhY2l0eTogMTsiIHJ5PSI3IiByeD0iNyIgYWxpZ249ImNlbnRlci10b3AiIGhlaWdodD0iNjAiIHdpZHRoPSIxNTAiIHk9IjAiIHg9IjAiLz48cmVjdCBzdHlsZT0iZm9udC1mYW1pbHk6IEFyaWFsLCBzYW5zLXNlcmlmOyBmb250LXNpemU6IDEwcHg7IHN0cm9rZTogYmxhY2s7IHN0cm9rZS13aWR0aDogMXB4OyBzdHJva2Utb3BhY2l0eTogMDsgZmlsbDogcmdiKDEwNywgMTg0LCAyMDgpOyBmaWxsLW9wYWNpdHk6IDE7IiByeT0iNyIgcng9IjciIGFsaWduPSJjZW50ZXItdG9wIiBoZWlnaHQ9IjIwIiB3aWR0aD0iMTUwIiB5PSIwIiB4PSIwIi8+PHJlY3Qgc3R5bGU9ImZvbnQtZmFtaWx5OiBBcmlhbCwgc2Fucy1zZXJpZjsgZm9udC1zaXplOiAxMHB4OyBzdHJva2U6IGJsYWNrOyBzdHJva2Utd2lkdGg6IDFweDsgc3Ryb2tlLW9wYWNpdHk6IDA7IGZpbGw6IHJnYigxMDcsIDE4NCwgMjA4KTsgZmlsbC1vcGFjaXR5OiAxOyIgcnk9IjAiIHJ4PSIwIiBhbGlnbj0iY2VudGVyLXRvcCIgaGVpZ2h0PSIxMCIgd2lkdGg9IjE1MCIgeT0iMTAiIHg9IjAiLz48dGV4dCB0cmFuc2Zvcm09Im1hdHJpeCgxIDAgMCAxIDcgMCkiIHN0eWxlPSJmb250LWZhbWlseTogQXJpYWwsIHNhbnMtc2VyaWY7IGZvbnQtc2l6ZTogMTBweDsgc3Ryb2tlOiBibGFjazsgc3Ryb2tlLXdpZHRoOiAxcHg7IHN0cm9rZS1vcGFjaXR5OiAwOyBmaWxsOiB3aGl0ZTsgZmlsbC1vcGFjaXR5OiAxOyIgY2xhc3M9ImRqcy1sYWJlbCIgcnk9IjciIHJ4PSI3IiBhbGlnbj0ibGVmdC1taWRkbGUiPjx0c3BhbiB5PSIxMi41IiB4PSIwIj5hY3Rpb24gU3RlcDwvdHNwYW4+PC90ZXh0Pjx0ZXh0IHRyYW5zZm9ybT0ibWF0cml4KDEgMCAwIDEgNSAyMCkiIHN0eWxlPSJmb250LWZhbWlseTogQXJpYWwsIHNhbnMtc2VyaWY7IGZvbnQtc2l6ZTogOHB4OyBzdHJva2U6IGJsYWNrOyBzdHJva2Utd2lkdGg6IDFweDsgc3Ryb2tlLW9wYWNpdHk6IDA7IGZpbGw6IGJsYWNrOyBmaWxsLW9wYWNpdHk6IDE7IiBjbGFzcz0iZGpzLWxhYmVsIiByeT0iNyIgcng9IjciIGFsaWduPSJjZW50ZXItbWlkZGxlIj48dHNwYW4geT0iMjIiIHg9IjMxLjc2NDg4MTEzNDAzMzIwMyI+S2lsbCBtYWxpY2lvdXMgcHJvY2VzczwvdHNwYW4+PC90ZXh0PjxyZWN0IHN0eWxlPSJmb250LWZhbWlseTogQXJpYWwsIHNhbnMtc2VyaWY7IGZvbnQtc2l6ZTogMTBweDsgc3Ryb2tlOiByZ2IoMCwgOTYsIDEyOCk7IHN0cm9rZS13aWR0aDogMXB4OyBzdHJva2Utb3BhY2l0eTogMTsgZmlsbDogd2hpdGU7IGZpbGwtb3BhY2l0eTogMDsiIHJ5PSI3IiByeD0iNyIgYWxpZ249ImNlbnRlci10b3AiIGhlaWdodD0iNjAiIHdpZHRoPSIxNTAiIHk9IjAiIHg9IjAiLz48cmVjdCBzdHlsZT0iZm9udC1mYW1pbHk6IEFyaWFsLCBzYW5zLXNlcmlmOyBmb250LXNpemU6IDEwcHg7IHN0cm9rZTogYmxhY2s7IHN0cm9rZS13aWR0aDogMC43cHg7IHN0cm9rZS1vcGFjaXR5OiAxOyBmaWxsOiB3aGl0ZTsgZmlsbC1vcGFjaXR5OiAxOyBmaWx0ZXI6IGRyb3Atc2hhZG93KHJnYig1MCwgNTAsIDUwKSAwcHggMHB4IDEuNXB4KTsiIHJ5PSIxMCIgcng9IjEwIiBhbGlnbj0iY2VudGVyLXRvcCIgaGVpZ2h0PSIxMCIgd2lkdGg9IjEwIiB5PSI1IiB4PSIxMzUiLz48L2c+PHJlY3Qgc3R5bGU9ImZpbGw6IG5vbmU7IHN0cm9rZS1vcGFjaXR5OiAwOyBzdHJva2U6IHdoaXRlOyBzdHJva2Utd2lkdGg6IDE1cHg7IiBoZWlnaHQ9IjYwIiB3aWR0aD0iMTUwIiB5PSIwIiB4PSIwIiBjbGFzcz0iZGpzLWhpdCBkanMtaGl0LWFsbCIvPjxyZWN0IHN0eWxlPSJmaWxsOiBub25lOyIgY2xhc3M9ImRqcy1vdXRsaW5lIiBoZWlnaHQ9IjcyIiB3aWR0aD0iMTYyIiByeD0iNCIgeT0iLTYiIHg9Ii02Ii8+PC9nPjwvZz48ZyBjbGFzcz0iZGpzLWdyb3VwIj48ZyBzdHlsZT0iZGlzcGxheTogYmxvY2s7IiBkYXRhLWVsZW1lbnQtaWQ9ImNvbm5lY3Rpb25fMTMiIGNsYXNzPSJkanMtZWxlbWVudCBkanMtY29ubmVjdGlvbiI+PGcgY2xhc3M9ImRqcy12aXN1YWwiPjxwYXRoIGQ9Ik01MzAsNTQwTDU3MCw1NDAiIHN0eWxlPSJzdHJva2U6IGJsYWNrOyBzdHJva2Utd2lkdGg6IDFweDsgc3Ryb2tlLW9wYWNpdHk6IDE7IHN0cm9rZS1saW5lY2FwOiByb3VuZDsgc3Ryb2tlLWxpbmVqb2luOiByb3VuZDsgZmlsbDogd2hpdGU7IGZpbGwtb3BhY2l0eTogMDsgbWFya2VyLWVuZDogdXJsKCcjY2FjYW8tbWFya2VyLWJsYWNrJyk7IiBkYXRhLWNvcm5lci1yYWRpdXM9IjUiLz48dGV4dCB0cmFuc2Zvcm09Im1hdHJpeCgxIDAgMCAxIDUzNSA1MzUpIiBzdHlsZT0ic3Ryb2tlOiBibGFjazsgc3Ryb2tlLXdpZHRoOiAxcHg7IHN0cm9rZS1vcGFjaXR5OiAwOyBzdHJva2UtbGluZWNhcDogcm91bmQ7IHN0cm9rZS1saW5lam9pbjogcm91bmQ7IGZpbGw6IGJsYWNrOyBmaWxsLW9wYWNpdHk6IDE7IGZvbnQtZmFtaWx5OiBwb3BwaW5zLCBzYW5zLXNlcmlmOyBmb250LXNpemU6IDExcHg7IGZvbnQtd2VpZ2h0OiAyMDA7IiBjbGFzcz0iZGpzLWxhYmVsIj48dHNwYW4geT0iMjcuNzUiIHg9Ijc1Ii8+PC90ZXh0PjwvZz48cGF0aCBzdHlsZT0iZmlsbDogbm9uZTsgc3Ryb2tlLW9wYWNpdHk6IDA7IHN0cm9rZTogd2hpdGU7IHN0cm9rZS13aWR0aDogMTVweDsiIGNsYXNzPSJkanMtaGl0IGRqcy1oaXQtc3Ryb2tlIiBkPSJNNTMwLDU0MEw1NzAsNTQwIi8+PHJlY3Qgc3R5bGU9ImZpbGw6IG5vbmU7IiBjbGFzcz0iZGpzLW91dGxpbmUiIGhlaWdodD0iMTIiIHdpZHRoPSI1MiIgcng9IjQiIHk9IjUzNCIgeD0iNTI0Ii8+PC9nPjwvZz48ZyBjbGFzcz0iZGpzLWdyb3VwIj48ZyB0cmFuc2Zvcm09Im1hdHJpeCgxIDAgMCAxIDEwMTAgNjEwKSIgc3R5bGU9ImRpc3BsYXk6IGJsb2NrOyIgZGF0YS1lbGVtZW50LWlkPSJ3aGlsZS1jb25kaXRpb24tLTk3MzFiMmI5LTYzMDAtNDBlZC1hYzE4LWU2ZTdjMmQ2OGI3YSIgY2xhc3M9ImRqcy1lbGVtZW50IGRqcy1zaGFwZSI+PGcgY2xhc3M9ImRqcy12aXN1YWwiPjxyZWN0IHN0eWxlPSJmb250LWZhbWlseTogQXJpYWwsIHNhbnMtc2VyaWY7IGZvbnQtc2l6ZTogMTBweDsgc3Ryb2tlOiBibGFjazsgc3Ryb2tlLXdpZHRoOiAxcHg7IHN0cm9rZS1vcGFjaXR5OiAwOyBmaWxsOiB3aGl0ZTsgZmlsbC1vcGFjaXR5OiAxOyIgcnk9IjciIHJ4PSI3IiBhbGlnbj0iY2VudGVyLXRvcCIgaGVpZ2h0PSI2MCIgd2lkdGg9IjEyMCIgeT0iMCIgeD0iMCIvPjxyZWN0IHN0eWxlPSJmb250LWZhbWlseTogQXJpYWwsIHNhbnMtc2VyaWY7IGZvbnQtc2l6ZTogMTBweDsgc3Ryb2tlOiBibGFjazsgc3Ryb2tlLXdpZHRoOiAxcHg7IHN0cm9rZS1vcGFjaXR5OiAwOyBmaWxsOiByZ2IoMTYwLCA5OSwgMjIxKTsgZmlsbC1vcGFjaXR5OiAxOyIgcnk9IjciIHJ4PSI3IiBhbGlnbj0iY2VudGVyLXRvcCIgaGVpZ2h0PSIyMCIgd2lkdGg9IjEyMCIgeT0iMCIgeD0iMCIvPjxyZWN0IHN0eWxlPSJmb250LWZhbWlseTogQXJpYWwsIHNhbnMtc2VyaWY7IGZvbnQtc2l6ZTogMTBweDsgc3Ryb2tlOiBibGFjazsgc3Ryb2tlLXdpZHRoOiAxcHg7IHN0cm9rZS1vcGFjaXR5OiAwOyBmaWxsOiByZ2IoMTYwLCA5OSwgMjIxKTsgZmlsbC1vcGFjaXR5OiAxOyIgcnk9IjAiIHJ4PSIwIiBhbGlnbj0iY2VudGVyLXRvcCIgaGVpZ2h0PSIxMCIgd2lkdGg9IjEyMCIgeT0iMTAiIHg9IjAiLz48dGV4dCB0cmFuc2Zvcm09Im1hdHJpeCgxIDAgMCAxIDcgMCkiIHN0eWxlPSJmb250LWZhbWlseTogQXJpYWwsIHNhbnMtc2VyaWY7IGZvbnQtc2l6ZTogMTBweDsgc3Ryb2tlOiBibGFjazsgc3Ryb2tlLXdpZHRoOiAxcHg7IHN0cm9rZS1vcGFjaXR5OiAwOyBmaWxsOiB3aGl0ZTsgZmlsbC1vcGFjaXR5OiAxOyIgY2xhc3M9ImRqcy1sYWJlbCIgcnk9IjciIHJ4PSI3IiBhbGlnbj0ibGVmdC1taWRkbGUiPjx0c3BhbiB5PSIxMi41IiB4PSIwIj53aGlsZS1jb25kaXRpb24gU3RlcDwvdHNwYW4+PC90ZXh0Pjx0ZXh0IHRyYW5zZm9ybT0ibWF0cml4KDEgMCAwIDEgNSAyMCkiIHN0eWxlPSJmb250LWZhbWlseTogQXJpYWwsIHNhbnMtc2VyaWY7IGZvbnQtc2l6ZTogOHB4OyBzdHJva2U6IGJsYWNrOyBzdHJva2Utd2lkdGg6IDFweDsgc3Ryb2tlLW9wYWNpdHk6IDA7IGZpbGw6IGJsYWNrOyBmaWxsLW9wYWNpdHk6IDE7IiBjbGFzcz0iZGpzLWxhYmVsIiByeT0iNyIgcng9IjciIGFsaWduPSJjZW50ZXItbWlkZGxlIj48dHNwYW4geT0iMTgiIHg9IjEyLjMwMDU5NDMyOTgzMzk4NCI+U2NhbiBhbmQgY2xlYW4gaW5mZWN0ZWQgPC90c3Bhbj48dHNwYW4geT0iMjYiIHg9IjQwLjMzMDM1NjU5NzkwMDM5Ij5zeXN0ZW1zPC90c3Bhbj48L3RleHQ+PHJlY3Qgc3R5bGU9ImZvbnQtZmFtaWx5OiBBcmlhbCwgc2Fucy1zZXJpZjsgZm9udC1zaXplOiAxMHB4OyBzdHJva2U6IHJnYigxMDEsIDQsIDE5Myk7IHN0cm9rZS13aWR0aDogMXB4OyBzdHJva2Utb3BhY2l0eTogMTsgZmlsbDogd2hpdGU7IGZpbGwtb3BhY2l0eTogMDsiIHJ5PSI3IiByeD0iNyIgYWxpZ249ImNlbnRlci10b3AiIGhlaWdodD0iNjAiIHdpZHRoPSIxMjAiIHk9IjAiIHg9IjAiLz48cmVjdCBzdHlsZT0iZm9udC1mYW1pbHk6IEFyaWFsLCBzYW5zLXNlcmlmOyBmb250LXNpemU6IDEwcHg7IHN0cm9rZTogYmxhY2s7IHN0cm9rZS13aWR0aDogMC43cHg7IHN0cm9rZS1vcGFjaXR5OiAxOyBmaWxsOiB3aGl0ZTsgZmlsbC1vcGFjaXR5OiAxOyBmaWx0ZXI6IGRyb3Atc2hhZG93KHJnYig1MCwgNTAsIDUwKSAwcHggMHB4IDEuNXB4KTsiIHJ5PSIxMCIgcng9IjEwIiBhbGlnbj0iY2VudGVyLXRvcCIgaGVpZ2h0PSIxMCIgd2lkdGg9IjEwIiB5PSI1IiB4PSIxMDUiLz48L2c+PHJlY3Qgc3R5bGU9ImZpbGw6IG5vbmU7IHN0cm9rZS1vcGFjaXR5OiAwOyBzdHJva2U6IHdoaXRlOyBzdHJva2Utd2lkdGg6IDE1cHg7IiBoZWlnaHQ9IjYwIiB3aWR0aD0iMTIwIiB5PSIwIiB4PSIwIiBjbGFzcz0iZGpzLWhpdCBkanMtaGl0LWFsbCIvPjxyZWN0IHN0eWxlPSJmaWxsOiBub25lOyIgY2xhc3M9ImRqcy1vdXRsaW5lIiBoZWlnaHQ9IjcyIiB3aWR0aD0iMTMyIiByeD0iNCIgeT0iLTYiIHg9Ii02Ii8+PC9nPjwvZz48ZyBjbGFzcz0iZGpzLWdyb3VwIj48ZyB0cmFuc2Zvcm09Im1hdHJpeCgxIDAgMCAxIDEyMjUgNjEwKSIgc3R5bGU9ImRpc3BsYXk6IGJsb2NrOyIgZGF0YS1lbGVtZW50LWlkPSJhY3Rpb24tLTI5NjdiMGU0LTkzMDAtNDQ5ZS05YTBhLThhNTFlZDQ2MWUyMiIgY2xhc3M9ImRqcy1lbGVtZW50IGRqcy1zaGFwZSI+PGcgY2xhc3M9ImRqcy12aXN1YWwiPjxyZWN0IHN0eWxlPSJmb250LWZhbWlseTogQXJpYWwsIHNhbnMtc2VyaWY7IGZvbnQtc2l6ZTogMTBweDsgc3Ryb2tlOiBibGFjazsgc3Ryb2tlLXdpZHRoOiAxcHg7IHN0cm9rZS1vcGFjaXR5OiAwOyBmaWxsOiB3aGl0ZTsgZmlsbC1vcGFjaXR5OiAxOyIgcnk9IjciIHJ4PSI3IiBhbGlnbj0iY2VudGVyLXRvcCIgaGVpZ2h0PSI2MCIgd2lkdGg9IjE1MCIgeT0iMCIgeD0iMCIvPjxyZWN0IHN0eWxlPSJmb250LWZhbWlseTogQXJpYWwsIHNhbnMtc2VyaWY7IGZvbnQtc2l6ZTogMTBweDsgc3Ryb2tlOiBibGFjazsgc3Ryb2tlLXdpZHRoOiAxcHg7IHN0cm9rZS1vcGFjaXR5OiAwOyBmaWxsOiByZ2IoMTA3LCAxODQsIDIwOCk7IGZpbGwtb3BhY2l0eTogMTsiIHJ5PSI3IiByeD0iNyIgYWxpZ249ImNlbnRlci10b3AiIGhlaWdodD0iMjAiIHdpZHRoPSIxNTAiIHk9IjAiIHg9IjAiLz48cmVjdCBzdHlsZT0iZm9udC1mYW1pbHk6IEFyaWFsLCBzYW5zLXNlcmlmOyBmb250LXNpemU6IDEwcHg7IHN0cm9rZTogYmxhY2s7IHN0cm9rZS13aWR0aDogMXB4OyBzdHJva2Utb3BhY2l0eTogMDsgZmlsbDogcmdiKDEwNywgMTg0LCAyMDgpOyBmaWxsLW9wYWNpdHk6IDE7IiByeT0iMCIgcng9IjAiIGFsaWduPSJjZW50ZXItdG9wIiBoZWlnaHQ9IjEwIiB3aWR0aD0iMTUwIiB5PSIxMCIgeD0iMCIvPjx0ZXh0IHRyYW5zZm9ybT0ibWF0cml4KDEgMCAwIDEgNyAwKSIgc3R5bGU9ImZvbnQtZmFtaWx5OiBBcmlhbCwgc2Fucy1zZXJpZjsgZm9udC1zaXplOiAxMHB4OyBzdHJva2U6IGJsYWNrOyBzdHJva2Utd2lkdGg6IDFweDsgc3Ryb2tlLW9wYWNpdHk6IDA7IGZpbGw6IHdoaXRlOyBmaWxsLW9wYWNpdHk6IDE7IiBjbGFzcz0iZGpzLWxhYmVsIiByeT0iNyIgcng9IjciIGFsaWduPSJsZWZ0LW1pZGRsZSI+PHRzcGFuIHk9IjEyLjUiIHg9IjAiPmFjdGlvbiBTdGVwPC90c3Bhbj48L3RleHQ+PHRleHQgdHJhbnNmb3JtPSJtYXRyaXgoMSAwIDAgMSA1IDIwKSIgc3R5bGU9ImZvbnQtZmFtaWx5OiBBcmlhbCwgc2Fucy1zZXJpZjsgZm9udC1zaXplOiA4cHg7IHN0cm9rZTogYmxhY2s7IHN0cm9rZS13aWR0aDogMXB4OyBzdHJva2Utb3BhY2l0eTogMDsgZmlsbDogYmxhY2s7IGZpbGwtb3BhY2l0eTogMTsiIGNsYXNzPSJkanMtbGFiZWwiIHJ5PSI3IiByeD0iNyIgYWxpZ249ImNlbnRlci1taWRkbGUiPjx0c3BhbiB5PSIyMiIgeD0iNi44MzkyODI5ODk1MDE5NTMiPkRlcGxveSB1cGRhdGVkIGVuZHBvaW50IHByb3RlY3Rpb248L3RzcGFuPjwvdGV4dD48cmVjdCBzdHlsZT0iZm9udC1mYW1pbHk6IEFyaWFsLCBzYW5zLXNlcmlmOyBmb250LXNpemU6IDEwcHg7IHN0cm9rZTogcmdiKDAsIDk2LCAxMjgpOyBzdHJva2Utd2lkdGg6IDFweDsgc3Ryb2tlLW9wYWNpdHk6IDE7IGZpbGw6IHdoaXRlOyBmaWxsLW9wYWNpdHk6IDA7IiByeT0iNyIgcng9IjciIGFsaWduPSJjZW50ZXItdG9wIiBoZWlnaHQ9IjYwIiB3aWR0aD0iMTUwIiB5PSIwIiB4PSIwIi8+PHJlY3Qgc3R5bGU9ImZvbnQtZmFtaWx5OiBBcmlhbCwgc2Fucy1zZXJpZjsgZm9udC1zaXplOiAxMHB4OyBzdHJva2U6IGJsYWNrOyBzdHJva2Utd2lkdGg6IDAuN3B4OyBzdHJva2Utb3BhY2l0eTogMTsgZmlsbDogd2hpdGU7IGZpbGwtb3BhY2l0eTogMTsgZmlsdGVyOiBkcm9wLXNoYWRvdyhyZ2IoNTAsIDUwLCA1MCkgMHB4IDBweCAxLjVweCk7IiByeT0iMTAiIHJ4PSIxMCIgYWxpZ249ImNlbnRlci10b3AiIGhlaWdodD0iMTAiIHdpZHRoPSIxMCIgeT0iNSIgeD0iMTM1Ii8+PC9nPjxyZWN0IHN0eWxlPSJmaWxsOiBub25lOyBzdHJva2Utb3BhY2l0eTogMDsgc3Ryb2tlOiB3aGl0ZTsgc3Ryb2tlLXdpZHRoOiAxNXB4OyIgaGVpZ2h0PSI2MCIgd2lkdGg9IjE1MCIgeT0iMCIgeD0iMCIgY2xhc3M9ImRqcy1oaXQgZGpzLWhpdC1hbGwiLz48cmVjdCBzdHlsZT0iZmlsbDogbm9uZTsiIGNsYXNzPSJkanMtb3V0bGluZSIgaGVpZ2h0PSI3MiIgd2lkdGg9IjE2MiIgcng9IjQiIHk9Ii02IiB4PSItNiIvPjwvZz48L2c+PGcgY2xhc3M9ImRqcy1ncm91cCI+PGcgdHJhbnNmb3JtPSJtYXRyaXgoMSAwIDAgMSAxMjY1IDY5MCkiIHN0eWxlPSJkaXNwbGF5OiBibG9jazsiIGRhdGEtZWxlbWVudC1pZD0iYWN0aW9uLS03ZDZjZDRhMy0xYjM0LTQ4MjAtYjhhMC0zMTZkNmFjMzA3YmUiIGNsYXNzPSJkanMtZWxlbWVudCBkanMtc2hhcGUiPjxnIGNsYXNzPSJkanMtdmlzdWFsIj48cmVjdCBzdHlsZT0iZm9udC1mYW1pbHk6IEFyaWFsLCBzYW5zLXNlcmlmOyBmb250LXNpemU6IDEwcHg7IHN0cm9rZTogYmxhY2s7IHN0cm9rZS13aWR0aDogMXB4OyBzdHJva2Utb3BhY2l0eTogMDsgZmlsbDogd2hpdGU7IGZpbGwtb3BhY2l0eTogMTsiIHJ5PSI3IiByeD0iNyIgYWxpZ249ImNlbnRlci10b3AiIGhlaWdodD0iNjAiIHdpZHRoPSIxNTAiIHk9IjAiIHg9IjAiLz48cmVjdCBzdHlsZT0iZm9udC1mYW1pbHk6IEFyaWFsLCBzYW5zLXNlcmlmOyBmb250LXNpemU6IDEwcHg7IHN0cm9rZTogYmxhY2s7IHN0cm9rZS13aWR0aDogMXB4OyBzdHJva2Utb3BhY2l0eTogMDsgZmlsbDogcmdiKDEwNywgMTg0LCAyMDgpOyBmaWxsLW9wYWNpdHk6IDE7IiByeT0iNyIgcng9IjciIGFsaWduPSJjZW50ZXItdG9wIiBoZWlnaHQ9IjIwIiB3aWR0aD0iMTUwIiB5PSIwIiB4PSIwIi8+PHJlY3Qgc3R5bGU9ImZvbnQtZmFtaWx5OiBBcmlhbCwgc2Fucy1zZXJpZjsgZm9udC1zaXplOiAxMHB4OyBzdHJva2U6IGJsYWNrOyBzdHJva2Utd2lkdGg6IDFweDsgc3Ryb2tlLW9wYWNpdHk6IDA7IGZpbGw6IHJnYigxMDcsIDE4NCwgMjA4KTsgZmlsbC1vcGFjaXR5OiAxOyIgcnk9IjAiIHJ4PSIwIiBhbGlnbj0iY2VudGVyLXRvcCIgaGVpZ2h0PSIxMCIgd2lkdGg9IjE1MCIgeT0iMTAiIHg9IjAiLz48dGV4dCB0cmFuc2Zvcm09Im1hdHJpeCgxIDAgMCAxIDcgMCkiIHN0eWxlPSJmb250LWZhbWlseTogQXJpYWwsIHNhbnMtc2VyaWY7IGZvbnQtc2l6ZTogMTBweDsgc3Ryb2tlOiBibGFjazsgc3Ryb2tlLXdpZHRoOiAxcHg7IHN0cm9rZS1vcGFjaXR5OiAwOyBmaWxsOiB3aGl0ZTsgZmlsbC1vcGFjaXR5OiAxOyIgY2xhc3M9ImRqcy1sYWJlbCIgcnk9IjciIHJ4PSI3IiBhbGlnbj0ibGVmdC1taWRkbGUiPjx0c3BhbiB5PSIxMi41IiB4PSIwIj5hY3Rpb24gU3RlcDwvdHNwYW4+PC90ZXh0Pjx0ZXh0IHRyYW5zZm9ybT0ibWF0cml4KDEgMCAwIDEgNSAyMCkiIHN0eWxlPSJmb250LWZhbWlseTogQXJpYWwsIHNhbnMtc2VyaWY7IGZvbnQtc2l6ZTogOHB4OyBzdHJva2U6IGJsYWNrOyBzdHJva2Utd2lkdGg6IDFweDsgc3Ryb2tlLW9wYWNpdHk6IDA7IGZpbGw6IGJsYWNrOyBmaWxsLW9wYWNpdHk6IDE7IiBjbGFzcz0iZGpzLWxhYmVsIiByeT0iNyIgcng9IjciIGFsaWduPSJjZW50ZXItbWlkZGxlIj48dHNwYW4geT0iMjIiIHg9IjI1Ljk4MjE0MzQwMjA5OTYxIj5FeGVjdXRlIGZ1bGwgc3lzdGVtIHNjYW48L3RzcGFuPjwvdGV4dD48cmVjdCBzdHlsZT0iZm9udC1mYW1pbHk6IEFyaWFsLCBzYW5zLXNlcmlmOyBmb250LXNpemU6IDEwcHg7IHN0cm9rZTogcmdiKDAsIDk2LCAxMjgpOyBzdHJva2Utd2lkdGg6IDFweDsgc3Ryb2tlLW9wYWNpdHk6IDE7IGZpbGw6IHdoaXRlOyBmaWxsLW9wYWNpdHk6IDA7IiByeT0iNyIgcng9IjciIGFsaWduPSJjZW50ZXItdG9wIiBoZWlnaHQ9IjYwIiB3aWR0aD0iMTUwIiB5PSIwIiB4PSIwIi8+PHJlY3Qgc3R5bGU9ImZvbnQtZmFtaWx5OiBBcmlhbCwgc2Fucy1zZXJpZjsgZm9udC1zaXplOiAxMHB4OyBzdHJva2U6IGJsYWNrOyBzdHJva2Utd2lkdGg6IDAuN3B4OyBzdHJva2Utb3BhY2l0eTogMTsgZmlsbDogd2hpdGU7IGZpbGwtb3BhY2l0eTogMTsgZmlsdGVyOiBkcm9wLXNoYWRvdyhyZ2IoNTAsIDUwLCA1MCkgMHB4IDBweCAxLjVweCk7IiByeT0iMTAiIHJ4PSIxMCIgYWxpZ249ImNlbnRlci10b3AiIGhlaWdodD0iMTAiIHdpZHRoPSIxMCIgeT0iNSIgeD0iMTM1Ii8+PC9nPjxyZWN0IHN0eWxlPSJmaWxsOiBub25lOyBzdHJva2Utb3BhY2l0eTogMDsgc3Ryb2tlOiB3aGl0ZTsgc3Ryb2tlLXdpZHRoOiAxNXB4OyIgaGVpZ2h0PSI2MCIgd2lkdGg9IjE1MCIgeT0iMCIgeD0iMCIgY2xhc3M9ImRqcy1oaXQgZGpzLWhpdC1hbGwiLz48cmVjdCBzdHlsZT0iZmlsbDogbm9uZTsiIGNsYXNzPSJkanMtb3V0bGluZSIgaGVpZ2h0PSI3MiIgd2lkdGg9IjE2MiIgcng9IjQiIHk9Ii02IiB4PSItNiIvPjwvZz48L2c+PGcgY2xhc3M9ImRqcy1ncm91cCI+PGcgdHJhbnNmb3JtPSJtYXRyaXgoMSAwIDAgMSA1NzAgNTEwKSIgc3R5bGU9ImRpc3BsYXk6IGJsb2NrOyIgZGF0YS1lbGVtZW50LWlkPSJkZWNpc2lvbi0tOWJhM2E5NjItYjJkOS00NmRlLWI3N2YtNWZiZmJmOWQ3NGRiIiBjbGFzcz0iZGpzLWVsZW1lbnQgZGpzLXNoYXBlIj48ZyBjbGFzcz0iZGpzLXZpc3VhbCI+PHJlY3Qgc3R5bGU9ImZvbnQtZmFtaWx5OiBBcmlhbCwgc2Fucy1zZXJpZjsgZm9udC1zaXplOiAxMHB4OyBzdHJva2U6IGJsYWNrOyBzdHJva2Utd2lkdGg6IDFweDsgc3Ryb2tlLW9wYWNpdHk6IDA7IGZpbGw6IHdoaXRlOyBmaWxsLW9wYWNpdHk6IDE7IiByeT0iNyIgcng9IjciIGFsaWduPSJjZW50ZXItdG9wIiBoZWlnaHQ9IjYwIiB3aWR0aD0iMTIwIiB5PSIwIiB4PSIwIi8+PHJlY3Qgc3R5bGU9ImZvbnQtZmFtaWx5OiBBcmlhbCwgc2Fucy1zZXJpZjsgZm9udC1zaXplOiAxMHB4OyBzdHJva2U6IGJsYWNrOyBzdHJva2Utd2lkdGg6IDFweDsgc3Ryb2tlLW9wYWNpdHk6IDA7IGZpbGw6IHJnYigxNjAsIDk5LCAyMjEpOyBmaWxsLW9wYWNpdHk6IDE7IiByeT0iNyIgcng9IjciIGFsaWduPSJjZW50ZXItdG9wIiBoZWlnaHQ9IjIwIiB3aWR0aD0iMTIwIiB5PSIwIiB4PSIwIi8+PHJlY3Qgc3R5bGU9ImZvbnQtZmFtaWx5OiBBcmlhbCwgc2Fucy1zZXJpZjsgZm9udC1zaXplOiAxMHB4OyBzdHJva2U6IGJsYWNrOyBzdHJva2Utd2lkdGg6IDFweDsgc3Ryb2tlLW9wYWNpdHk6IDA7IGZpbGw6IHJnYigxNjAsIDk5LCAyMjEpOyBmaWxsLW9wYWNpdHk6IDE7IiByeT0iMCIgcng9IjAiIGFsaWduPSJjZW50ZXItdG9wIiBoZWlnaHQ9IjEwIiB3aWR0aD0iMTIwIiB5PSIxMCIgeD0iMCIvPjx0ZXh0IHRyYW5zZm9ybT0ibWF0cml4KDEgMCAwIDEgNyAwKSIgc3R5bGU9ImZvbnQtZmFtaWx5OiBBcmlhbCwgc2Fucy1zZXJpZjsgZm9udC1zaXplOiAxMHB4OyBzdHJva2U6IGJsYWNrOyBzdHJva2Utd2lkdGg6IDFweDsgc3Ryb2tlLW9wYWNpdHk6IDA7IGZpbGw6IHdoaXRlOyBmaWxsLW9wYWNpdHk6IDE7IiBjbGFzcz0iZGpzLWxhYmVsIiByeT0iNyIgcng9IjciIGFsaWduPSJsZWZ0LW1pZGRsZSI+PHRzcGFuIHk9IjEyLjUiIHg9IjAiPmlmLWNvbmRpdGlvbiBTdGVwPC90c3Bhbj48L3RleHQ+PHRleHQgdHJhbnNmb3JtPSJtYXRyaXgoMSAwIDAgMSA1IDIwKSIgc3R5bGU9ImZvbnQtZmFtaWx5OiBBcmlhbCwgc2Fucy1zZXJpZjsgZm9udC1zaXplOiA4cHg7IHN0cm9rZTogYmxhY2s7IHN0cm9rZS13aWR0aDogMXB4OyBzdHJva2Utb3BhY2l0eTogMDsgZmlsbDogYmxhY2s7IGZpbGwtb3BhY2l0eTogMTsiIGNsYXNzPSJkanMtbGFiZWwiIHJ5PSI3IiByeD0iNyIgYWxpZ249ImNlbnRlci1taWRkbGUiPjx0c3BhbiB5PSIxOCIgeD0iMy42NDg4MDc1MjU2MzQ3NjU2Ij5DaGVjayBpZiBtYWxpY2lvdXMgcHJvY2VzcyBpcyA8L3RzcGFuPjx0c3BhbiB5PSIyNiIgeD0iNDEuNjU0NzYxMzE0MzkyMDkiPnJ1bm5pbmc8L3RzcGFuPjwvdGV4dD48cmVjdCBzdHlsZT0iZm9udC1mYW1pbHk6IEFyaWFsLCBzYW5zLXNlcmlmOyBmb250LXNpemU6IDEwcHg7IHN0cm9rZTogcmdiKDEwMSwgNCwgMTkzKTsgc3Ryb2tlLXdpZHRoOiAxcHg7IHN0cm9rZS1vcGFjaXR5OiAxOyBmaWxsOiB3aGl0ZTsgZmlsbC1vcGFjaXR5OiAwOyIgcnk9IjciIHJ4PSI3IiBhbGlnbj0iY2VudGVyLXRvcCIgaGVpZ2h0PSI2MCIgd2lkdGg9IjEyMCIgeT0iMCIgeD0iMCIvPjxyZWN0IHN0eWxlPSJmb250LWZhbWlseTogQXJpYWwsIHNhbnMtc2VyaWY7IGZvbnQtc2l6ZTogMTBweDsgc3Ryb2tlOiBibGFjazsgc3Ryb2tlLXdpZHRoOiAwLjdweDsgc3Ryb2tlLW9wYWNpdHk6IDE7IGZpbGw6IHdoaXRlOyBmaWxsLW9wYWNpdHk6IDE7IGZpbHRlcjogZHJvcC1zaGFkb3cocmdiKDUwLCA1MCwgNTApIDBweCAwcHggMS41cHgpOyIgcnk9IjEwIiByeD0iMTAiIGFsaWduPSJjZW50ZXItdG9wIiBoZWlnaHQ9IjEwIiB3aWR0aD0iMTAiIHk9IjUiIHg9IjEwNSIvPjwvZz48cmVjdCBzdHlsZT0iZmlsbDogbm9uZTsgc3Ryb2tlLW9wYWNpdHk6IDA7IHN0cm9rZTogd2hpdGU7IHN0cm9rZS13aWR0aDogMTVweDsiIGhlaWdodD0iNjAiIHdpZHRoPSIxMjAiIHk9IjAiIHg9IjAiIGNsYXNzPSJkanMtaGl0IGRqcy1oaXQtYWxsIi8+PHJlY3Qgc3R5bGU9ImZpbGw6IG5vbmU7IiBjbGFzcz0iZGpzLW91dGxpbmUiIGhlaWdodD0iNzIiIHdpZHRoPSIxMzIiIHJ4PSI0IiB5PSItNiIgeD0iLTYiLz48L2c+PC9nPjxnIGNsYXNzPSJkanMtZ3JvdXAiPjxnIHRyYW5zZm9ybT0ibWF0cml4KDEgMCAwIDEgNDcwIDUyMCkiIHN0eWxlPSJkaXNwbGF5OiBibG9jazsiIGRhdGEtZWxlbWVudC1pZD0ic3RhcnQtLWI2YTRhOWQ0LWMyM2YtNDE2Ny1hZDk1LTYyN2FjZDZjMjdkYyIgY2xhc3M9ImRqcy1lbGVtZW50IGRqcy1zaGFwZSI+PGcgY2xhc3M9ImRqcy12aXN1YWwiPjxyZWN0IHN0eWxlPSJmb250LWZhbWlseTogQXJpYWwsIHNhbnMtc2VyaWY7IGZvbnQtc2l6ZTogMTBweDsgc3Ryb2tlOiByZ2IoMCwgMTI5LCAzOSk7IHN0cm9rZS13aWR0aDogMXB4OyBzdHJva2Utb3BhY2l0eTogMTsgZmlsbDogcmdiKDExMSwgMTk5LCAxNDEpOyBmaWxsLW9wYWNpdHk6IDE7IiByeT0iNyIgcng9IjciIGFsaWduPSJjZW50ZXItdG9wIiBoZWlnaHQ9IjQwIiB3aWR0aD0iNjAiIHk9IjAiIHg9IjAiLz48dGV4dCB0cmFuc2Zvcm09Im1hdHJpeCgxIDAgMCAxIDAgMCkiIHN0eWxlPSJmb250LWZhbWlseTogQXJpYWwsIHNhbnMtc2VyaWY7IGZvbnQtc2l6ZTogMTJweDsgc3Ryb2tlOiBibGFjazsgc3Ryb2tlLXdpZHRoOiAxcHg7IHN0cm9rZS1vcGFjaXR5OiAwOyBmaWxsOiB3aGl0ZTsgZmlsbC1vcGFjaXR5OiAxOyIgY2xhc3M9ImRqcy1sYWJlbCIgcnk9IjciIHJ4PSI3IiBhbGlnbj0iY2VudGVyLW1pZGRsZSI+PHRzcGFuIHk9IjIzIiB4PSIxNy4yODE4MDc4OTk0NzUwOTgiPlN0YXJ0PC90c3Bhbj48L3RleHQ+PC9nPjxyZWN0IHN0eWxlPSJmaWxsOiBub25lOyBzdHJva2Utb3BhY2l0eTogMDsgc3Ryb2tlOiB3aGl0ZTsgc3Ryb2tlLXdpZHRoOiAxNXB4OyIgaGVpZ2h0PSI0MCIgd2lkdGg9IjYwIiB5PSIwIiB4PSIwIiBjbGFzcz0iZGpzLWhpdCBkanMtaGl0LWFsbCIvPjxyZWN0IHN0eWxlPSJmaWxsOiBub25lOyIgY2xhc3M9ImRqcy1vdXRsaW5lIiBoZWlnaHQ9IjUyIiB3aWR0aD0iNzIiIHJ4PSI0IiB5PSItNiIgeD0iLTYiLz48L2c+PC9nPjxnIGNsYXNzPSJkanMtZ3JvdXAiPjxnIHRyYW5zZm9ybT0ibWF0cml4KDEgMCAwIDEgOTI1IDUxMCkiIHN0eWxlPSJkaXNwbGF5OiBibG9jazsiIGRhdGEtZWxlbWVudC1pZD0iYWN0aW9uLS0yYmFmNTk5YS1hMmZlLTQ1MmUtODA3OC1hNmNjMjMxZDg3MGEiIGNsYXNzPSJkanMtZWxlbWVudCBkanMtc2hhcGUiPjxnIGNsYXNzPSJkanMtdmlzdWFsIj48cmVjdCBzdHlsZT0iZm9udC1mYW1pbHk6IEFyaWFsLCBzYW5zLXNlcmlmOyBmb250LXNpemU6IDEwcHg7IHN0cm9rZTogYmxhY2s7IHN0cm9rZS13aWR0aDogMXB4OyBzdHJva2Utb3BhY2l0eTogMDsgZmlsbDogd2hpdGU7IGZpbGwtb3BhY2l0eTogMTsiIHJ5PSI3IiByeD0iNyIgYWxpZ249ImNlbnRlci10b3AiIGhlaWdodD0iNjAiIHdpZHRoPSIxNTAiIHk9IjAiIHg9IjAiLz48cmVjdCBzdHlsZT0iZm9udC1mYW1pbHk6IEFyaWFsLCBzYW5zLXNlcmlmOyBmb250LXNpemU6IDEwcHg7IHN0cm9rZTogYmxhY2s7IHN0cm9rZS13aWR0aDogMXB4OyBzdHJva2Utb3BhY2l0eTogMDsgZmlsbDogcmdiKDEwNywgMTg0LCAyMDgpOyBmaWxsLW9wYWNpdHk6IDE7IiByeT0iNyIgcng9IjciIGFsaWduPSJjZW50ZXItdG9wIiBoZWlnaHQ9IjIwIiB3aWR0aD0iMTUwIiB5PSIwIiB4PSIwIi8+PHJlY3Qgc3R5bGU9ImZvbnQtZmFtaWx5OiBBcmlhbCwgc2Fucy1zZXJpZjsgZm9udC1zaXplOiAxMHB4OyBzdHJva2U6IGJsYWNrOyBzdHJva2Utd2lkdGg6IDFweDsgc3Ryb2tlLW9wYWNpdHk6IDA7IGZpbGw6IHJnYigxMDcsIDE4NCwgMjA4KTsgZmlsbC1vcGFjaXR5OiAxOyIgcnk9IjAiIHJ4PSIwIiBhbGlnbj0iY2VudGVyLXRvcCIgaGVpZ2h0PSIxMCIgd2lkdGg9IjE1MCIgeT0iMTAiIHg9IjAiLz48dGV4dCB0cmFuc2Zvcm09Im1hdHJpeCgxIDAgMCAxIDcgMCkiIHN0eWxlPSJmb250LWZhbWlseTogQXJpYWwsIHNhbnMtc2VyaWY7IGZvbnQtc2l6ZTogMTBweDsgc3Ryb2tlOiBibGFjazsgc3Ryb2tlLXdpZHRoOiAxcHg7IHN0cm9rZS1vcGFjaXR5OiAwOyBmaWxsOiB3aGl0ZTsgZmlsbC1vcGFjaXR5OiAxOyIgY2xhc3M9ImRqcy1sYWJlbCIgcnk9IjciIHJ4PSI3IiBhbGlnbj0ibGVmdC1taWRkbGUiPjx0c3BhbiB5PSIxMi41IiB4PSIwIj5hY3Rpb24gU3RlcDwvdHNwYW4+PC90ZXh0Pjx0ZXh0IHRyYW5zZm9ybT0ibWF0cml4KDEgMCAwIDEgNSAyMCkiIHN0eWxlPSJmb250LWZhbWlseTogQXJpYWwsIHNhbnMtc2VyaWY7IGZvbnQtc2l6ZTogOHB4OyBzdHJva2U6IGJsYWNrOyBzdHJva2Utd2lkdGg6IDFweDsgc3Ryb2tlLW9wYWNpdHk6IDA7IGZpbGw6IGJsYWNrOyBmaWxsLW9wYWNpdHk6IDE7IiBjbGFzcz0iZGpzLWxhYmVsIiByeT0iNyIgcng9IjciIGFsaWduPSJjZW50ZXItbWlkZGxlIj48dHNwYW4geT0iMjIiIHg9IjE4LjYzMzkyNjM5MTYwMTU2MiI+UmV2b2tlIHVuYXV0aG9yaXplZCBhY2Nlc3M8L3RzcGFuPjwvdGV4dD48cmVjdCBzdHlsZT0iZm9udC1mYW1pbHk6IEFyaWFsLCBzYW5zLXNlcmlmOyBmb250LXNpemU6IDEwcHg7IHN0cm9rZTogcmdiKDAsIDk2LCAxMjgpOyBzdHJva2Utd2lkdGg6IDFweDsgc3Ryb2tlLW9wYWNpdHk6IDE7IGZpbGw6IHdoaXRlOyBmaWxsLW9wYWNpdHk6IDA7IiByeT0iNyIgcng9IjciIGFsaWduPSJjZW50ZXItdG9wIiBoZWlnaHQ9IjYwIiB3aWR0aD0iMTUwIiB5PSIwIiB4PSIwIi8+PHJlY3Qgc3R5bGU9ImZvbnQtZmFtaWx5OiBBcmlhbCwgc2Fucy1zZXJpZjsgZm9udC1zaXplOiAxMHB4OyBzdHJva2U6IGJsYWNrOyBzdHJva2Utd2lkdGg6IDAuN3B4OyBzdHJva2Utb3BhY2l0eTogMTsgZmlsbDogd2hpdGU7IGZpbGwtb3BhY2l0eTogMTsgZmlsdGVyOiBkcm9wLXNoYWRvdyhyZ2IoNTAsIDUwLCA1MCkgMHB4IDBweCAxLjVweCk7IiByeT0iMTAiIHJ4PSIxMCIgYWxpZ249ImNlbnRlci10b3AiIGhlaWdodD0iMTAiIHdpZHRoPSIxMCIgeT0iNSIgeD0iMTM1Ii8+PC9nPjxyZWN0IHN0eWxlPSJmaWxsOiBub25lOyBzdHJva2Utb3BhY2l0eTogMDsgc3Ryb2tlOiB3aGl0ZTsgc3Ryb2tlLXdpZHRoOiAxNXB4OyIgaGVpZ2h0PSI2MCIgd2lkdGg9IjE1MCIgeT0iMCIgeD0iMCIgY2xhc3M9ImRqcy1oaXQgZGpzLWhpdC1hbGwiLz48cmVjdCBzdHlsZT0iZmlsbDogbm9uZTsiIGNsYXNzPSJkanMtb3V0bGluZSIgaGVpZ2h0PSI3MiIgd2lkdGg9IjE2MiIgcng9IjQiIHk9Ii02IiB4PSItNiIvPjwvZz48L2c+PGcgY2xhc3M9ImRqcy1ncm91cCI+PGcgdHJhbnNmb3JtPSJtYXRyaXgoMSAwIDAgMSAxMjI1IDUxMCkiIHN0eWxlPSJkaXNwbGF5OiBibG9jazsiIGRhdGEtZWxlbWVudC1pZD0iYWN0aW9uLS0zZjc0NGFkZi0zNzQ2LTRhYjctYjZmMS03NWE4ZDk2ODcyODQiIGNsYXNzPSJkanMtZWxlbWVudCBkanMtc2hhcGUiPjxnIGNsYXNzPSJkanMtdmlzdWFsIj48cmVjdCBzdHlsZT0iZm9udC1mYW1pbHk6IEFyaWFsLCBzYW5zLXNlcmlmOyBmb250LXNpemU6IDEwcHg7IHN0cm9rZTogYmxhY2s7IHN0cm9rZS13aWR0aDogMXB4OyBzdHJva2Utb3BhY2l0eTogMDsgZmlsbDogd2hpdGU7IGZpbGwtb3BhY2l0eTogMTsiIHJ5PSI3IiByeD0iNyIgYWxpZ249ImNlbnRlci10b3AiIGhlaWdodD0iNjAiIHdpZHRoPSIxNTAiIHk9IjAiIHg9IjAiLz48cmVjdCBzdHlsZT0iZm9udC1mYW1pbHk6IEFyaWFsLCBzYW5zLXNlcmlmOyBmb250LXNpemU6IDEwcHg7IHN0cm9rZTogYmxhY2s7IHN0cm9rZS13aWR0aDogMXB4OyBzdHJva2Utb3BhY2l0eTogMDsgZmlsbDogcmdiKDEwNywgMTg0LCAyMDgpOyBmaWxsLW9wYWNpdHk6IDE7IiByeT0iNyIgcng9IjciIGFsaWduPSJjZW50ZXItdG9wIiBoZWlnaHQ9IjIwIiB3aWR0aD0iMTUwIiB5PSIwIiB4PSIwIi8+PHJlY3Qgc3R5bGU9ImZvbnQtZmFtaWx5OiBBcmlhbCwgc2Fucy1zZXJpZjsgZm9udC1zaXplOiAxMHB4OyBzdHJva2U6IGJsYWNrOyBzdHJva2Utd2lkdGg6IDFweDsgc3Ryb2tlLW9wYWNpdHk6IDA7IGZpbGw6IHJnYigxMDcsIDE4NCwgMjA4KTsgZmlsbC1vcGFjaXR5OiAxOyIgcnk9IjAiIHJ4PSIwIiBhbGlnbj0iY2VudGVyLXRvcCIgaGVpZ2h0PSIxMCIgd2lkdGg9IjE1MCIgeT0iMTAiIHg9IjAiLz48dGV4dCB0cmFuc2Zvcm09Im1hdHJpeCgxIDAgMCAxIDcgMCkiIHN0eWxlPSJmb250LWZhbWlseTogQXJpYWwsIHNhbnMtc2VyaWY7IGZvbnQtc2l6ZTogMTBweDsgc3Ryb2tlOiBibGFjazsgc3Ryb2tlLXdpZHRoOiAxcHg7IHN0cm9rZS1vcGFjaXR5OiAwOyBmaWxsOiB3aGl0ZTsgZmlsbC1vcGFjaXR5OiAxOyIgY2xhc3M9ImRqcy1sYWJlbCIgcnk9IjciIHJ4PSI3IiBhbGlnbj0ibGVmdC1taWRkbGUiPjx0c3BhbiB5PSIxMi41IiB4PSIwIj5hY3Rpb24gU3RlcDwvdHNwYW4+PC90ZXh0Pjx0ZXh0IHRyYW5zZm9ybT0ibWF0cml4KDEgMCAwIDEgNSAyMCkiIHN0eWxlPSJmb250LWZhbWlseTogQXJpYWwsIHNhbnMtc2VyaWY7IGZvbnQtc2l6ZTogOHB4OyBzdHJva2U6IGJsYWNrOyBzdHJva2Utd2lkdGg6IDFweDsgc3Ryb2tlLW9wYWNpdHk6IDA7IGZpbGw6IGJsYWNrOyBmaWxsLW9wYWNpdHk6IDE7IiBjbGFzcz0iZGpzLWxhYmVsIiByeT0iNyIgcng9IjciIGFsaWduPSJjZW50ZXItbWlkZGxlIj48dHNwYW4geT0iMjIiIHg9IjE3LjMwOTUyNDUzNjEzMjgxMiI+UmVzZXQgY29tcHJvbWlzZWQgYWNjb3VudHM8L3RzcGFuPjwvdGV4dD48cmVjdCBzdHlsZT0iZm9udC1mYW1pbHk6IEFyaWFsLCBzYW5zLXNlcmlmOyBmb250LXNpemU6IDEwcHg7IHN0cm9rZTogcmdiKDAsIDk2LCAxMjgpOyBzdHJva2Utd2lkdGg6IDFweDsgc3Ryb2tlLW9wYWNpdHk6IDE7IGZpbGw6IHdoaXRlOyBmaWxsLW9wYWNpdHk6IDA7IiByeT0iNyIgcng9IjciIGFsaWduPSJjZW50ZXItdG9wIiBoZWlnaHQ9IjYwIiB3aWR0aD0iMTUwIiB5PSIwIiB4PSIwIi8+PHJlY3Qgc3R5bGU9ImZvbnQtZmFtaWx5OiBBcmlhbCwgc2Fucy1zZXJpZjsgZm9udC1zaXplOiAxMHB4OyBzdHJva2U6IGJsYWNrOyBzdHJva2Utd2lkdGg6IDAuN3B4OyBzdHJva2Utb3BhY2l0eTogMTsgZmlsbDogd2hpdGU7IGZpbGwtb3BhY2l0eTogMTsgZmlsdGVyOiBkcm9wLXNoYWRvdyhyZ2IoNTAsIDUwLCA1MCkgMHB4IDBweCAxLjVweCk7IiByeT0iMTAiIHJ4PSIxMCIgYWxpZ249ImNlbnRlci10b3AiIGhlaWdodD0iMTAiIHdpZHRoPSIxMCIgeT0iNSIgeD0iMTM1Ii8+PC9nPjxyZWN0IHN0eWxlPSJmaWxsOiBub25lOyBzdHJva2Utb3BhY2l0eTogMDsgc3Ryb2tlOiB3aGl0ZTsgc3Ryb2tlLXdpZHRoOiAxNXB4OyIgaGVpZ2h0PSI2MCIgd2lkdGg9IjE1MCIgeT0iMCIgeD0iMCIgY2xhc3M9ImRqcy1oaXQgZGpzLWhpdC1hbGwiLz48cmVjdCBzdHlsZT0iZmlsbDogbm9uZTsiIGNsYXNzPSJkanMtb3V0bGluZSIgaGVpZ2h0PSI3MiIgd2lkdGg9IjE2MiIgcng9IjQiIHk9Ii02IiB4PSItNiIvPjwvZz48L2c+PGcgY2xhc3M9ImRqcy1ncm91cCI+PGcgdHJhbnNmb3JtPSJtYXRyaXgoMSAwIDAgMSAxNDgwIDUyMCkiIHN0eWxlPSJkaXNwbGF5OiBibG9jazsiIGRhdGEtZWxlbWVudC1pZD0iZW5kLS0xM2IzNTE0Zi0xNzY0LTRhODEtOWI5My1jZjU1MTBhZWExZDQiIGNsYXNzPSJkanMtZWxlbWVudCBkanMtc2hhcGUiPjxnIGNsYXNzPSJkanMtdmlzdWFsIj48cmVjdCBzdHlsZT0iZm9udC1mYW1pbHk6IEFyaWFsLCBzYW5zLXNlcmlmOyBmb250LXNpemU6IDEwcHg7IHN0cm9rZTogcmdiKDEyNSwgMCwgMSk7IHN0cm9rZS13aWR0aDogMXB4OyBzdHJva2Utb3BhY2l0eTogMTsgZmlsbDogcmdiKDIxOSwgMTA4LCAxMDgpOyBmaWxsLW9wYWNpdHk6IDE7IiByeT0iNyIgcng9IjciIGFsaWduPSJjZW50ZXItdG9wIiBoZWlnaHQ9IjQwIiB3aWR0aD0iNjAiIHk9IjAiIHg9IjAiLz48dGV4dCB0cmFuc2Zvcm09Im1hdHJpeCgxIDAgMCAxIDAgMCkiIHN0eWxlPSJmb250LWZhbWlseTogQXJpYWwsIHNhbnMtc2VyaWY7IGZvbnQtc2l6ZTogMTJweDsgc3Ryb2tlOiBibGFjazsgc3Ryb2tlLXdpZHRoOiAxcHg7IHN0cm9rZS1vcGFjaXR5OiAwOyBmaWxsOiB3aGl0ZTsgZmlsbC1vcGFjaXR5OiAxOyIgY2xhc3M9ImRqcy1sYWJlbCIgcnk9IjciIHJ4PSI3IiBhbGlnbj0iY2VudGVyLW1pZGRsZSI+PHRzcGFuIHk9IjIzIiB4PSIxOS4zMjE0MjgyOTg5NTAxOTUiPkVuZDwvdHNwYW4+PC90ZXh0PjwvZz48cmVjdCBzdHlsZT0iZmlsbDogbm9uZTsgc3Ryb2tlLW9wYWNpdHk6IDA7IHN0cm9rZTogd2hpdGU7IHN0cm9rZS13aWR0aDogMTVweDsiIGhlaWdodD0iNDAiIHdpZHRoPSI2MCIgeT0iMCIgeD0iMCIgY2xhc3M9ImRqcy1oaXQgZGpzLWhpdC1hbGwiLz48cmVjdCBzdHlsZT0iZmlsbDogbm9uZTsiIGNsYXNzPSJkanMtb3V0bGluZSIgaGVpZ2h0PSI1MiIgd2lkdGg9IjcyIiByeD0iNCIgeT0iLTYiIHg9Ii02Ii8+PC9nPjwvZz48L3N2Zz4=;" parent="1" vertex="1">
          <mxGeometry x="150" y="170" width="1082" height="252" as="geometry" />
        </mxCell>
        <mxCell id="g5C7Mxiqw0isMGBFC2JA-2" value="&lt;br&gt;&lt;div&gt;📚 Source: Atomic Red Team Scenarios&lt;/div&gt;&lt;div&gt;👥 Process: Humans manual Annotation&lt;/div&gt;" style="rounded=1;whiteSpace=wrap;html=1;fillColor=#d5e8d4;strokeColor=#82b366;" parent="1" vertex="1">
          <mxGeometry x="1270" y="943" width="220" height="57" as="geometry" />
        </mxCell>
        <mxCell id="g5C7Mxiqw0isMGBFC2JA-3" value="&lt;b&gt;Full MITRE ATT&amp;amp;CK&lt;/b&gt;&lt;div&gt;🔍filtered to select distributed systems related incidents (e.g., DDoS, containers)&lt;/div&gt;" style="rounded=1;whiteSpace=wrap;html=1;fillColor=#dae8fc;strokeColor=#6c8ebf;" parent="1" vertex="1">
          <mxGeometry x="760" y="880.5" width="140" height="75" as="geometry" />
        </mxCell>
        <mxCell id="g5C7Mxiqw0isMGBFC2JA-6" value="&lt;b&gt;GPT-4o/&lt;/b&gt;&lt;div&gt;&lt;b&gt;GPT-4.5&lt;/b&gt;&lt;/div&gt;" style="rounded=1;whiteSpace=wrap;html=1;verticalAlign=bottom;fillColor=#dae8fc;strokeColor=#6c8ebf;" parent="1" vertex="1">
          <mxGeometry x="1150" y="880.5" width="79" height="69.5" as="geometry" />
        </mxCell>
        <mxCell id="g5C7Mxiqw0isMGBFC2JA-7" value="" style="endArrow=classic;html=1;rounded=0;exitX=1.005;exitY=0.422;exitDx=0;exitDy=0;exitPerimeter=0;entryX=0;entryY=0.25;entryDx=0;entryDy=0;fillColor=#dae8fc;strokeColor=#6c8ebf;" parent="1" source="g5C7Mxiqw0isMGBFC2JA-3" edge="1">
          <mxGeometry width="50" height="50" relative="1" as="geometry">
            <mxPoint x="869.1599999999999" y="911.5150000000002" as="sourcePoint" />
            <mxPoint x="1000.7" y="911.84" as="targetPoint" />
          </mxGeometry>
        </mxCell>
        <mxCell id="g5C7Mxiqw0isMGBFC2JA-8" value="Sample incidents (Description, logs, solutions)&amp;nbsp;" style="text;html=1;align=left;verticalAlign=middle;whiteSpace=wrap;rounded=0;" parent="1" vertex="1">
          <mxGeometry x="910" y="936.75" width="90" height="30" as="geometry" />
        </mxCell>
        <mxCell id="g5C7Mxiqw0isMGBFC2JA-12" value="🔄 Few-shot support" style="text;whiteSpace=wrap;html=1;" parent="1" vertex="1">
          <mxGeometry x="1000.7" y="970" width="120" height="20" as="geometry" />
        </mxCell>
        <mxCell id="g5C7Mxiqw0isMGBFC2JA-13" value="⚙️ Prompt: Incident generation prompt w/ variables" style="text;whiteSpace=wrap;html=1;" parent="1" vertex="1">
          <mxGeometry x="1000.7" y="910" width="110" height="40" as="geometry" />
        </mxCell>
        <mxCell id="g5C7Mxiqw0isMGBFC2JA-14" value="+" style="text;html=1;align=center;verticalAlign=middle;whiteSpace=wrap;rounded=0;fillColor=none;strokeColor=none;" parent="1" vertex="1">
          <mxGeometry x="1030.7" y="960" width="60" height="23" as="geometry" />
        </mxCell>
        <mxCell id="g5C7Mxiqw0isMGBFC2JA-16" value="&lt;b&gt;Prompt creation&amp;nbsp;&lt;/b&gt;" style="text;html=1;align=center;verticalAlign=middle;whiteSpace=wrap;rounded=0;fillColor=#dae8fc;strokeColor=none;" parent="1" vertex="1">
          <mxGeometry x="1006.4000000000001" y="880" width="104.3" height="30" as="geometry" />
        </mxCell>
        <mxCell id="g5C7Mxiqw0isMGBFC2JA-17" value="&lt;font&gt;🤖&lt;/font&gt;" style="text;whiteSpace=wrap;html=1;fontSize=22;fillColor=none;strokeColor=none;" parent="1" vertex="1">
          <mxGeometry x="1172.5" y="882.75" width="40" height="30" as="geometry" />
        </mxCell>
        <mxCell id="g5C7Mxiqw0isMGBFC2JA-23" value="&lt;b style=&quot;forced-color-adjust: none; color: rgb(0, 0, 0); font-family: Helvetica; font-size: 12px; font-style: normal; font-variant-ligatures: normal; font-variant-caps: normal; letter-spacing: normal; orphans: 2; text-indent: 0px; text-transform: none; widows: 2; word-spacing: 0px; -webkit-text-stroke-width: 0px; white-space: normal; text-decoration-thickness: initial; text-decoration-style: initial; text-decoration-color: initial; text-align: center;&quot;&gt;&amp;nbsp; &amp;nbsp; &amp;nbsp;Human annotations&lt;/b&gt;&lt;span style=&quot;forced-color-adjust: none; color: rgb(0, 0, 0); font-family: Helvetica; font-size: 12px; font-style: normal; font-variant-ligatures: normal; font-variant-caps: normal; font-weight: 400; letter-spacing: normal; orphans: 2; text-indent: 0px; text-transform: none; widows: 2; word-spacing: 0px; -webkit-text-stroke-width: 0px; white-space: normal; text-decoration-thickness: initial; text-decoration-style: initial; text-decoration-color: initial; text-align: center; float: none; display: inline !important;&quot;&gt;&amp;nbsp;&lt;/span&gt;" style="text;whiteSpace=wrap;html=1;labelBackgroundColor=none;" parent="1" vertex="1">
          <mxGeometry x="1304" y="943" width="180" height="40" as="geometry" />
        </mxCell>
        <mxCell id="g5C7Mxiqw0isMGBFC2JA-24" value="" style="endArrow=classic;html=1;rounded=0;entryX=0;entryY=0.5;entryDx=0;entryDy=0;fillColor=#dae8fc;strokeColor=#6c8ebf;exitX=0.997;exitY=0.322;exitDx=0;exitDy=0;exitPerimeter=0;" parent="1" source="g5C7Mxiqw0isMGBFC2JA-15" target="g5C7Mxiqw0isMGBFC2JA-6" edge="1">
          <mxGeometry width="50" height="50" relative="1" as="geometry">
            <mxPoint x="1120" y="912" as="sourcePoint" />
            <mxPoint x="1150" y="911.5" as="targetPoint" />
          </mxGeometry>
        </mxCell>
        <mxCell id="g5C7Mxiqw0isMGBFC2JA-25" value="" style="endArrow=classic;html=1;rounded=0;fillColor=#dae8fc;strokeColor=#6c8ebf;" parent="1" edge="1">
          <mxGeometry width="50" height="50" relative="1" as="geometry">
            <mxPoint x="1229" y="915.4300000000001" as="sourcePoint" />
            <mxPoint x="1268" y="915.01" as="targetPoint" />
          </mxGeometry>
        </mxCell>
        <mxCell id="g5C7Mxiqw0isMGBFC2JA-26" value="&lt;b&gt;Validation Pipeline&lt;/b&gt;&lt;div&gt;&lt;span style=&quot;background-color: transparent; color: light-dark(rgb(0, 0, 0), rgb(255, 255, 255));&quot;&gt;✅ Automatic CACAO Schema Check&lt;/span&gt;&lt;/div&gt;&lt;div&gt;&lt;span style=&quot;background-color: transparent; color: light-dark(rgb(0, 0, 0), rgb(255, 255, 255));&quot;&gt;👁️ Human-in-the-loop Review&lt;/span&gt;&lt;/div&gt;" style="rounded=1;whiteSpace=wrap;html=1;verticalAlign=top;fillColor=#dae8fc;strokeColor=#6c8ebf;" parent="1" vertex="1">
          <mxGeometry x="1270" y="886.75" width="220" height="50" as="geometry" />
        </mxCell>
        <mxCell id="g5C7Mxiqw0isMGBFC2JA-29" value="" style="endArrow=classic;html=1;rounded=0;fillColor=#dae8fc;strokeColor=#6c8ebf;" parent="1" edge="1">
          <mxGeometry width="50" height="50" relative="1" as="geometry">
            <mxPoint x="1490" y="915" as="sourcePoint" />
            <mxPoint x="1520" y="930" as="targetPoint" />
          </mxGeometry>
        </mxCell>
        <mxCell id="g5C7Mxiqw0isMGBFC2JA-30" value="" style="endArrow=classic;html=1;rounded=0;fillColor=#d5e8d4;strokeColor=#82b366;" parent="1" edge="1">
          <mxGeometry width="50" height="50" relative="1" as="geometry">
            <mxPoint x="1490" y="979.89" as="sourcePoint" />
            <mxPoint x="1520" y="970" as="targetPoint" />
          </mxGeometry>
        </mxCell>
        <mxCell id="g5C7Mxiqw0isMGBFC2JA-31" value="$$\mathcal{D_inc}$$" style="text;html=1;align=center;verticalAlign=middle;whiteSpace=wrap;rounded=0;" parent="1" vertex="1">
          <mxGeometry x="1560" y="943" width="20" height="20" as="geometry" />
        </mxCell>
        <mxCell id="g5C7Mxiqw0isMGBFC2JA-32" value="$$\mathcal{D}_s$$" style="text;html=1;align=center;verticalAlign=middle;whiteSpace=wrap;rounded=0;fillColor=none;strokeColor=none;fontColor=#6C8EBF;" parent="1" vertex="1">
          <mxGeometry x="1520" y="925.75" width="20" height="17.25" as="geometry" />
        </mxCell>
        <mxCell id="g5C7Mxiqw0isMGBFC2JA-33" value="$$\mathcal{D}_h$$" style="text;html=1;align=center;verticalAlign=middle;whiteSpace=wrap;rounded=0;fontColor=#82B366;" parent="1" vertex="1">
          <mxGeometry x="1520" y="962.88" width="20" height="17.25" as="geometry" />
        </mxCell>
        <mxCell id="g5C7Mxiqw0isMGBFC2JA-34" value="+" style="text;html=1;align=center;verticalAlign=middle;whiteSpace=wrap;rounded=0;" parent="1" vertex="1">
          <mxGeometry x="1516" y="946.75" width="20" height="10" as="geometry" />
        </mxCell>
        <mxCell id="g5C7Mxiqw0isMGBFC2JA-35" value="" style="endArrow=classic;html=1;rounded=0;" parent="1" edge="1">
          <mxGeometry width="50" height="50" relative="1" as="geometry">
            <mxPoint x="1532" y="951.64" as="sourcePoint" />
            <mxPoint x="1552" y="951.64" as="targetPoint" />
          </mxGeometry>
        </mxCell>
        <mxCell id="g5C7Mxiqw0isMGBFC2JA-37" value="" style="curved=1;endArrow=classic;html=1;rounded=0;entryX=1.002;entryY=0.09;entryDx=0;entryDy=0;exitX=0.5;exitY=0;exitDx=0;exitDy=0;entryPerimeter=0;fillColor=#ffe6cc;strokeColor=#d79b00;" parent="1" source="g5C7Mxiqw0isMGBFC2JA-31" target="g5C7Mxiqw0isMGBFC2JA-6" edge="1">
          <mxGeometry width="50" height="50" relative="1" as="geometry">
            <mxPoint x="1567" y="952" as="sourcePoint" />
            <mxPoint x="1610" y="900" as="targetPoint" />
            <Array as="points">
              <mxPoint x="1570" y="920" />
              <mxPoint x="1490" y="880" />
              <mxPoint x="1380" y="870" />
            </Array>
          </mxGeometry>
        </mxCell>
        <mxCell id="g5C7Mxiqw0isMGBFC2JA-38" value="" style="endArrow=classic;html=1;rounded=0;fillColor=#ffe6cc;strokeColor=#d79b00;entryX=0.5;entryY=0;entryDx=0;entryDy=0;" parent="1" target="g5C7Mxiqw0isMGBFC2JA-45" edge="1">
          <mxGeometry width="50" height="50" relative="1" as="geometry">
            <mxPoint x="1190" y="950" as="sourcePoint" />
            <mxPoint x="1189.16" y="986.75" as="targetPoint" />
          </mxGeometry>
        </mxCell>
        <mxCell id="g5C7Mxiqw0isMGBFC2JA-39" value="Plabook generation prompt (including few-shot) for each entry in&amp;nbsp; dataset" style="text;html=1;align=center;verticalAlign=middle;whiteSpace=wrap;rounded=0;fontColor=#EE892B;" parent="1" vertex="1">
          <mxGeometry x="1172.5" y="845.5" width="389" height="30" as="geometry" />
        </mxCell>
        <mxCell id="g5C7Mxiqw0isMGBFC2JA-45" value="" style="shape=image;verticalLabelPosition=bottom;labelBackgroundColor=default;verticalAlign=top;aspect=fixed;imageAspect=0;image=data:image/png,iVBORw0KGgoAAAANSUhEUgAAAHQAAACBCAYAAAARxZ6NAAAAAXNSR0IArs4c6QAAAARnQU1BAACxjwv8YQUAAAAJcEhZcwAADsMAAA7DAcdvqGQAABvMSURBVHhe7V2Jux1FleePUQlBRkFxH0ZHRxG3cUb5dEYd93WYcVSIISEgiECCEhRZDIR9E1xAFBSQRQeDiBsCooB59+1b3pa3LzXnV13Vfbr61NJ9730kZM73/V5XnXPqVPU5t5buru53WM+Xj1CNsCmStzyJXwMtgccRk0frt3L36CJRnrfHp8fBdZCOlUmQH1YxyhWaIGTDJ3P42imubtO2pdhJ5XFIdmNlUsHt2LTEE+TpPVQyLOVdni/NeS5f0hOxUeA58NnifEkn1KZAWfwYbS/l6RJQRrLh2KrkE/hpAYUBqTKfYY6YTooNF1JbeL5dwJ6FTy6lOTqlYwF5gk7zOVRCrMIDDe20N1BW7JXrgTygoROzsro6SFtYnqsT4llwGz69UHmA2+B5t5yPb2WxdCpSy1i9FH2jU14UxeDqIh8qr+UbCp2QLuDqcX2pLHihMlLex0ee2+B5y7PpEM9Brd7q2rP5hHo0SC8LaEoBn04qP7WeTiFWl699Ep/nObiMpcXFUMiOhWQPRwuXz48mXW8O5YVDeRy5zOZdvg+uTqyMpG95/Mj5rszlhdIx1NG1CJWBzMojttOG3ERjJbi6yPvs1LHbLfA28HZKbZN0PdA9NVU/pIe8heFJo4AcUInnA9cN2cLRQpK3A8kG59l0St3g+fQlxHRcuaTvqw/5kL7LI6TPoRaubmp5q+MeuTzFTichtUVqF89LfEnHVw4I6cdkEXm9O0WuMZ5nRnMeh1TeRUjeRBarjwO6Vp+X4/ymqFO+qa5JxwPqq8DyXblQiUVpzA/oRVFXPwWw2Q27dRCr38olPdP+tB5qlMW8TXO55fP8eoO3z+XFENQz949jtoy8snCRYG3hKKU5XB1HVg6oZCCGUBnINr9Y9X31HwQcJ/A4rBxHriuV8/FCZX1lyrzenC/pl9E6/RUlfwSDCT3Jd5bHjxJ4GYYsoKSQVx5QFsH1nbL9O45Xy+O9Sq2tHRJYW1pQ47efU/KHGFTJx+C5fJuX9CWQnn/I5cZSDTvymd/8UB1qtLa8qHpOO6bkhxwhP7q8WF4C6aRdh4aMWZlQZv6vvzKneWgRhumSL2LgvkPagutYmctzkLYoikGsfAMFdI85xUOLggG1vgoFJyFwFR2Tp4BuKAsspIo9RkQZ4ZDuofSDHv3uqar/vLcUPhF8VOFHfOrlG157PTRUOeXn/3LoBnTvKS9SS/t61drirOrffnzFN6W8D4JPvTKDIqBQkJQSjIg6GHIP6YAergMKmrzn4sI/MYT8jbyFpENpuYfygryAq8OPQvpQHnJ1D8UlG9HUL64p/FIHko9dGc8TKgG11036yAvZtGRITId76NLI39Tgt96r+s9/K+EE5yjxuMyCy1xwfqE7UMkjzWHlNm1B+R2k//W3qemHbjRnIVPeQ/OAXlv4hcP1ZTuALUJ5yOXHGD8G0g/10Ml7L5PLHUjwnDMCLNJadrA9VN9UIfIGNIS6/gaoTHxR5DMcq1BftoR66LNq8KIT6Rd/gsHbVD8BR5v3o5CjjC3Xz2xJKOxbcH23nGwHNmZ+dROdgYmeQL1nm4CaOXTqQSegUd8ZSLIIwgHlRqVKbF6qnHiH9hzKh9zEOdT1setfLudphiygJCjdc+SKEQM+/t5ID30+U+9Xj/MPudyflpcC62dfOcP37ymS+NagRZDXmcsW/8B24FI+h7pDbsVHTpoDfBcuX8iHt6BwvqTjlnXSoYCuTI+p0Zs2qZGr/5PhJCfN8668KaxdyZbPPtO/5iQ1+/h95ixkarQocv3r5n08B/6AJhT2ltWycA+d/Pku0kt42agpUtofhNu2Ij9w/tvNWciEIbenFFAzh3p95cn7jgHkc2gOR6ECV4fnS+kNai4Q0IW9v1O9Z/29ap328gLbWDol3w1IdWw7tpSeuHOnOQuZ7Cq3tChK8S2H5FfJBngWlE+/DvXlfUiYQ9dWl/Xzw4MKK0um9X6yQ24e0Ac9q1zJl5yX6msL0i96qCOo8H3Gua6jn61yD8ZlTXsUnEN9fgRcmaSref4nZOHrUMAaxVFKu3osn7zKRcyfR3HXAT2Z91DhxoL1l3t0dVy+Cy6ndDWgjkIlHTqW0uEhd21xTk09sFtN/uzbavJuGRMaF6mJn11U8Eg/42dAea3DeDkgM/aRx3Gx/8+mBd2jypDrrnKtr6y/LI8fm4DK6oBWNjK5FfkqCVVOstCiaDqfV7B6lGBl1ibnx/I2zeUZf2Dnv5gWdI8qiyLfHFoXoVgAJCsH1FUOFY6BymIO9Y2kc0/cr/ZuIoefsoFOnvQ1aG7Q+eJYpAsdpG2+rFMF+BbIj17/RdMChzo45GcBbXjrT+KnwgYU6FxQTc8wAQ3RyvS4Wt43sE4YVMsTg0qtrpjaC+r09F0dchMvW2r7ugr/HOo7uvDJKZ+8KHqeURbQw4tVbp0h1+dnjoBONaCAEJxSnsMnS7yXG+sduFZdXdifjsVZKvTcLpkrPbTu4zMfbDmpPHgEOaCdQGJAQzT/l4dU64xX0iXACwkvSMQL1cBF71Or89PGyvqT7aGNFkWhoFn4AkrHeEBDhl1wXUq3+/hskAIDW3sNMDdnR4tiFcv5SE/94mpjZf2pOuQm3JyXAH/W8T8hC6hTyLtAqgP00DYD2rf9rdrW2PdPV/t/e5vB7Qa3qZmcVwC7IFBm30++YaysP9kht3Jzvg6kYCbEI+1ViCYgG+0OuQgoetvMI98znDiNXHuSrn/fnQdQQKUhN+RjyKy8TixIV+yhIuoYJiAQOqBtrE/6tp9gAvp9w4nTyLX/peufOAB6aOMbCzWDyNP+HQvtguy2P+SeoG3V66FZQA+EIbe4Dk2cQ20sYjFx5axc51e5zHj6kCt344M7oMK+XB4IpC0sj8tcno/v8NID6quEw9F5TnrodQdAQO02znzIrdlDU/kCOtNDpQo7sso9SHuoG9C6Q66blniuHHlCPKBSQZ73gfTaW+Wuqb4dWUAHLvhnNXzlp9Xw7s+Yo4GbvvIzqu/s43SZfXdeYOysP4mLIuPwOv7zpn0yQvqiKGBERvt3ikZuPEWwmwBq3+wT4Z153aTKHMqHXOu7mA8h5zoxfYOih3IDUuGYQVdO+XaH3NW5KbXvR+fpa0tsn9RHwvDuT5D9Dap1xityXo7rPq9mfn0rlX7u7ucGA2p8U8rH+BaCj1ucR+ksoIJiKS8hpkPydnuoj5YnBrTDBna+y3AOLKo8D617HWoBH9eJBR07syiScCgHVJpD2X1n659SPgWhMpC1HdBIBe0OuT5anug/KHpo8NZfl1A/oKEgcnQxoPi6CubQvrNep1Zmxg33wKHqFpTEyxYXKb6GDtPTAa1sEuOwyj7jgUq7MeQu9PxBtU5/JdnPtrpg09fq3HP37FOi6I2FkC99/ub5gKy8KHIVU+ArQ/xO99DF3sf0A28Esu/cN6nW1qN1euBbJ+rdCgcK2YA27qHwad1YmDLlIZcb8aWTgE1i7d8p4rTY9wQF81Xadt/249XK1JCae/IB1bPl73Sdgxd/gII6a7RlWluaV0uje9XS8NOEvzI8o1b278t09N/2qLIoanKnSMqH+OAR2lsURdCpIXdx4CnV+5XXkE0K5nlv1qtcS7OP3a16Tj1K1zd42Uf0BxQlWpkYVK0zX6fnNji7gs0vTv424crksFre129yVXJ76HSn5tCEAMsBlQr6jPlA+p0I6NLgX4tgnvNGcmSfkRS0/3c/poAcqesdvuKT+qUil6Yf/q6W78XoYdq4l9qI560A7A/t/rTRlglz4sgNJ+vg92zaqIav+qxaGnraSAuqDrltXIe66UgcIj0UQ6fETwCVazegi4N/Ub3Uq2Cv9+w35IsMiWYe+YEOFoIzfOVnKajlt8Qm79ulZbgvPPfkgyWM3rxFywYvfr/RLpO+Y3XHDhoJMLxni7EcFNyx752uVqZHjDYC+vpmAW3qawBlCfIcyg0bxRyWzyHxiZcS0MWBP6vBSz+kBi58b4Zvnmjw3nzOxC9+abTHlPATvh+UOfoImmffmtvsJ+AHgV41eOl/GO2CJu/Ngo2A8jkUgZy4+2LdDt6z8V4r2pSfK3Day9TEnReoVZqLKwFNuQ7lPrRp16+SnzlI3mwOjRkGsChKCGj2uCv7tWc9rIDlj1z3P7RaWTUl/LQ6P0NzLD6WWJRFoDJk+SFPQCEbMD10ZXJI90j9hWp+TlteoiZ+QkGjerCqxotQ2bdxYdsM3duO1XoIqJ0eGi+KGqAaUBitY9jqlsrQCSYGdGjXh7X+KM1NU7+8Tk0T7BE8Pc8RRm48WXyNwRJ6E3p15tyj9PNQawfAMIy2eQNKdfTtOF5/96FnMxZZ2Q9Anw+G1ZtPLS3GLK3MjKnxH37VDMfm3I0fBr7xLv2BLT1cG14Qoi8FSHLwCOEeGjMswZZJDeh3ENAj1MzDwkNs6pXjPzhL20RQR6/7glpbWTbCglb2j9Pc+G6yQ86kFe/+395hJAVN3n+5rgffPxj77uYco4SBb75H2y+CaIKy5Wg1dstWtTSy11jBgCxf2GDVO/6DM9nXrIvA4hM/Ni3C52eXj3xIlxAfcn0GQjDG03soAopHXgIhqLedkztl5Nr/Lr0WvzI1ovq//naSkQPpmnT2jz8zkjLt//2d2ZCoUTi7QMbDG2q4zp289zu00Bk1pdMJ17NT912u+rEFlS6RqvV0AL6Y6IC6QilvwfkJSO2hcLQ3oKC1NTX+o/Pydgxf9Tl9aYK3yrI5k/g0b+EVRR9Bf/SmL1Pw36l7qW2jHtIRRFo0YejExzzUamS+1v80IKazqm9Tjv/oXNV37ptVTyeD68aC5bMe6iqkIlSOZCl3ioZ2fYT0N4YDagjzImzjBzC066N0XfqPWV1bj6Yfz0NGK05TD1yZlaO5Ep/XWex/MgtSiGj+3v/o7fQD/Citco9TLbo2xqsaUw9erdYW542Sj9b0Harp/71eX0vnPuoCykNu08BKQEBTh1zSTQkoHDNx104z32XAZ2jmn3nEyNNown6QeOsx1JGqc7JLeKIzeMkHS/VagIchGjdAUmj4ik9VbAD6AYlgPwpehtJpe4oaVhQP6JrpoakBJaKeNPHTb2r7rW0vUwt/+60RpBO+t6DbSAENrZxBuD/cT6vVfI6lubyPrjPR00o/rDNfK66CXcKdLFumG/AvitBYHkie9qGkv0HNRYfcBgElavcBNz6yoduoe2g4oPqShIKJYX7wWyfqGyFoN35YGEaHLsf+JpzzRgrWJzJZgJ67gAI2QLFgSvLUyxYKKH7pM3vWO6DU4yIBxVCLxRbOB5dF+HKLS7iMGtr1cW0P57HYR/NxgIYvDwQ05ucYqHw8oLwSm06quGZAdQ+NLEwMyQFNKZvpIKD6EiYSULwkpQMf+XGip9o7UZgOQtQooEn+zhCeQ7kMaQuu4wPpyU5Y098n6jv3n1TvV16VP/rCBXnvmbRyvOzD7EI+IzwLHbz432ll+Wq9dbN1+svJPjlw85Gql/IAHnzjOeTI9V+qvL2N8kNkF+V7Sa+19aV5QENz6D7zf8zwjT9choRo4IJ3at3h3Z8yHJl8iyKNGr4V+YRwDwVSK3Hh+VUvtB6jHpn9mvUwZY4cQ5d+yGgT0VzV/413GJm1z/WzvLWD4/htXzOFiSgQfee8KdcrldsS7qGjN2UbvfvOeYPh+CkL1EaaZ99nODJZvaw9HqT4XNIhXhdfJ6SACoui6T3Zc8n+HW/R/89E414cL9H/2Q/DLy5FckfTEStLXPxP/Ph80r2kCioLG7hxoBcv3/63rCwR7rXiM209W16qJu/O6hu67ENZG6Ueykbu0Ru/pPVwvRumtbzn4X5yiII9lKNhXLoXUIIY0Idu0rLhyz9mOJZo1UhDrf6g1GlHU0Cz60MEVu8yOPlwvVMgRLNPPKADinuzlvDEQwd067H5j2TipxdmbYwMuaM3naz1sh6KSPvnabxfA91oQC9PDGhDxIdcF6k/ANKTA4pnllJA8Z8isoC2WEB1D00N6OM2oP9qOEVAMQ+umVt6PKDSkIs5ePjqk3Sv1no0V7fOeA3Nv6/RRwn505bNR+n5GrclJapctvj82aSjUZlyQLkRpENGrcynQ3xpDrUPof0B3VAKaJ0eOvf4/breckB7/T2U5lCph+6joV0vuvLzoXTIFxZMB/ebOdm+HVzl+mDt4hhpR70emnJSFqRbCSid1fSvbiY5LR4uOlHNP/tICXpvEM2XlSF3UxbQ2T/dQ3q/UQta/zcmXWDyvit03QNk2xIucXr0HHqMmn/m11pv7OYvZ23cgnqqAcVridl5eBYv1rHWH4Jf+nfI/6zHO4cKNmqDbOiABjdax+A2hJ2k1EPnnvqlXvhARy92EEDkdRr8jfpxWPGbXlMt83TE6mdlymV5eTwYt4RdgNnNAfSyTM+2teXpocNX2YDK0CMGwRtwQu2ApsD4LcQP91CfgUSIT1toHhu5/gs01x1J9nF3pQzsisd+W077f3cHDZlH547MnEmORT2Mpx+DnfNGtTT0jCmZkd6kRXMc5Lq326DqHlq9OY+AatsuyB94wrI81qO3qeAF5IqOgTegTYZci1g8SF5/UZQCVExO8z4+o863sn9C/6sPF9LtNRD28eAx10Lf42oOq1kKIP5p+yLlMzxBc/Cz3m/Coz7oLPY+ocZu2WLaeqTefO2Sr4fiB4GdiJawIazYekKwDqcj/vGdRIPffn+h3wSRoFYCWnv4DVTgDWibhO0eCOjAzncaTj2aevAqah9GhCP0jgeXijm0DAS09MoFDdfZqxlVXV9AS89Dfb6LBE0EyhDa76GBRsWftjSjdgM6+9g9eRsXnn3UcAsaviq7pnSBH8D0r4u9T3iong/fDqSA4lFcNtVU9b1+DEEo050hF6DKskWR/2K8Di2P96mJuy7Um7ZGb/gi2d+g7wWP3bpVjX9vm5p59HbdY1JoeaxlArFRTf3yGsMtSA+5cJYFP69TX5K9Q0NrAb6VxYU0h84//XDZnms7hpC+kRUBrWs8BrInrXKb0MLe36uebdgj619Vovfg31mlBBWXKlkwNmZlHAqtcnHjY3VuRtuo7NtlkHrovrt2ksx/Dklw48TzlF6HHtom4eY6LX5gE0EYufLTGpjnRgyGLv2glmNliuvcOK1l+29Jv7X1GLXqLMR8Q64GAkoLND1/1gromuo/H7sTjY4NhBugNpEFtMNGMwRWuTUIu/DQ+3DDPvS2dnb3ZyOtIsNPOyzNPf5zOu9s/nM/DulbFGnQwmhlalivxnE7UfPgP8eHbkAXWn/0zrcdA7Whez2UoHtom1Movo0LW6VHagItth7Ter1nvVb36hhhW2f2fspG1X/Bu4lRNBQfseLn4aJ12stY75SH0PIcSiPCDbjRHx9u27rJQ2jeQxPKdGLInf3T3Xoo7d9+fMnpLmGDNerEg3M4MIWyzWLkZDqXbIN2Vq64Tm0Isjd4cfEIb2n4WTqHF8u6Ibg+TvC52EMb/UqEyjoR0NX9E/rdEgy7eEdkaeApvWWSA//wp4+GONQ5dstppmSc8D6M/V4Drg/tTYZFstk649V0TsVtxp5Nh5tjAVyXZnwLI6OVcHG3ay1/tFYbCQF0cVi7XVxDqph4nVrl2pd90FPx5CT7pwIA0gQ4k2QIDi5v6tDkA7vzNvOdDvgQh34I8MwetfDMw3QEKP30nixNlyALhIxfALr8ZgVewagTmM4MuXUQahyX0S+1UwHFinKcgroX92O/9AIBL1L9X3+H3t5Sl7BrDy8BZ/Pbxsp9ZE51lwP4xz/Yx1TyUZfRuUVRJdDpAU11FG67oQfioTUHVp0pCyEfYa+tfSKDl3sx57VLGL4HLnyP4xMHNXpuKtoPqK9RxO90QLtJ03tuNueSfTJneXLISOoTHhAMXfm5whf8Bn43Qe1vHlApkDkPK8cODrnrRGPmXVScAy47pKDGfnz4tsPItZ/PfdK//S1q/Idn5/mOQPK94TcLaDCYRf5gCyhu5+H9U3su6KlLI38z0jitLcyqoV0fy33Q+7XX6w99YLdh7hcOwWelvA8+PeKnbbSWdLiMI5dvUHNPpb/iV4u6OEZjuBy5JvvMOYA5Fd8WjBECh3dPs8UVyh6pFs1cjK2juV8iKH3/1sLHc/mUr7eN0xqRYOVMH5+SORDmxzQqWoqV7+jNm4vzoevgyft3k0BeeGGvk/1kXVHmKLU6nz07xX8W5n6pBcenXkCPkA25oUJWFjNsDHJea9uxav8f7tK79bASLcHyXBnynDc54peHynKZ5ecy2CRwPgdkdMkxduu20vkNXfFJXd4ShtixW0+n62PbKwvgQcKa+QHkAeU+cnxV4XFdV+YD6XTussUHqiS/AcBxinOs8A83PHs0PK++k+ZHbcPYyXmWz3nGPtXTQ8fsNfpysHDzYnrPLWruzw+q3sDb2Pvu2K6DCYr3UNazfeh4QH0GLT+hQVlAItiUHXErrSKrYEO+Say8WayAy4/lbf1uHnqlc8QtPpMulSMdbNLme5Um7fuoIcT8l4i0gNrK2qgUu8nnn320JrD3VuKvP7BVZfKeS/V92qzXZsAOCq6HVwtdSgooAbf9unPrr51fi6csvmnLFx4HKy32Pq4GL/mAGtj5bjX3pP+rK5xG7cZuING34mqXoRJ4o19vDuWVJDbM6mEowltiq7MT+om/iDmBl4xpgVcHVF6qv502zU3rL6dId4paTj7GDyEvQz7uzKLIDa4v2MTXm50bArsFJH4230n8TqKow9+OKvhcG4XPb6loO6BSIKVGtdvQ9cJ6trNuXT7fcpC8q++H/j+6gEi8OjPkhtCpH0zCr1Pkp+J58sOuBtR3YnX5nUaTemyZlLJ1dEOQyrdrEwjZYG1vv4fyipo0vEkZjjrlra5Upt12JKONRRLykXbWC2jImE8mNUrirzfqtgN6km6d8+C6brm6eZdn0t2fQ5/PkJzcScSC6IJk5YBCuUkjm5SxiDRQ5HcTdeuEvlBGvEHQzfMxtjvbQzvZ4G6evA+os069Pt2mbY+VS7AbD6hjpPLLq9t46Ltl6toAJDscrtyjXzofK5d0eV6S10H07hHuMNExVqcgzwLqKvp4FlZmjJR4ko4kD8FnS0JM1qSsy+d2QvYkNNF3wWU67fwgmE41oDwtISZnaNmKUcbC0fHyLZrKAGs7pifBluFlJV4I0PPp5nwWHK4bKivB6HZ2DvWhTsMk1Cxf+4lFiv2659DuOTdEFz/eGMmnwFcG/JDMzYf0LWJyH7pl14eIvfVb5bZ74q48pt8prFc9Fm3Wd5h+Mp4bMasrR0lETI/LHd38aXxqXTEE6mq3juThu1PnEoKvDsbv7hwqNSCFh7ykVxedsBFCp+1ze5LtWH0kz+bQmCIH13XL1bHDV8Ccn2IjpmPlOKbaT9XL4YxmSMfKhOrg5W2a561eCKSX99DGNwy4nlTG8ujoHb6gI5UNoa5+u2DnUZFJMHrBc5b4BrVX6hpHqP8Dri7RHbsM26oAAAAASUVORK5CYII=;" parent="1" vertex="1">
          <mxGeometry x="1162.53" y="980.13" width="53.95" height="60" as="geometry" />
        </mxCell>
        <mxCell id="g5C7Mxiqw0isMGBFC2JA-46" value="" style="endArrow=classic;html=1;rounded=0;fillColor=#ffe6cc;strokeColor=#d79b00;" parent="1" edge="1">
          <mxGeometry width="50" height="50" relative="1" as="geometry">
            <mxPoint x="1216.48" y="1020.13" as="sourcePoint" />
            <mxPoint x="1250" y="1020" as="targetPoint" />
          </mxGeometry>
        </mxCell>
        <mxCell id="g5C7Mxiqw0isMGBFC2JA-47" value="$$\mathcal{D_{CACAO}}$$" style="text;html=1;align=center;verticalAlign=middle;whiteSpace=wrap;rounded=0;" parent="1" vertex="1">
          <mxGeometry x="1270" y="1010" width="20" height="20" as="geometry" />
        </mxCell>
        <mxCell id="eD7BpKBJ3AIuO1GdsIJj-1" value="SIEM / EDR/ XDR" style="rounded=1;whiteSpace=wrap;html=1;verticalAlign=top;" vertex="1" parent="1">
          <mxGeometry x="240" y="540" width="120" height="60" as="geometry" />
        </mxCell>
        <mxCell id="eD7BpKBJ3AIuO1GdsIJj-2" value="&lt;font&gt;🛡️&lt;/font&gt;" style="text;whiteSpace=wrap;html=1;fontSize=26;" vertex="1" parent="1">
          <mxGeometry x="285" y="560" width="30" height="40" as="geometry" />
        </mxCell>
        <mxCell id="eD7BpKBJ3AIuO1GdsIJj-3" value="Ingests alerts and logs from endpoints and infrastructure." style="text;whiteSpace=wrap;html=1;align=center;" vertex="1" parent="1">
          <mxGeometry x="245" y="600" width="110" height="40" as="geometry" />
        </mxCell>
        <mxCell id="eD7BpKBJ3AIuO1GdsIJj-4" value="" style="endArrow=classic;html=1;rounded=0;" edge="1" parent="1">
          <mxGeometry width="50" height="50" relative="1" as="geometry">
            <mxPoint x="360" y="570" as="sourcePoint" />
            <mxPoint x="470" y="570" as="targetPoint" />
          </mxGeometry>
        </mxCell>
        <mxCell id="eD7BpKBJ3AIuO1GdsIJj-5" value="MITRE Technique Mapper" style="rounded=1;whiteSpace=wrap;html=1;verticalAlign=top;" vertex="1" parent="1">
          <mxGeometry x="470" y="540" width="120" height="60" as="geometry" />
        </mxCell>
        <mxCell id="eD7BpKBJ3AIuO1GdsIJj-6" value="🧩" style="text;whiteSpace=wrap;html=1;fontSize=26;" vertex="1" parent="1">
          <mxGeometry x="550" y="560" width="40" height="40" as="geometry" />
        </mxCell>
        <mxCell id="eD7BpKBJ3AIuO1GdsIJj-7" value="&lt;span class=&quot;relative -mx-px my-[-0.2rem] rounded px-px py-[0.2rem] transition-colors duration-100 ease-in-out&quot;&gt;Identifies the MITRE ATT&amp;amp;CK technique ID based on detection logic or classifier.&lt;/span&gt;" style="text;whiteSpace=wrap;html=1;align=center;" vertex="1" parent="1">
          <mxGeometry x="445" y="600" width="170" height="40" as="geometry" />
        </mxCell>
        <mxCell id="eD7BpKBJ3AIuO1GdsIJj-8" value="CyberGuardianLLM" style="text;whiteSpace=wrap;html=1;" vertex="1" parent="1">
          <mxGeometry x="1162.53" y="780" width="140" height="40" as="geometry" />
        </mxCell>
        <mxCell id="eD7BpKBJ3AIuO1GdsIJj-10" value="CyberPlaybookLLM" style="rounded=1;whiteSpace=wrap;html=1;verticalAlign=top;" vertex="1" parent="1">
          <mxGeometry x="687" y="540" width="120" height="60" as="geometry" />
        </mxCell>
        <mxCell id="eD7BpKBJ3AIuO1GdsIJj-9" value="&lt;font&gt;🤖&lt;/font&gt;" style="text;whiteSpace=wrap;html=1;fontSize=26;fillColor=none;strokeColor=none;" vertex="1" parent="1">
          <mxGeometry x="727" y="560" width="40" height="30" as="geometry" />
        </mxCell>
        <mxCell id="eD7BpKBJ3AIuO1GdsIJj-11" value="Analyst Review" style="rounded=1;whiteSpace=wrap;html=1;verticalAlign=top;" vertex="1" parent="1">
          <mxGeometry x="904" y="540" width="120" height="60" as="geometry" />
        </mxCell>
        <mxCell id="eD7BpKBJ3AIuO1GdsIJj-12" value="Analyst may review, adjust, or approve the generated response." style="text;whiteSpace=wrap;html=1;align=center;" vertex="1" parent="1">
          <mxGeometry x="890.7" y="602.5" width="140" height="35" as="geometry" />
        </mxCell>
        <mxCell id="eD7BpKBJ3AIuO1GdsIJj-13" value="👨‍💻" style="text;whiteSpace=wrap;html=1;fontSize=26;" vertex="1" parent="1">
          <mxGeometry x="944.7" y="557" width="40" height="40" as="geometry" />
        </mxCell>
        <mxCell id="eD7BpKBJ3AIuO1GdsIJj-14" value="&lt;span class=&quot;relative -mx-px my-[-0.2rem] rounded px-px py-[0.2rem] transition-colors duration-100 ease-in-out&quot;&gt;Generates mitigation steps and CACAO playbooks from the structured incident&lt;/span&gt;" style="text;whiteSpace=wrap;html=1;align=center;" vertex="1" parent="1">
          <mxGeometry x="662" y="602.5" width="170" height="40" as="geometry" />
        </mxCell>
        <mxCell id="eD7BpKBJ3AIuO1GdsIJj-15" value="⚙️" style="text;whiteSpace=wrap;html=1;fontSize=26;" vertex="1" parent="1">
          <mxGeometry x="1139" y="566" width="50" height="40" as="geometry" />
        </mxCell>
        <mxCell id="eD7BpKBJ3AIuO1GdsIJj-17" value="&lt;span class=&quot;relative -mx-px my-[-0.2rem] rounded px-px py-[0.2rem] transition-colors duration-100 ease-in-out&quot;&gt;Executes the CACAO playbook in response workflows or sandboxed test mode.&lt;/span&gt;" style="text;whiteSpace=wrap;html=1;align=center;" vertex="1" parent="1">
          <mxGeometry x="1044" y="602.5" width="176" height="40" as="geometry" />
        </mxCell>
        <mxCell id="eD7BpKBJ3AIuO1GdsIJj-19" value="" style="endArrow=classic;html=1;rounded=0;entryX=0;entryY=0.5;entryDx=0;entryDy=0;" edge="1" parent="1" target="eD7BpKBJ3AIuO1GdsIJj-10">
          <mxGeometry width="50" height="50" relative="1" as="geometry">
            <mxPoint x="590" y="569.5" as="sourcePoint" />
            <mxPoint x="670" y="570" as="targetPoint" />
          </mxGeometry>
        </mxCell>
        <mxCell id="eD7BpKBJ3AIuO1GdsIJj-20" value="" style="endArrow=classic;html=1;rounded=0;entryX=0;entryY=0.5;entryDx=0;entryDy=0;" edge="1" parent="1" target="eD7BpKBJ3AIuO1GdsIJj-11">
          <mxGeometry width="50" height="50" relative="1" as="geometry">
            <mxPoint x="807" y="569.75" as="sourcePoint" />
            <mxPoint x="904" y="570.25" as="targetPoint" />
          </mxGeometry>
        </mxCell>
        <mxCell id="eD7BpKBJ3AIuO1GdsIJj-21" value="" style="endArrow=classic;html=1;rounded=0;entryX=0;entryY=0.5;entryDx=0;entryDy=0;" edge="1" parent="1" target="eD7BpKBJ3AIuO1GdsIJj-16">
          <mxGeometry width="50" height="50" relative="1" as="geometry">
            <mxPoint x="1023.7" y="569.71" as="sourcePoint" />
            <mxPoint x="1120.7" y="569.96" as="targetPoint" />
          </mxGeometry>
        </mxCell>
      </root>
    </mxGraphModel>
  </diagram>
</mxfile>
